<svg width="20" height="20" viewBox="0 0 20 20" fill="none" xmlns="http://www.w3.org/2000/svg">
<path d="M18.75 0.3125H1.25C1.16712 0.3125 1.08763 0.345424 1.02903 0.404029C0.970424 0.462634 0.9375 0.54212 0.9375 0.625V1.875C0.9375 1.95788 0.970424 2.03737 1.02903 2.09597C1.08763 2.15458 1.16712 2.1875 1.25 2.1875V18.4375C1.25 18.5204 1.28292 18.5999 1.34153 18.6585C1.40013 18.7171 1.47962 18.75 1.5625 18.75H1.875V19.375C1.875 19.4579 1.90792 19.5374 1.96653 19.596C2.02513 19.6546 2.10462 19.6875 2.1875 19.6875H3.125C3.19059 19.6875 3.25452 19.6669 3.30773 19.6285C3.36094 19.5902 3.40074 19.5361 3.42148 19.4738L3.66289 18.75H16.6496L16.891 19.4738C16.9118 19.5361 16.9516 19.5902 17.0048 19.6285C17.058 19.6669 17.1219 19.6875 17.1875 19.6875H18.125C18.2079 19.6875 18.2874 19.6546 18.346 19.596C18.4046 19.5374 18.4375 19.4579 18.4375 19.375V18.75C18.5204 18.75 18.5999 18.7171 18.6585 18.6585C18.7171 18.5999 18.75 18.5204 18.75 18.4375V2.1875C18.8329 2.1875 18.9124 2.15458 18.971 2.09597C19.0296 2.03737 19.0625 1.95788 19.0625 1.875V0.625C19.0625 0.54212 19.0296 0.462634 18.971 0.404029C18.9124 0.345424 18.8329 0.3125 18.75 0.3125ZM2.89961 19.0625H2.5V18.75H3.00391L2.89961 19.0625ZM17.8125 19.0625H17.4129L17.3086 18.75H17.8125V19.0625ZM18.125 18.125H1.875V2.1875H18.125V18.125ZM18.4375 1.5625H1.5625V0.9375H18.4375V1.5625Z" fill="black"/>
<path d="M2.5 17.8125H9.6875C9.77038 17.8125 9.84987 17.7796 9.90847 17.721C9.96708 17.6624 10 17.5829 10 17.5V2.8125C10 2.72962 9.96708 2.65013 9.90847 2.59153C9.84987 2.53292 9.77038 2.5 9.6875 2.5H2.5C2.41712 2.5 2.33763 2.53292 2.27903 2.59153C2.22042 2.65013 2.1875 2.72962 2.1875 2.8125V17.5C2.1875 17.5829 2.22042 17.6624 2.27903 17.721C2.33763 17.7796 2.41712 17.8125 2.5 17.8125ZM2.8125 3.125H9.375V17.1875H2.8125V3.125Z" fill="black"/>
<path d="M8.75 8.75C8.66712 8.75 8.58763 8.78292 8.52903 8.84153C8.47042 8.90013 8.4375 8.97962 8.4375 9.0625V10.9375C8.4375 11.0204 8.47042 11.0999 8.52903 11.1585C8.58763 11.2171 8.66712 11.25 8.75 11.25C8.83288 11.25 8.91237 11.2171 8.97097 11.1585C9.02958 11.0999 9.0625 11.0204 9.0625 10.9375V9.0625C9.0625 8.97962 9.02958 8.90013 8.97097 8.84153C8.91237 8.78292 8.83288 8.75 8.75 8.75Z" fill="black"/>
<path d="M10.625 17.8125H17.5C17.5829 17.8125 17.6624 17.7796 17.721 17.721C17.7796 17.6624 17.8125 17.5829 17.8125 17.5V15C17.8125 14.9171 17.7796 14.8376 17.721 14.779C17.6624 14.7204 17.5829 14.6875 17.5 14.6875H10.625C10.5421 14.6875 10.4626 14.7204 10.404 14.779C10.3454 14.8376 10.3125 14.9171 10.3125 15V17.5C10.3125 17.5829 10.3454 17.6624 10.404 17.721C10.4626 17.7796 10.5421 17.8125 10.625 17.8125ZM10.9375 15.3125H17.1875V17.1875H10.9375V15.3125Z" fill="black"/>
<path d="M14.6875 15.625H13.4375C13.3546 15.625 13.2751 15.6579 13.2165 15.7165C13.1579 15.7751 13.125 15.8546 13.125 15.9375C13.125 16.0204 13.1579 16.0999 13.2165 16.1585C13.2751 16.2171 13.3546 16.25 13.4375 16.25H14.6875C14.7704 16.25 14.8499 16.2171 14.9085 16.1585C14.9671 16.0999 15 16.0204 15 15.9375C15 15.8546 14.9671 15.7751 14.9085 15.7165C14.8499 15.6579 14.7704 15.625 14.6875 15.625Z" fill="black"/>
<path d="M10.625 14.375H17.5C17.5829 14.375 17.6624 14.3421 17.721 14.2835C17.7796 14.2249 17.8125 14.1454 17.8125 14.0625V11.5625C17.8125 11.4796 17.7796 11.4001 17.721 11.3415C17.6624 11.2829 17.5829 11.25 17.5 11.25H10.625C10.5421 11.25 10.4626 11.2829 10.404 11.3415C10.3454 11.4001 10.3125 11.4796 10.3125 11.5625V14.0625C10.3125 14.1454 10.3454 14.2249 10.404 14.2835C10.4626 14.3421 10.5421 14.375 10.625 14.375ZM10.9375 11.875H17.1875V13.75H10.9375V11.875Z" fill="black"/>
<path d="M14.6875 12.1875H13.4375C13.3546 12.1875 13.2751 12.2204 13.2165 12.279C13.1579 12.3376 13.125 12.4171 13.125 12.5C13.125 12.5829 13.1579 12.6624 13.2165 12.721C13.2751 12.7796 13.3546 12.8125 13.4375 12.8125H14.6875C14.7704 12.8125 14.8499 12.7796 14.9085 12.721C14.9671 12.6624 15 12.5829 15 12.5C15 12.4171 14.9671 12.3376 14.9085 12.279C14.8499 12.2204 14.7704 12.1875 14.6875 12.1875Z" fill="black"/>
<path d="M10.625 10.9375H17.5C17.5829 10.9375 17.6624 10.9046 17.721 10.846C17.7796 10.7874 17.8125 10.7079 17.8125 10.625V2.8125C17.8125 2.72962 17.7796 2.65013 17.721 2.59153C17.6624 2.53292 17.5829 2.5 17.5 2.5H10.625C10.5421 2.5 10.4626 2.53292 10.404 2.59153C10.3454 2.65013 10.3125 2.72962 10.3125 2.8125V10.625C10.3125 10.7079 10.3454 10.7874 10.404 10.846C10.4626 10.9046 10.5421 10.9375 10.625 10.9375ZM10.9375 3.125H17.1875V10.3125H10.9375V3.125Z" fill="black"/>
<path d="M15.3772 5.56028C15.3482 5.53126 15.3138 5.50825 15.2759 5.49254C15.2379 5.47683 15.1973 5.46875 15.1563 5.46875C15.1152 5.46875 15.0746 5.47683 15.0367 5.49254C14.9988 5.50825 14.9643 5.53126 14.9353 5.56028L12.1228 8.37279C12.0938 8.4018 12.0707 8.43625 12.055 8.47417C12.0393 8.51208 12.0312 8.55272 12.0312 8.59376C12.0313 8.6348 12.0393 8.67544 12.055 8.71335C12.0707 8.75127 12.0938 8.78572 12.1228 8.81474C12.1518 8.84376 12.1863 8.86678 12.2242 8.88248C12.2621 8.89819 12.3027 8.90627 12.3438 8.90627C12.3848 8.90627 12.4254 8.89819 12.4634 8.88248C12.5013 8.86678 12.5357 8.84376 12.5647 8.81474L15.3772 6.00224C15.4063 5.97322 15.4293 5.93877 15.445 5.90085C15.4607 5.86294 15.4688 5.8223 15.4688 5.78126C15.4688 5.74022 15.4607 5.69958 15.445 5.66167C15.4293 5.62375 15.4063 5.5893 15.3772 5.56028Z" fill="black"/>
<path d="M12.6563 7.18751C12.6973 7.18756 12.738 7.17951 12.7759 7.1638C12.8138 7.14809 12.8483 7.12505 12.8772 7.09598L14.4397 5.53348C14.4983 5.47488 14.5313 5.39539 14.5313 5.31251C14.5313 5.22963 14.4983 5.15014 14.4397 5.09153C14.3811 5.03292 14.3016 5 14.2188 5C14.1359 5 14.0564 5.03292 13.9978 5.09153L12.4353 6.65403C12.3916 6.69774 12.3618 6.75342 12.3498 6.81404C12.3377 6.87466 12.3439 6.93749 12.3675 6.9946C12.3912 7.0517 12.4312 7.10051 12.4826 7.13485C12.534 7.16918 12.5945 7.18751 12.6563 7.18751Z" fill="black"/>
<path d="M15.0915 6.96653L13.8415 8.21653C13.7829 8.27514 13.75 8.35463 13.75 8.43751C13.75 8.52039 13.7829 8.59988 13.8415 8.65848C13.9001 8.71709 13.9796 8.75002 14.0625 8.75002C14.1454 8.75002 14.2249 8.71709 14.2835 8.65848L15.5335 7.40848C15.5921 7.34988 15.625 7.27039 15.625 7.18751C15.625 7.10463 15.5921 7.02514 15.5335 6.96653C15.4749 6.90792 15.3954 6.875 15.3125 6.875C15.2296 6.875 15.1501 6.90792 15.0915 6.96653Z" fill="black"/>
</svg>
