<svg width="42" height="42" viewBox="0 0 42 42" fill="none" xmlns="http://www.w3.org/2000/svg">
<path d="M36.3999 0H5.5999C5.21333 0 4.8999 0.313425 4.8999 0.7V41.3C4.8999 41.6866 5.21333 42 5.5999 42H36.3999C36.7865 42 37.0999 41.6866 37.0999 41.3V0.7C37.0999 0.313425 36.7865 0 36.3999 0ZM27.9999 1.4H30.7999V2.8H27.9999V1.4ZM35.6999 40.6H6.2999V1.4H26.5999V3.5C26.5999 3.88657 26.9133 4.2 27.2999 4.2H31.4999C31.8865 4.2 32.1999 3.88657 32.1999 3.5V1.4H35.6999V40.6Z" fill="white"/>
<path d="M33.6002 5.59998H8.4002C8.01362 5.59998 7.7002 5.9134 7.7002 6.29998V14.7C7.7002 15.0866 8.01362 15.4 8.4002 15.4H33.6002C33.9868 15.4 34.3002 15.0866 34.3002 14.7V6.29998C34.3002 5.9134 33.9868 5.59998 33.6002 5.59998ZM32.9002 14H9.1002V6.99998H32.9002V14Z" fill="white"/>
<path d="M33.6002 28H29.4002C29.0136 28 28.7002 28.3134 28.7002 28.7V38.5C28.7002 38.8866 29.0136 39.2 29.4002 39.2H33.6002C33.9868 39.2 34.3002 38.8866 34.3002 38.5V28.7C34.3002 28.3134 33.9868 28 33.6002 28ZM32.9002 37.8H30.1002V29.4H32.9002V37.8Z" fill="white"/>
<path d="M12.6002 19.6H8.4002C8.01362 19.6 7.7002 19.9135 7.7002 20.3V24.5C7.7002 24.8866 8.01362 25.2 8.4002 25.2H12.6002C12.9868 25.2 13.3002 24.8866 13.3002 24.5V20.3C13.3002 19.9135 12.9868 19.6 12.6002 19.6ZM11.9002 23.8H9.1002V21H11.9002V23.8Z" fill="white"/>
<path d="M19.6002 19.6H15.4002C15.0136 19.6 14.7002 19.9135 14.7002 20.3V24.5C14.7002 24.8866 15.0136 25.2 15.4002 25.2H19.6002C19.9868 25.2 20.3002 24.8866 20.3002 24.5V20.3C20.3002 19.9135 19.9868 19.6 19.6002 19.6ZM18.9002 23.8H16.1002V21H18.9002V23.8Z" fill="white"/>
<path d="M26.5997 19.6H22.3997C22.0131 19.6 21.6997 19.9135 21.6997 20.3V24.5C21.6997 24.8866 22.0131 25.2 22.3997 25.2H26.5997C26.9863 25.2 27.2997 24.8866 27.2997 24.5V20.3C27.2997 19.9135 26.9863 19.6 26.5997 19.6ZM25.8997 23.8H23.0997V21H25.8997V23.8Z" fill="white"/>
<path d="M12.6002 26.6H8.4002C8.01362 26.6 7.7002 26.9134 7.7002 27.3V31.5C7.7002 31.8865 8.01362 32.2 8.4002 32.2H12.6002C12.9868 32.2 13.3002 31.8865 13.3002 31.5V27.3C13.3002 26.9134 12.9868 26.6 12.6002 26.6ZM11.9002 30.8H9.1002V28H11.9002V30.8Z" fill="white"/>
<path d="M19.6002 26.6H15.4002C15.0136 26.6 14.7002 26.9134 14.7002 27.3V31.5C14.7002 31.8865 15.0136 32.2 15.4002 32.2H19.6002C19.9868 32.2 20.3002 31.8865 20.3002 31.5V27.3C20.3002 26.9134 19.9868 26.6 19.6002 26.6ZM18.9002 30.8H16.1002V28H18.9002V30.8Z" fill="white"/>
<path d="M26.5997 26.6H22.3997C22.0131 26.6 21.6997 26.9134 21.6997 27.3V31.5C21.6997 31.8865 22.0131 32.2 22.3997 32.2H26.5997C26.9863 32.2 27.2997 31.8865 27.2997 31.5V27.3C27.2997 26.9134 26.9863 26.6 26.5997 26.6ZM25.8997 30.8H23.0997V28H25.8997V30.8Z" fill="white"/>
<path d="M12.6002 33.6H8.4002C8.01362 33.6 7.7002 33.9134 7.7002 34.3V38.5C7.7002 38.8866 8.01362 39.2 8.4002 39.2H12.6002C12.9868 39.2 13.3002 38.8866 13.3002 38.5V34.3C13.3002 33.9134 12.9868 33.6 12.6002 33.6ZM11.9002 37.8H9.1002V35H11.9002V37.8Z" fill="white"/>
<path d="M19.6002 33.6H15.4002C15.0136 33.6 14.7002 33.9134 14.7002 34.3V38.5C14.7002 38.8866 15.0136 39.2 15.4002 39.2H19.6002C19.9868 39.2 20.3002 38.8866 20.3002 38.5V34.3C20.3002 33.9134 19.9868 33.6 19.6002 33.6ZM18.9002 37.8H16.1002V35H18.9002V37.8Z" fill="white"/>
<path d="M26.5997 33.6H22.3997C22.0131 33.6 21.6997 33.9134 21.6997 34.3V38.5C21.6997 38.8866 22.0131 39.2 22.3997 39.2H26.5997C26.9863 39.2 27.2997 38.8866 27.2997 38.5V34.3C27.2997 33.9134 26.9863 33.6 26.5997 33.6ZM25.8997 37.8H23.0997V35H25.8997V37.8Z" fill="white"/>
<path d="M12.6002 16.8H8.4002C8.01362 16.8 7.7002 17.1134 7.7002 17.5C7.7002 17.8866 8.01362 18.2 8.4002 18.2H12.6002C12.9868 18.2 13.3002 17.8866 13.3002 17.5C13.3002 17.1134 12.9868 16.8 12.6002 16.8Z" fill="white"/>
<path d="M19.6002 16.8H15.4002C15.0136 16.8 14.7002 17.1134 14.7002 17.5C14.7002 17.8866 15.0136 18.2 15.4002 18.2H19.6002C19.9868 18.2 20.3002 17.8866 20.3002 17.5C20.3002 17.1134 19.9868 16.8 19.6002 16.8Z" fill="white"/>
<path d="M26.5997 16.8H22.3997C22.0131 16.8 21.6997 17.1134 21.6997 17.5C21.6997 17.8866 22.0131 18.2 22.3997 18.2H26.5997C26.9863 18.2 27.2997 17.8866 27.2997 17.5C27.2997 17.1134 26.9863 16.8 26.5997 16.8Z" fill="white"/>
<path d="M33.6002 16.8H29.4002C29.0136 16.8 28.7002 17.1134 28.7002 17.5V20.3C28.7002 20.6866 29.0136 21 29.4002 21H33.6002C33.9868 21 34.3002 20.6866 34.3002 20.3V17.5C34.3002 17.1134 33.9868 16.8 33.6002 16.8ZM32.9002 19.6H30.1002V18.2H32.9002V19.6Z" fill="white"/>
<path d="M33.6002 22.4H29.4002C29.0136 22.4 28.7002 22.7134 28.7002 23.1V25.9C28.7002 26.2865 29.0136 26.6 29.4002 26.6H33.6002C33.9868 26.6 34.3002 26.2865 34.3002 25.9V23.1C34.3002 22.7134 33.9868 22.4 33.6002 22.4ZM32.9002 25.2H30.1002V23.8H32.9002V25.2Z" fill="white"/>
<path d="M30.7998 9.80002H30.0998V9.10002C30.0998 8.71345 29.7864 8.40002 29.3998 8.40002C29.0132 8.40002 28.6998 8.71345 28.6998 9.10002V9.80002H27.9998C27.6132 9.80002 27.2998 10.1134 27.2998 10.5C27.2998 10.8866 27.6132 11.2 27.9998 11.2H28.6998V11.9C28.6998 12.2866 29.0132 12.6 29.3998 12.6C29.7864 12.6 30.0998 12.2866 30.0998 11.9V11.2H30.7998C31.1864 11.2 31.4998 10.8866 31.4998 10.5C31.4998 10.1134 31.1864 9.80002 30.7998 9.80002Z" fill="white"/>
<path d="M9.8002 2.79999H8.4002C8.01362 2.79999 7.7002 3.11341 7.7002 3.49999C7.7002 3.88656 8.01362 4.19999 8.4002 4.19999H9.8002C10.1868 4.19999 10.5002 3.88656 10.5002 3.49999C10.5002 3.11341 10.1868 2.79999 9.8002 2.79999Z" fill="white"/>
</svg>
