<svg width="36" height="36" viewBox="0 0 36 36" fill="none" xmlns="http://www.w3.org/2000/svg">
<circle cx="18" cy="18" r="18" fill="#F8F8F8"/>
<path fill-rule="evenodd" clip-rule="evenodd" d="M14.5 11.5C14.2673 11.7732 14.305 12.1793 14.5843 12.4069L16.2849 13.6237L18.4496 15.3178C18.7696 15.5682 19.1439 15.7436 19.5439 15.8306L26.613 17.3674C27.2385 17.5034 27.6835 18.0462 27.6835 18.673V21.0465C27.6835 21.7851 27.0715 22.3839 26.3165 22.3839H24.2785C23.915 22.3839 23.6203 22.6722 23.6203 23.0279C23.6203 23.3835 23.915 23.6718 24.2785 23.6718H26.3165C27.7985 23.6718 29 22.4964 29 21.0465V18.673C29 17.4425 28.1264 16.3771 26.8986 16.1102L19.8295 14.5733C19.6257 14.529 19.435 14.4396 19.272 14.3121L17.1125 12.6219L15.427 11.4175C15.1478 11.1898 14.7327 11.2268 14.5 11.5Z" fill="#F7761F"/>
<path fill-rule="evenodd" clip-rule="evenodd" d="M21.2405 24.9102C19.8983 24.9102 18.8101 23.8457 18.8101 22.5325C18.8101 21.2193 19.8983 20.1548 21.2405 20.1548C22.5828 20.1548 23.6709 21.2193 23.6709 22.5325C23.6709 23.8457 22.5828 24.9102 21.2405 24.9102ZM21.2405 26C19.283 26 17.6962 24.4476 17.6962 22.5325C17.6962 20.6175 19.283 19.065 21.2405 19.065C23.198 19.065 24.7848 20.6175 24.7848 22.5325C24.7848 24.4476 23.198 26 21.2405 26Z" fill="#F7761F"/>
<path fill-rule="evenodd" clip-rule="evenodd" d="M11.8308 10.0983C12.0162 10.2182 12.1291 10.4301 12.1291 10.6582V23.6835H15.371C15.7184 23.6835 16 23.9782 16 24.3418C16 24.7053 15.7184 25 15.371 25H7.62916C7.28176 25 7.00014 24.7053 7.00014 24.3418C7.00014 23.9782 7.28176 23.6835 7.62916 23.6835H10.871V11.7233L7.91047 13.2723C7.59974 13.4349 7.22191 13.3031 7.06655 12.9779C6.91118 12.6528 7.03713 12.2574 7.34785 12.0948L11.2188 10.0695C11.4138 9.96747 11.6453 9.97837 11.8308 10.0983Z" fill="#F7761F"/>
</svg>
