<svg width="36" height="36" viewBox="0 0 36 36" fill="none" xmlns="http://www.w3.org/2000/svg">
<circle cx="18" cy="18" r="18" fill="#F8F8F8"/>
<path d="M26.9875 18.285C26.8994 18.1039 26.8994 17.8961 26.9875 17.7151L27.8038 16.0365C28.2582 15.1019 27.8981 13.988 26.984 13.5004L25.3422 12.6247C25.165 12.5303 25.0436 12.3622 25.0089 12.1637L24.6878 10.3234C24.509 9.2988 23.5662 8.61027 22.5417 8.75598L20.7014 9.01766C20.5027 9.04584 20.3063 8.98165 20.1622 8.84153L18.8264 7.54251C18.0826 6.81918 16.9174 6.81914 16.1736 7.54251L14.8378 8.84166C14.6936 8.98182 14.4972 9.04589 14.2986 9.01778L12.4583 8.75611C11.4335 8.61032 10.491 9.29893 10.3122 10.3235L9.99108 12.1637C9.95641 12.3623 9.83497 12.5303 9.65788 12.6248L8.01605 13.5005C7.1019 13.988 6.74182 15.102 7.19629 16.0366L8.0125 17.7152C8.10055 17.8963 8.10055 18.104 8.0125 18.285L7.19624 19.9636C6.74178 20.8982 7.10186 22.0121 8.01601 22.4997L9.65784 23.3754C9.83497 23.4698 9.95641 23.6379 9.99108 23.8364L10.3122 25.6767C10.475 26.6094 11.2706 27.2636 12.185 27.2635C12.2751 27.2635 12.3665 27.2571 12.4584 27.2441L14.2987 26.9824C14.4971 26.9541 14.6937 27.0184 14.8378 27.1585L16.1736 28.4575C16.5456 28.8192 17.0227 29 17.5 29C17.9772 29 18.4546 28.8191 18.8264 28.4575L20.1622 27.1585C20.3064 27.0184 20.5028 26.9544 20.7014 26.9824L22.5417 27.2441C23.5666 27.3898 24.509 26.7012 24.6878 25.6766L25.009 23.8364C25.0436 23.6379 25.1651 23.4699 25.3422 23.3754L26.984 22.4997C27.8981 22.0122 28.2582 20.8981 27.8038 19.9635L26.9875 18.285ZM26.3924 21.3788L24.7505 22.2545C24.2271 22.5337 23.8681 23.0303 23.7657 23.6171L23.4446 25.4574C23.3841 25.804 23.0653 26.0369 22.7185 25.9877L20.8782 25.726C20.2913 25.6424 19.7106 25.8323 19.2846 26.2465L17.9487 27.5454C17.6971 27.7901 17.3029 27.7901 17.0512 27.5454L15.7154 26.2464C15.3554 25.8964 14.8848 25.7067 14.3935 25.7067C14.3034 25.7067 14.2127 25.713 14.1218 25.7259L12.2815 25.9876C11.935 26.0369 11.6159 25.804 11.5554 25.4573L11.2343 23.617C11.1319 23.0302 10.7729 22.5336 10.2494 22.2544L8.60755 21.3787C8.29825 21.2138 8.17643 20.8369 8.33018 20.5207L9.14644 18.8421C9.40667 18.3069 9.40667 17.6931 9.14644 17.1579L8.33018 15.4793C8.17643 15.1631 8.29825 14.7862 8.60755 14.6213L10.2494 13.7456C10.7728 13.4663 11.1319 12.9697 11.2342 12.3829L11.5553 10.5427C11.6159 10.196 11.9346 9.96313 12.2814 10.0124L14.1217 10.274C14.7084 10.3575 15.2894 10.1677 15.7153 9.75357L17.0512 8.45456C17.3028 8.20989 17.697 8.20989 17.9487 8.45456L19.2845 9.75357C19.7105 10.1678 20.2913 10.3575 20.8781 10.274L22.7184 10.0124C23.0649 9.96309 23.384 10.196 23.4445 10.5427L23.7656 12.383C23.868 12.9697 24.227 13.4664 24.7505 13.7456L26.3923 14.6213C26.7016 14.7862 26.8234 15.1631 26.6697 15.4793L25.8534 17.1578C25.5932 17.693 25.5932 18.3069 25.8534 18.8421L26.6697 20.5206C26.8235 20.8369 26.7017 21.2138 26.3924 21.3788Z" fill="#F7761F"/>
<path d="M22.1116 13.3644C21.8651 13.1167 21.4655 13.1167 21.219 13.3644L12.8885 21.7385C12.642 21.9862 12.642 22.388 12.8885 22.6357C13.0117 22.7596 13.1732 22.8215 13.3347 22.8215C13.4962 22.8215 13.6578 22.7596 13.781 22.6357L22.1115 14.2617C22.3581 14.0139 22.3581 13.6122 22.1116 13.3644Z" fill="#F7761F"/>
<path d="M14.9754 12.2903C13.6994 12.2903 12.6613 13.3339 12.6613 14.6165C12.6613 15.8992 13.6994 16.9428 14.9754 16.9428C16.2514 16.9428 17.2896 15.8992 17.2896 14.6165C17.2896 13.3339 16.2514 12.2903 14.9754 12.2903ZM14.9754 15.6739C14.3954 15.6739 13.9236 15.1996 13.9236 14.6165C13.9236 14.0335 14.3954 13.5591 14.9754 13.5591C15.5554 13.5591 16.0273 14.0335 16.0273 14.6165C16.0273 15.1996 15.5554 15.6739 14.9754 15.6739Z" fill="#F7761F"/>
<path d="M20.0245 19.0575C18.7485 19.0575 17.7103 20.1011 17.7103 21.3838C17.7103 22.6664 18.7485 23.71 20.0245 23.71C21.3005 23.71 22.3387 22.6664 22.3387 21.3838C22.3387 20.1011 21.3005 19.0575 20.0245 19.0575ZM20.0245 22.4411C19.4445 22.4411 18.9726 21.9668 18.9726 21.3838C18.9726 20.8007 19.4444 20.3264 20.0245 20.3264C20.6045 20.3264 21.0764 20.8007 21.0764 21.3838C21.0764 21.9668 20.6045 22.4411 20.0245 22.4411Z" fill="#F7761F"/>
</svg>
