<svg width="36" height="36" viewBox="0 0 36 36" fill="none" xmlns="http://www.w3.org/2000/svg">
<circle cx="18" cy="18" r="18" fill="#F8F8F8"/>
<path fill-rule="evenodd" clip-rule="evenodd" d="M14.9944 10.638C14.9944 10.2857 15.2903 10 15.6554 10H18.7627C21.6552 10 24 12.2633 24 15.0552C24 17.8471 21.6552 20.1104 18.7627 20.1104H16.3164V21.5461H19.7797C20.1447 21.5461 20.4407 21.8317 20.4407 22.1841C20.4407 22.5365 20.1447 22.8221 19.7797 22.8221H16.3164V25.362C16.3164 25.7143 16.0204 26 15.6554 26C15.2903 26 14.9944 25.7143 14.9944 25.362V22.8221H12.661C12.2959 22.8221 12 22.5365 12 22.1841C12 21.8317 12.2959 21.5461 12.661 21.5461H14.9944V20.1104H12.661C12.2959 20.1104 12 19.8248 12 19.4724C12 19.12 12.2959 18.8344 12.661 18.8344H14.9944V10.638ZM16.3164 18.8344H18.7627C20.925 18.8344 22.678 17.1424 22.678 15.0552C22.678 12.9681 20.925 11.2761 18.7627 11.2761H16.3164V18.8344Z" fill="#F7761F"/>
</svg>
