<svg width="91" height="91" viewBox="0 0 91 91" fill="none" xmlns="http://www.w3.org/2000/svg">
<path d="M86.2012 14.9761H4.79883C3.52656 14.9776 2.30684 15.4837 1.40721 16.3833C0.507578 17.2829 0.0015052 18.5026 0 19.7749L0 71.2254C0.0015052 72.4977 0.507578 73.7174 1.40721 74.6171C2.30684 75.5167 3.52656 76.0228 4.79883 76.0243H86.2012C87.4734 76.0228 88.6932 75.5167 89.5928 74.6171C90.4924 73.7174 90.9985 72.4977 91 71.2254V19.7749C90.9985 18.5026 90.4924 17.2829 89.5928 16.3833C88.6932 15.4837 87.4734 14.9776 86.2012 14.9761V14.9761ZM4.79883 17.4644H86.2012C86.8137 17.4651 87.401 17.7088 87.8341 18.1419C88.2673 18.5751 88.511 19.1623 88.5117 19.7749V24.9313H2.48828V19.7749C2.48903 19.1623 2.73271 18.5751 3.16586 18.1419C3.599 17.7088 4.18626 17.4651 4.79883 17.4644V17.4644ZM88.5117 33.6183H2.48828V27.4196H88.5117V33.6183ZM86.2012 73.536H4.79883C4.18626 73.5352 3.599 73.2916 3.16586 72.8584C2.73271 72.4253 2.48903 71.838 2.48828 71.2254V36.1051H88.5117V71.2254C88.511 71.838 88.2673 72.4253 87.8341 72.8584C87.401 73.2916 86.8137 73.5352 86.2012 73.536V73.536Z" fill="#FA6900"/>
<path d="M76.2992 51.2964C75.8537 50.8508 75.3247 50.4974 74.7426 50.2562C74.1604 50.0151 73.5364 49.8909 72.9063 49.8909C72.2761 49.8909 71.6522 50.0151 71.07 50.2562C70.4878 50.4974 69.9589 50.8508 69.5133 51.2964L67.3258 53.4868L65.1361 51.2964C64.6905 50.8508 64.1615 50.4973 63.5792 50.2562C62.997 50.015 62.373 49.8909 61.7428 49.8909C61.1126 49.8909 60.4886 50.015 59.9063 50.2562C59.3241 50.4973 58.7951 50.8508 58.3495 51.2964L53.6367 56.0099C52.7383 56.9106 52.2338 58.1308 52.2338 59.4029C52.2338 60.675 52.7383 61.8952 53.6367 62.7958L58.3495 67.5094C58.7951 67.955 59.3241 68.3085 59.9063 68.5496C60.4886 68.7908 61.1126 68.9149 61.7428 68.9149C62.373 68.9149 62.997 68.7908 63.5792 68.5496C64.1615 68.3085 64.6905 67.955 65.1361 67.5094L67.3258 65.319L69.5155 67.5094C69.961 67.955 70.49 68.3084 71.0721 68.5496C71.6543 68.7907 72.2783 68.9149 72.9084 68.9149C73.5386 68.9149 74.1625 68.7907 74.7447 68.5496C75.3269 68.3084 75.8558 67.955 76.3014 67.5094L81.0149 62.7958C81.9132 61.8952 82.4177 60.675 82.4177 59.4029C82.4177 58.1308 81.9132 56.9106 81.0149 56.0099L76.2992 51.2964ZM63.3744 65.7498C62.9339 66.1703 62.3483 66.4049 61.7392 66.4049C61.1302 66.4049 60.5446 66.1703 60.1041 65.7498L55.3913 61.037C54.958 60.6031 54.7147 60.015 54.7147 59.4018C54.7147 58.7887 54.958 58.2006 55.3913 57.7667L60.1041 53.0539C60.5444 52.633 61.1301 52.3982 61.7392 52.3982C62.3484 52.3982 62.934 52.633 63.3744 53.0539L68.0865 57.7674C68.3017 57.9818 68.4725 58.2367 68.589 58.5173C68.7055 58.7979 68.7655 59.0987 68.7655 59.4025C68.7655 59.7064 68.7055 60.0072 68.589 60.2878C68.4725 60.5684 68.3017 60.8232 68.0865 61.0377L66.4435 62.6807L63.3744 65.7498ZM79.2532 61.037L74.5404 65.7498C74.1 66.1706 73.5143 66.4055 72.9052 66.4055C72.2961 66.4055 71.7104 66.1706 71.2701 65.7498L69.0825 63.558L69.8461 62.7944C70.2918 62.3489 70.6455 61.8199 70.8868 61.2377C71.128 60.6554 71.2522 60.0314 71.2522 59.4011C71.2522 58.7709 71.128 58.1468 70.8868 57.5646C70.6455 56.9823 70.2918 56.4533 69.8461 56.0078L69.0825 55.2436L71.2729 53.0539C71.7131 52.6327 72.2988 52.3976 72.9081 52.3976C73.5173 52.3976 74.103 52.6327 74.5432 53.0539L79.256 57.7667C79.6889 58.2009 79.9318 58.7892 79.9312 59.4024C79.9307 60.0156 79.6868 60.6035 79.2532 61.037V61.037Z" fill="#FA6900"/>
<path d="M41.5955 66.4265H8.35352C8.02355 66.4265 7.7071 66.5576 7.47378 66.7909C7.24045 67.0242 7.10938 67.3407 7.10938 67.6707C7.10937 68.0006 7.24045 68.3171 7.47378 68.5504C7.7071 68.7837 8.02355 68.9148 8.35352 68.9148H41.5955C41.9255 68.9148 42.242 68.7837 42.4753 68.5504C42.7086 68.3171 42.8397 68.0006 42.8397 67.6707C42.8397 67.3407 42.7086 67.0242 42.4753 66.7909C42.242 66.5576 41.9255 66.4265 41.5955 66.4265Z" fill="#FA6900"/>
<path d="M41.5955 60.343H8.35352C8.02355 60.343 7.7071 60.4741 7.47378 60.7074C7.24045 60.9407 7.10938 61.2572 7.10938 61.5872C7.10937 61.9171 7.24045 62.2336 7.47378 62.4669C7.7071 62.7002 8.02355 62.8313 8.35352 62.8313H41.5955C41.9255 62.8313 42.242 62.7002 42.4753 62.4669C42.7086 62.2336 42.8397 61.9171 42.8397 61.5872C42.8397 61.2572 42.7086 60.9407 42.4753 60.7074C42.242 60.4741 41.9255 60.343 41.5955 60.343V60.343Z" fill="#FA6900"/>
<path d="M41.5955 54.2595H8.35352C8.02355 54.2595 7.7071 54.3906 7.47378 54.6239C7.24045 54.8572 7.10938 55.1737 7.10938 55.5037C7.10937 55.8336 7.24045 56.1501 7.47378 56.3834C7.7071 56.6167 8.02355 56.7478 8.35352 56.7478H41.5955C41.9255 56.7478 42.242 56.6167 42.4753 56.3834C42.7086 56.1501 42.8397 55.8336 42.8397 55.5037C42.8397 55.1737 42.7086 54.8572 42.4753 54.6239C42.242 54.3906 41.9255 54.2595 41.5955 54.2595Z" fill="#FA6900"/>
</svg>