<svg width="57" height="54" viewBox="0 0 57 54" fill="none" xmlns="http://www.w3.org/2000/svg">
<g clip-path="url(#clip0)">
<path d="M15.5215 25.9621C15.482 25.1035 14.8054 24.3773 13.8917 24.3773C13.0392 24.3773 12.2225 25.1062 12.2619 25.9621C12.3015 26.8207 12.9781 27.5468 13.8917 27.5468C14.7443 27.5468 15.561 26.8179 15.5215 25.9621Z" fill="#455A65"/>
<path d="M35.3768 27.5468C36.2293 27.5468 37.046 26.8179 37.0066 25.9621C36.967 25.1035 36.2904 24.3773 35.3768 24.3773C34.5243 24.3773 33.7075 25.1062 33.747 25.9621C33.7865 26.8207 34.4631 27.5468 35.3768 27.5468Z" fill="#455A65"/>
<path d="M20.2305 24.3773H29.0381V27.5468H20.2305V24.3773Z" fill="#455A65"/>
<path d="M56.2533 33.2457L54.1627 30.814L52.5072 32.1597C51.4467 30.8308 50.0969 29.7308 48.5503 28.9496V21.7252C48.5503 19.4612 46.8157 17.5846 44.5709 17.2835L41.5536 6.62372C40.9658 4.54706 39.0083 3.0968 36.7932 3.0968H12.4753C10.2602 3.0968 8.3027 4.54717 7.71488 6.62372L4.69769 17.2835C2.45303 17.5847 0.718384 19.4612 0.718384 21.7252V35.5919H2.98739V43.5503H14.0314V35.5919H31.7133C31.3146 36.75 31.098 37.9885 31.098 39.2753C31.098 45.6869 36.4625 50.9032 43.0564 50.9032C49.6502 50.9032 55.0146 45.6869 55.0146 39.2753C55.0146 37.7476 54.7094 36.2879 54.1563 34.9504L56.2533 33.2457ZM26.1699 17.2402C26.8249 15.6042 28.4611 14.4411 30.3725 14.4411C32.284 14.4411 33.9202 15.6042 34.575 17.2402H26.1699ZM10.8577 7.4648C11.0574 6.75916 11.7226 6.2663 12.4753 6.2663H36.7933C37.5459 6.2663 38.2111 6.75916 38.4109 7.4648L41.1779 17.2402H37.9674C37.2162 13.8337 34.0968 11.2716 30.3725 11.2716C26.6481 11.2716 23.5289 13.8337 22.7777 17.2402H8.09071L10.8577 7.4648ZM10.7718 40.3809H6.24698V35.592H10.7718V40.3809ZM3.97798 32.4223V21.7252C3.97798 21.002 4.58154 20.4134 5.32451 20.41H43.9441C44.6871 20.4134 45.2906 21.002 45.2906 21.7252V27.8503C45.2863 27.8495 45.2806 27.85 45.2761 27.8494C44.5565 27.7175 43.8147 27.6477 43.0563 27.6477C39.955 27.6477 37.1258 28.8018 34.9987 30.6912C34.5187 31.0428 34.0183 31.5871 33.3931 32.4225L3.97798 32.4223ZM51.7549 39.2753C51.7549 43.9392 47.8526 47.7337 43.0563 47.7337C38.2598 47.7337 34.3575 43.9392 34.3575 39.2753C34.3575 34.6114 38.2598 30.8171 43.0563 30.8171C45.8928 30.8171 48.416 32.1445 50.0049 34.1936L43.2344 39.6972L38.3591 35.8959L36.3199 38.3685L43.2774 43.7934L51.4714 37.1328C51.6559 37.8173 51.7549 38.5352 51.7549 39.2753Z" fill="#455A65"/>
</g>
<defs>
<clipPath id="clip0">
<rect width="55.5349" height="54" fill="white" transform="translate(0.718384)"/>
</clipPath>
</defs>
</svg>
