<svg width="59" height="40" viewBox="0 0 59 40" fill="none" xmlns="http://www.w3.org/2000/svg">
<path fill-rule="evenodd" clip-rule="evenodd" d="M40.7341 1.23734C38.1321 0.446541 34.5477 0 30.9124 0C27.2389 0 23.7821 0.446427 21.2055 1.23734C18.7692 1.98988 17.9146 2.8445 17.9146 3.11234C17.9273 3.12514 17.94 3.13782 17.94 3.15061C18.0038 3.43125 18.7819 4.31134 21.5243 5.10222C24.0626 5.84208 27.4045 6.25027 30.925 6.25027C34.5603 6.25027 38.1446 5.79105 40.7339 5.01293C43.5146 4.1711 44.1141 3.30372 44.1141 3.12513C44.1142 2.94655 43.5148 2.07917 40.7341 1.23734V1.23734Z" fill="#455A65"/>
<path fill-rule="evenodd" clip-rule="evenodd" d="M41.4867 7.42377C38.6294 8.29119 34.8921 8.76309 30.9507 8.76309C27.1879 8.76309 23.6035 8.32941 20.8356 7.52574C19.8789 7.27066 18.9606 6.91352 18.0804 6.4671L18.1697 10.0641C19.5983 10.5999 20.9504 11.3651 22.1495 12.3219C22.1749 12.3346 22.2133 12.3347 22.2515 12.3473C24.7006 12.9723 27.7874 13.304 30.938 13.304C34.5733 13.304 38.1576 12.8576 40.7469 12.0667C43.5149 11.2248 44.1143 10.3447 44.1143 10.1789C44.1143 9.92378 44.1781 9.68142 44.3183 9.4646V6.27576C43.4127 6.77321 42.456 7.16861 41.4867 7.42377Z" fill="#455A65"/>
<path fill-rule="evenodd" clip-rule="evenodd" d="M30.3894 30.4474C30.3639 30.2943 30.3639 30.1541 30.3894 30.001C29.2031 29.9882 28.0552 29.9245 26.9581 29.8352C26.3714 31.3531 25.5422 32.769 24.5091 34.0317C26.4861 34.3634 28.4632 34.5292 30.4403 34.5547L30.3894 30.4474V30.4474Z" fill="#455A65"/>
<path fill-rule="evenodd" clip-rule="evenodd" d="M30.3639 27.4372L30.3129 23.1896C30.2874 23.1003 30.2619 23.011 30.2491 22.9217C29.4455 22.9089 28.6674 22.8835 27.9148 22.8324C27.9531 23.3426 27.9787 23.8401 27.9787 24.3376C27.9787 25.3325 27.8766 26.3403 27.6853 27.3224C28.5398 27.3861 29.4455 27.4244 30.3639 27.4372V27.4372Z" fill="#455A65"/>
<path fill-rule="evenodd" clip-rule="evenodd" d="M55.5304 20.549C52.941 19.7582 49.3695 19.3373 45.7215 19.3373H45.6194C42.2009 19.3373 38.9483 19.72 36.4483 20.4215C33.9609 21.1103 33.0043 21.8883 32.7874 22.2838C32.8257 22.3986 32.8512 22.5134 32.8512 22.6282C33.1573 23.0618 34.1906 23.8144 36.5886 24.4649C39.0886 25.141 42.3413 25.5236 45.7215 25.5236C49.3567 25.5236 52.8135 25.1026 55.4284 24.3246C58.2601 23.4828 58.8851 22.6026 58.8979 22.4112V22.3985C58.8596 22.1817 58.2091 21.3654 55.5304 20.549V20.549Z" fill="#455A65"/>
<path fill-rule="evenodd" clip-rule="evenodd" d="M56.2192 33.8149C53.3619 34.6822 49.663 35.1541 45.7215 35.1541C42.2392 35.1541 38.859 34.7714 36.1804 34.0699C35.0834 33.8021 34.0247 33.4193 33.0043 32.9219L33.0426 35.8046L33.0554 36.5827C33.0554 36.5955 33.0554 36.5955 33.0554 36.6082C33.0554 36.8888 33.8717 37.7307 36.308 38.4832C38.8719 39.2613 42.3031 39.695 45.9894 39.695C49.663 39.695 53.107 39.2485 55.7091 38.4449C58.426 37.6031 58.9872 36.7229 58.9872 36.5444V32.6539C58.2217 33.1516 57.1503 33.5342 56.2192 33.8149V33.8149Z" fill="#455A65"/>
<path fill-rule="evenodd" clip-rule="evenodd" d="M56.1299 26.7738C53.2854 27.6156 49.5991 28.0748 45.7215 28.0748C40.9764 28.0748 35.9125 27.3606 32.9023 25.7916L32.9533 29.8224C34.0503 31.047 38.7698 32.5904 45.7088 32.5904C49.4079 32.5904 52.8773 32.1567 55.4922 31.3659C58.2347 30.524 58.8214 29.6566 58.8214 29.4781C58.8214 29.223 58.9872 28.9934 59 28.802V25.6132C58.0814 26.1105 57.1249 26.4931 56.1299 26.7738V26.7738Z" fill="#455A65"/>
<path fill-rule="evenodd" clip-rule="evenodd" d="M41.4611 14.5285C38.6038 15.3959 34.8665 15.8678 30.9251 15.8678C28.999 15.8678 27.0602 15.7403 25.1469 15.4979C26.1673 16.9392 26.9454 18.5464 27.4174 20.2429C28.5144 20.3322 29.6879 20.3833 30.9251 20.3833C30.9634 20.3833 30.9889 20.3833 31.0272 20.3833C31.92 19.3883 33.4889 18.572 35.734 17.9342C38.1193 17.2581 41.1168 16.8499 44.3057 16.7607V13.355C43.4 13.8525 42.456 14.2479 41.4611 14.5285Z" fill="#455A65"/>
<path fill-rule="evenodd" clip-rule="evenodd" d="M20.9887 14.7071C23.1315 16.5312 24.5984 19.0312 25.1724 21.7864C25.3382 22.6283 25.4275 23.4957 25.4276 24.3502C25.4403 27.9344 23.9224 31.3529 21.2693 33.7509C16.0779 38.4832 8.02923 38.1005 3.30961 32.9091C-1.40996 27.7177 -1.04004 19.6689 4.15144 14.9494C6.49845 12.8193 9.54698 11.6331 12.7104 11.6331C13.9858 11.6331 15.2486 11.8244 16.4732 12.1943C18.1314 12.7045 19.6748 13.5591 20.9887 14.7071ZM22.7593 24.3984C22.7593 18.8404 18.2537 14.3348 12.6957 14.3348C7.13762 14.3348 2.63202 18.8404 2.63202 24.3984C2.63202 29.9565 7.13762 34.4621 12.6957 34.4621C18.2537 34.4621 22.7593 29.9565 22.7593 24.3984Z" fill="#455A65"/>
<path d="M6.9998 30.2802H9.21285L18.065 18.8052H15.8519L6.9998 30.2802V30.2802ZM16.3601 30.4441C18.1306 30.4441 19.3272 29.0343 19.3272 27.3623C19.3272 25.641 18.1634 24.264 16.3765 24.264C14.5733 24.264 13.4094 25.6574 13.4094 27.3459C13.4094 29.0507 14.5897 30.4441 16.3601 30.4441ZM16.3765 28.6409C15.8356 28.6409 15.4093 28.0835 15.4093 27.3623C15.4093 26.5918 15.77 26.0672 16.3601 26.0672C16.9175 26.0672 17.3273 26.6082 17.3273 27.3459C17.3273 28.0999 16.9339 28.6409 16.3765 28.6409ZM8.68826 24.8214C10.4587 24.8214 11.6554 23.428 11.6554 21.7395C11.6554 20.0346 10.4915 18.6412 8.70465 18.6412C6.90142 18.6412 5.73755 20.0346 5.73755 21.7231C5.73755 23.4443 6.91781 24.8214 8.68826 24.8214ZM8.70465 23.0181C8.16367 23.0181 7.73746 22.4772 7.73746 21.7395C7.73746 20.9854 8.1145 20.4445 8.68826 20.4445C9.24563 20.4445 9.65546 21.0018 9.65546 21.7231C9.65546 22.4772 9.26202 23.0181 8.70465 23.0181Z" fill="#455A65"/>
</svg>
