<svg width="64" height="61" viewBox="0 0 64 61" fill="none" xmlns="http://www.w3.org/2000/svg">
<g clip-path="url(#clip0)">
<path d="M52.3035 17.0158L52.2376 24.1802H49.4836L42.9765 17.0305H34.1302V14.2389H42.7449V10.6489H21.8234V14.2389H30.4382V17.0305H20.9878L16.7308 21.8785H8.10573V31.5998H4.60926V24.595H0.917236V42.4645H4.60926V35.1898H8.10573V45.3898H16.7864L21.1535 49.8843L42.9674 49.8719L49.5324 42.7811H52.2366L52.3024 50.351H63.6511V17.1066L52.3035 17.0158ZM59.9591 46.761H55.9634L55.8976 39.1911H47.8886L41.3226 46.2828L22.7436 46.2935L18.3773 41.7999H11.7977V25.4685H18.4331L22.6901 20.6205H41.3136L47.8207 27.7701H55.8966L55.9623 20.6352L59.9591 20.6671V46.761Z" fill="#455A65"/>
<path d="M30.6382 24.2302H34.3303V34.9023H30.6382V24.2302Z" fill="#455A65"/>
<path d="M30.6382 38.1724H34.3303V42.0998H30.6382V38.1724Z" fill="#455A65"/>
</g>
<defs>
<clipPath id="clip0">
<rect width="62.7338" height="61" fill="white" transform="translate(0.917236)"/>
</clipPath>
</defs>
</svg>
