<svg width="16" height="16" viewBox="0 0 16 16" fill="none" xmlns="http://www.w3.org/2000/svg">
<path d="M14.6666 6.66669H9.33331V1.33335C9.33331 0.59695 8.73636 0 7.99996 0C7.26356 0 6.66661 0.59695 6.66661 1.33335V6.66669H1.33335C0.59695 6.66669 0 7.26364 0 8.00004C0 8.73644 0.59695 9.33331 1.33335 9.33331H6.66669L6.66669 14.6666C6.66669 15.403 7.26364 16 8.00004 16C8.73644 16 9.33331 15.403 9.33331 14.6666V9.33331L14.6666 9.33331C15.403 9.33331 16 8.73636 16 7.99996C16 7.26356 15.403 6.66669 14.6666 6.66669Z" fill="white"/>
</svg>