<svg width="16" height="16" viewBox="0 0 16 16" fill="none" xmlns="http://www.w3.org/2000/svg">
<path d="M14.6124 8.20729C14.548 8.07557 14.548 7.92451 14.6124 7.79283L15.2091 6.57205C15.5414 5.89234 15.2781 5.08219 14.6098 4.72759L13.4095 4.09072C13.28 4.02204 13.1912 3.89979 13.1659 3.75544L12.9311 2.41704C12.8004 1.67186 12.1111 1.17111 11.3622 1.27708L10.0168 1.46739C9.87154 1.48789 9.72794 1.44121 9.6226 1.3393L8.64601 0.394556C8.10223 -0.131503 7.25036 -0.131534 6.70662 0.394556L5.73 1.33939C5.62462 1.44133 5.48103 1.48792 5.33584 1.46749L3.99045 1.27718C3.24123 1.17115 2.55217 1.67196 2.42145 2.41714L2.18671 3.75547C2.16136 3.89985 2.07258 4.02207 1.94311 4.09079L0.742808 4.72766C0.0744998 5.08222 -0.188749 5.89243 0.143499 6.57214L0.740215 7.79289C0.804589 7.92461 0.804589 8.07567 0.740215 8.20735L0.143468 9.4281C-0.18878 10.1078 0.0744685 10.918 0.742777 11.2726L1.94308 11.9094C2.07258 11.9781 2.16136 12.1004 2.18671 12.2447L2.42145 13.5831C2.54045 14.2615 3.12214 14.7372 3.79067 14.7372C3.85651 14.7372 3.92332 14.7325 3.99048 14.723L5.33588 14.5327C5.48097 14.5121 5.62465 14.5589 5.73003 14.6608L6.70662 15.6056C6.97855 15.8686 7.32736 16.0001 7.6763 16.0001C8.02514 16.0001 8.37417 15.8686 8.64598 15.6056L9.6226 14.6608C9.72797 14.5589 9.8716 14.5123 10.0168 14.5327L11.3622 14.723C12.1115 14.829 12.8004 14.3283 12.9311 13.5831L13.1659 12.2447C13.1913 12.1004 13.28 11.9781 13.4095 11.9094L14.6098 11.2726C15.2781 10.918 15.5414 10.1078 15.2091 9.42807L14.6124 8.20729ZM14.1773 10.4573L12.977 11.0942C12.5943 11.2973 12.3318 11.6585 12.257 12.0852L12.0222 13.4236C11.978 13.6757 11.7449 13.8451 11.4914 13.8093L10.146 13.619C9.71694 13.5582 9.29238 13.6963 8.98098 13.9975L8.00436 14.9422C7.82042 15.1202 7.53221 15.1202 7.34821 14.9422L6.37162 13.9975C6.10843 13.7429 5.76437 13.6049 5.40519 13.6049C5.33938 13.6049 5.27303 13.6095 5.20659 13.6189L3.8612 13.8093C3.60789 13.8451 3.37461 13.6757 3.33036 13.4236L3.09558 12.0852C3.0207 11.6584 2.75827 11.2972 2.37555 11.0942L1.17524 10.4573C0.94912 10.3373 0.860058 10.0632 0.972463 9.83328L1.56921 8.61251C1.75946 8.22326 1.75946 7.77683 1.56921 7.38758L0.972463 6.1668C0.860058 5.93684 0.94912 5.66274 1.17524 5.54278L2.37555 4.90591C2.75823 4.70281 3.0207 4.34163 3.09554 3.91488L3.33029 2.57651C3.37454 2.32439 3.6076 2.15501 3.86113 2.19083L5.20653 2.38114C5.63544 2.44186 6.06015 2.30383 6.37156 2.00261L7.34818 1.05786C7.53211 0.879928 7.82033 0.879928 8.00433 1.05786L8.98092 2.00261C9.29232 2.30386 9.71697 2.44186 10.1459 2.38114L11.4913 2.19083C11.7447 2.15498 11.978 2.32439 12.0222 2.57651L12.2569 3.91491C12.3318 4.34166 12.5942 4.70288 12.977 4.90591L14.1773 5.54278C14.4034 5.66274 14.4924 5.93684 14.38 6.1668L13.7833 7.38755C13.593 7.77676 13.593 8.22326 13.7833 8.61248L14.38 9.83322C14.4925 10.0632 14.4034 10.3374 14.1773 10.4573Z" fill="white"/>
<path d="M11.0476 4.62867C10.8674 4.44848 10.5753 4.44848 10.3951 4.62867L4.30482 10.7189C4.12463 10.8991 4.12463 11.1913 4.30482 11.3715C4.39491 11.4616 4.513 11.5066 4.63107 11.5066C4.74913 11.5066 4.86725 11.4616 4.95732 11.3715L11.0476 5.28123C11.2278 5.10101 11.2278 4.80889 11.0476 4.62867Z" fill="white"/>
<path d="M5.83063 3.84744C4.89776 3.84744 4.13879 4.60641 4.13879 5.53928C4.13879 6.47215 4.89776 7.23111 5.83063 7.23111C6.7635 7.23111 7.52246 6.47215 7.52246 5.53928C7.52246 4.60641 6.7635 3.84744 5.83063 3.84744ZM5.83063 6.30827C5.4066 6.30827 5.06163 5.9633 5.06163 5.53924C5.06163 5.11522 5.4066 4.77025 5.83063 4.77025C6.25466 4.77025 6.59965 5.11522 6.59965 5.53924C6.59962 5.9633 6.25466 6.30827 5.83063 6.30827Z" fill="white"/>
<path d="M9.52191 8.76907C8.58904 8.76907 7.83008 9.52804 7.83008 10.4609C7.83008 11.3938 8.58904 12.1527 9.52191 12.1527C10.4548 12.1527 11.2137 11.3938 11.2137 10.4609C11.2137 9.52804 10.4548 8.76907 9.52191 8.76907ZM9.52191 11.2299C9.09788 11.2299 8.75289 10.8849 8.75289 10.4609C8.75289 10.0369 9.09785 9.69191 9.52191 9.69191C9.94594 9.69191 10.2909 10.0369 10.2909 10.4609C10.2909 10.8849 9.94594 11.2299 9.52191 11.2299Z" fill="white"/>
</svg>
