<svg width="27" height="27" viewBox="0 0 27 27" fill="none" xmlns="http://www.w3.org/2000/svg">
<g clip-path="url(#clip0)">
<path d="M26.812 4.80104L23.2244 1.64821C23.1144 1.55085 22.968 1.50134 22.8237 1.51158C22.6773 1.52126 22.5407 1.58847 22.4439 1.69883L9.43167 16.509L4.80495 10.3851C4.71671 10.2684 4.58534 10.1912 4.44013 10.1713C4.2952 10.1497 4.14723 10.189 4.03051 10.2778L0.219711 13.1565C-0.0239609 13.3407 -0.0723634 13.6875 0.111843 13.9312L8.6788 25.2702C8.77893 25.4027 8.93382 25.4835 9.09977 25.4896C9.1064 25.4896 9.11332 25.4896 9.11996 25.4896C9.27872 25.4896 9.43029 25.4215 9.53567 25.3015L26.8621 5.58157C27.064 5.35228 27.0416 5.0024 26.812 4.80104Z" fill="#4C616B"/>
</g>
<defs>
<clipPath id="clip0">
<rect width="27" height="27" fill="white"/>
</clipPath>
</defs>
</svg>