<svg width="25" height="29" viewBox="0 0 25 29" fill="none" xmlns="http://www.w3.org/2000/svg">
<path d="M18.1827 18.9856L14.1421 14.2392L18.1827 9.49278C18.7406 8.83742 18.7406 7.77491 18.1827 7.11955C17.6248 6.46419 16.7203 6.46419 16.1624 7.11955L12.1218 11.8659L8.08122 7.11962C7.52331 6.46426 6.61879 6.46426 6.06088 7.11962C5.50297 7.77498 5.50303 8.83742 6.06094 9.49278L10.1016 14.2392L6.06094 18.9856C5.50303 19.6409 5.50303 20.7034 6.06094 21.3588C6.61885 22.0141 7.52337 22.014 8.08122 21.3587L12.1218 16.6123L16.1624 21.3587C16.7203 22.0141 17.6249 22.0141 18.1828 21.3587C18.7407 20.7034 18.7406 19.6408 18.1827 18.9856Z" fill="#F7761F"/>
</svg>