<svg width="10" height="7" viewBox="0 0 10 7" fill="none" xmlns="http://www.w3.org/2000/svg">
<g clip-path="url(#clip0)">
<path d="M5.3902 6.23947L9.84025 1.78935C9.94325 1.68642 10 1.54902 10 1.40252C10 1.25602 9.94325 1.11862 9.84025 1.01569L9.51261 0.687972C9.29911 0.474722 8.95212 0.474722 8.73895 0.687972L5.00207 4.42485L1.26105 0.683825C1.15804 0.580899 1.02072 0.52407 0.874302 0.52407C0.727717 0.52407 0.590401 0.580899 0.487312 0.683825L0.159754 1.01155C0.0567474 1.11455 -3.18131e-08 1.25187 -3.8217e-08 1.39837C-4.46208e-08 1.54488 0.0567474 1.68227 0.159754 1.7852L4.61386 6.23947C4.7172 6.34264 4.85516 6.39931 5.00183 6.39898C5.14906 6.39931 5.28695 6.34264 5.3902 6.23947Z" fill="white"/>
</g>
<defs>
<clipPath id="clip0">
<rect width="6.92308" height="10" fill="white" transform="translate(10) rotate(90)"/>
</clipPath>
</defs>
</svg>