<svg width="20" height="20" viewBox="0 0 20 20" fill="none" xmlns="http://www.w3.org/2000/svg">
<path fill-rule="evenodd" clip-rule="evenodd" d="M5.87765 0.0591716C6.94275 0.0197237 8.31683 0 9.99994 0C11.6831 0 13.0571 0.0197237 14.1222 0.0591716C15.0295 0.0986195 15.8382 0.256409 16.5483 0.532544C17.232 0.795531 17.8237 1.17685 18.3234 1.67653C18.8231 2.1762 19.2044 2.76791 19.4674 3.45168C19.7435 4.16174 19.9013 4.97041 19.9408 5.87771C19.9802 6.94281 19.9999 8.31689 19.9999 10C19.9999 11.6831 19.9802 13.0572 19.9408 14.1223C19.9013 15.0296 19.7435 15.8383 19.4674 16.5483C19.2044 17.2321 18.8231 17.8238 18.3234 18.3235C17.8237 18.8231 17.232 19.2045 16.5483 19.4675C15.8382 19.7436 15.0295 19.9014 14.1222 19.9408C13.0571 19.9803 11.6831 20 9.99994 20C8.31683 20 6.94275 19.9803 5.87765 19.9408C4.97035 19.9014 4.16168 19.7436 3.45162 19.4675C2.76785 19.2045 2.17614 18.8231 1.67647 18.3235C1.17679 17.8238 0.79547 17.2321 0.532483 16.5483C0.256348 15.8383 0.0985585 15.0296 0.0591106 14.1223C0.0196626 13.0572 -6.10352e-05 11.6831 -6.10352e-05 10C-6.10352e-05 8.31689 0.0196626 6.94281 0.0591106 5.87771C0.0985585 4.97041 0.256348 4.16174 0.532483 3.45168C0.79547 2.76791 1.17679 2.1762 1.67647 1.67653C2.17614 1.17685 2.76785 0.795531 3.45162 0.532544C4.16168 0.256409 4.97035 0.0986195 5.87765 0.0591716ZM14.28 1.36095C13.1755 1.3215 11.7488 1.30178 9.99994 1.30178C8.25108 1.30178 6.8244 1.3215 5.71986 1.36095C5.0098 1.38725 4.35234 1.51216 3.74747 1.7357C2.80072 2.13018 2.13012 2.80078 1.73564 3.74753C1.5121 4.3524 1.38718 5.00986 1.36089 5.71992C1.32144 6.82446 1.30171 8.25114 1.30171 10C1.30171 11.7489 1.32144 13.1755 1.36089 14.2801C1.38718 14.9901 1.5121 15.6476 1.73564 16.2525C2.13012 17.1992 2.80072 17.8698 3.74747 18.2643C4.35234 18.4878 5.0098 18.6128 5.71986 18.6391C6.8244 18.6785 8.25108 18.6982 9.99994 18.6982C11.7488 18.6982 13.1755 18.6785 14.28 18.6391C14.9901 18.6128 15.6475 18.4878 16.2524 18.2643C17.1992 17.8698 17.8698 17.1992 18.2642 16.2525C18.4878 15.6476 18.6127 14.9901 18.639 14.2801C18.6784 13.1755 18.6982 11.7489 18.6982 10C18.6982 8.25114 18.6784 6.82446 18.639 5.71992C18.6127 5.00986 18.4878 4.3524 18.2642 3.74753C17.8698 2.80078 17.1992 2.13018 16.2524 1.7357C15.6475 1.51216 14.9901 1.38725 14.28 1.36095ZM7.1597 12.8402C7.94866 13.616 8.8954 14.0039 9.99994 14.0039C11.1045 14.0039 12.0479 13.6128 12.8303 12.8304C13.6127 12.048 14.0039 11.1045 14.0039 10C14.0039 8.89546 13.6127 7.95201 12.8303 7.16963C12.0479 6.38724 11.1045 5.99606 9.99994 5.99606C8.8954 5.99606 7.95195 6.38724 7.16956 7.16963C6.38718 7.95201 5.99599 8.89546 5.99599 10C5.99599 11.1045 6.38389 12.0513 7.1597 12.8402ZM6.37075 6.37081C7.37009 5.37146 8.57981 4.87179 9.99994 4.87179C11.4201 4.87179 12.6298 5.37146 13.6291 6.37081C14.6285 7.37016 15.1281 8.57987 15.1281 10C15.1281 11.4201 14.6285 12.6298 13.6291 13.6292C12.6298 14.6285 11.4201 15.1282 9.99994 15.1282C8.57981 15.1282 7.37009 14.6285 6.37075 13.6292C5.3714 12.6298 4.87173 11.4201 4.87173 10C4.87173 8.57987 5.3714 7.37016 6.37075 6.37081ZM16.1735 3.82643C16.4233 4.06312 16.5483 4.34582 16.5483 4.67456C16.5483 5.00329 16.4299 5.28271 16.1932 5.51282C15.9565 5.74293 15.6673 5.85799 15.3254 5.85799C14.9966 5.85799 14.7172 5.74293 14.4871 5.51282C14.257 5.28271 14.142 5.00329 14.142 4.67456C14.142 4.33267 14.257 4.04339 14.4871 3.80671C14.7172 3.57002 14.9966 3.45168 15.3254 3.45168C15.6541 3.45168 15.9368 3.57659 16.1735 3.82643Z" fill="#FA6900"/>
</svg>
