<svg width="33" height="37" viewBox="0 0 33 37" fill="none" xmlns="http://www.w3.org/2000/svg">
<g clip-path="url(#clip0)">
<path d="M27.4539 7.00009C24.9346 3.09391 20.942 0.853149 16.5004 0.853149C12.0589 0.853149 8.06622 3.09391 5.54694 7.00009C3.04004 10.8865 2.46118 15.8069 3.99543 20.1539C4.4058 21.341 5.05813 22.4944 5.92966 23.5752L15.622 35.7718C15.8412 36.0479 16.1624 36.207 16.5004 36.207C16.8385 36.207 17.1597 36.048 17.3789 35.7718L27.0685 23.5785C27.9439 22.4915 28.5954 21.3394 29.0023 20.1618C30.5397 15.8069 29.9608 10.8865 27.4539 7.00009ZM26.8416 19.296C26.5278 20.2046 26.0155 21.1029 25.3197 21.9669C25.3177 21.969 25.3158 21.9711 25.3143 21.9735L16.5004 33.0643L7.68118 21.9666C6.98579 21.1033 6.47346 20.2051 6.15654 19.2878C4.88772 15.6927 5.36925 11.6245 7.44502 8.40603C9.52731 5.17723 12.8281 3.32543 16.5004 3.32543C20.1727 3.32543 23.4731 5.17716 25.5554 8.40603C27.6316 11.6245 28.1135 15.6927 26.8416 19.296Z" fill="#FA6900"/>
<path d="M16.5004 8.18759C12.9377 8.18759 10.0388 11.2928 10.0388 15.11C10.0388 18.9273 12.9373 22.0325 16.5004 22.0325C20.0635 22.0325 22.9619 18.9273 22.9619 15.11C22.9619 11.2932 20.0631 8.18759 16.5004 8.18759ZM16.5004 19.5601C14.21 19.5601 12.3465 17.5637 12.3465 15.11C12.3465 12.6562 14.21 10.6598 16.5004 10.6598C18.7908 10.6598 20.6543 12.6562 20.6543 15.11C20.6543 17.5637 18.7908 19.5601 16.5004 19.5601Z" fill="#FA6900"/>
</g>
<defs>
<clipPath id="clip0">
<rect y="0.853149" width="33" height="35.3538" fill="white"/>
</clipPath>
</defs>
</svg>