<svg width="137" height="55" viewBox="0 0 137 55" fill="none" xmlns="http://www.w3.org/2000/svg">
<path d="M8.20293 47.6277C8.20293 50.5341 6.55422 52.0731 4.54291 52.0731C2.46175 52.0731 1 50.346 1 47.7905C1 45.1096 2.55522 43.3571 4.66002 43.3571C6.81206 43.3571 8.20293 45.1239 8.20293 47.6277ZM2.08784 47.7652C2.08784 49.5693 3.00001 51.1842 4.60146 51.1842C6.21524 51.1842 7.12742 49.5935 7.12742 47.6772C7.12742 45.9995 6.30872 44.246 4.61379 44.246C2.92914 44.2471 2.08784 45.9115 2.08784 47.7652Z" fill="#455A65"/>
<path d="M12.8624 43.0447V45.7619C14.5112 45.8873 15.7038 47.0017 15.7038 48.8939C15.7038 50.885 14.4413 51.9367 12.8624 52.0489V54.4152H11.9266V52.061C10.2892 51.9477 9.08533 50.8465 9.08533 48.9555C9.08533 46.9522 10.3365 45.9006 11.9266 45.7619V43.0447H12.8624ZM11.9266 46.5133C10.7803 46.675 10.1023 47.6783 10.1023 48.9181C10.1023 50.17 10.8039 51.1468 11.9266 51.2976V46.5133ZM12.8624 51.2976C13.9965 51.1347 14.6868 50.1315 14.6868 48.8928C14.6868 47.6398 13.9965 46.6882 12.8624 46.5133V51.2976Z" fill="#455A65"/>
<path d="M17.9411 45.8741V48.4285C17.9411 49.3933 17.9298 49.994 17.8825 50.8586L17.9174 50.8707C18.2564 50.1315 18.4547 49.7057 18.8296 49.005L20.5954 45.8741H21.7993V51.9356H20.8173V49.368C20.8173 48.3801 20.8409 47.8664 20.8872 46.8895H20.8522C20.4896 47.6651 20.2441 48.1535 19.9164 48.7674C19.3792 49.7068 18.7587 50.8707 18.1506 51.9356H16.9693V45.8741H17.9411Z" fill="#455A65"/>
<path d="M24.4701 45.8741V51.072H27.0782V45.8741H28.0952V51.1094L28.6797 51.1215L28.6211 53.8641H27.826L27.7798 51.9356H23.4531V45.8741H24.4701Z" fill="#455A65"/>
<path d="M30.8585 45.8741V48.4285C30.8585 49.3933 30.8472 49.994 30.7999 50.8586L30.8349 50.8707C31.1749 50.1315 31.3731 49.7057 31.747 49.005L33.5128 45.8741H34.7168V51.9356H33.7347V49.368C33.7347 48.3801 33.7583 47.8664 33.8046 46.8895H33.7696C33.407 47.6651 33.1615 48.1535 32.8338 48.7674C32.2966 49.7068 31.6762 50.8707 31.068 51.9356H29.8867V45.8741H30.8585Z" fill="#455A65"/>
<path d="M39.5272 51.9356L39.4451 51.1721H39.4101C39.0948 51.6485 38.4866 52.0731 37.6792 52.0731C36.5339 52.0731 35.9484 51.2095 35.9484 50.3328C35.9484 48.8675 37.1646 48.0655 39.3516 48.0787V47.9533C39.3516 47.4528 39.2232 46.5518 38.0655 46.5518C37.5385 46.5518 36.99 46.7267 36.5914 47.0017L36.3572 46.2757C36.8246 45.95 37.5026 45.7377 38.2165 45.7377C39.9474 45.7377 40.3675 47.0017 40.3675 48.2173V50.4846C40.3675 51.0104 40.3911 51.5231 40.461 51.9367H39.5272V51.9356ZM39.3742 48.8433C38.2514 48.8191 36.9777 49.0314 36.9777 50.2074C36.9777 50.9213 37.4224 51.2601 37.9484 51.2601C38.6849 51.2601 39.1533 50.7585 39.3166 50.2448C39.3516 50.1315 39.3752 50.0071 39.3752 49.8949V48.8433H39.3742Z" fill="#455A65"/>
<path d="M46.3481 45.8741V51.9356H45.3311V46.7388H43.3896V48.3163C43.3896 50.0204 43.2376 51.1589 42.5011 51.6727C42.2207 51.9114 41.9053 52.0489 41.3783 52.0489L41.2736 51.1853C41.4718 51.1479 41.6947 51.0599 41.8344 50.9334C42.3604 50.5209 42.4189 49.6694 42.4189 48.3163V45.8741H46.3481Z" fill="#455A65"/>
<path d="M49.0281 45.8741V47.928C49.2623 47.8774 49.6598 47.8653 49.9639 47.8653C51.2387 47.8653 52.5833 48.291 52.5833 49.9059C52.5833 50.5319 52.3491 50.9697 51.9865 51.2965C51.3671 51.8597 50.3614 51.9972 49.5314 51.9972C48.9582 51.9972 48.4323 51.9598 48.0111 51.9103V45.8741H49.0281ZM49.0281 51.1721C49.2274 51.1963 49.4492 51.2227 49.7882 51.2227C50.5597 51.2227 51.554 50.9466 51.554 49.9323C51.554 48.8807 50.5247 48.6552 49.7646 48.6552C49.4955 48.6552 49.2623 48.6794 49.0281 48.7179V51.1721Z" fill="#455A65"/>
<path d="M54.8556 45.8741V48.3163H57.5449V45.8741H58.5618V51.9356H57.5449V49.1931H54.8556V51.9356H53.8386V45.8741H54.8556Z" fill="#455A65"/>
<path d="M61.2439 45.8741V47.9412C61.4658 47.8906 61.7934 47.8664 62.1674 47.8664C63.3836 47.8664 64.6111 48.4043 64.6111 49.8949C64.6111 50.5341 64.3892 50.9719 64.0266 51.2975C63.4062 51.8608 62.495 51.9983 61.7462 51.9983C61.173 51.9983 60.6471 51.9609 60.2259 51.9114V45.8752H61.2439V45.8741ZM61.2439 51.1721C61.4432 51.1963 61.665 51.2227 61.9568 51.2227C62.7405 51.2227 63.5942 50.8718 63.5942 49.9323C63.5942 48.9555 62.7755 48.6552 62.004 48.6552C61.7113 48.6552 61.4545 48.6794 61.2439 48.7179V51.1721ZM66.342 45.8741V51.9356H65.324V45.8741H66.342Z" fill="#455A65"/>
<path d="M68.9779 45.8742V48.4286C68.9779 49.3933 68.9666 49.994 68.9194 50.8586L68.9543 50.8707C69.2933 50.1315 69.4915 49.7058 69.8665 49.005L71.6323 45.8742H72.8372V51.9356H71.8542V49.368C71.8542 48.3801 71.8778 47.8664 71.924 46.8895H71.8891C71.5265 47.6651 71.282 48.1535 70.9543 48.7674C70.4171 49.7069 69.7966 50.8707 69.1885 51.9356H68.0072V45.8742H68.9779ZM69.6446 43.4078C69.6795 43.9457 69.925 44.3593 70.3934 44.3593C70.8947 44.3593 71.13 43.9589 71.1875 43.4078H71.924C71.8778 44.4353 71.2697 44.96 70.3688 44.96C69.3405 44.96 68.942 44.2713 68.8958 43.4078H69.6446Z" fill="#455A65"/>
<path d="M81.3776 45.8741V51.1094L81.9621 51.1215L81.9035 53.8641H81.0961L81.0499 51.9356H77.1331L77.0858 53.8641H76.2794L76.2322 51.1215L76.7119 51.1094C76.9574 50.72 77.1444 50.3075 77.2738 49.8696C77.4957 49.1172 77.6004 48.3042 77.6004 47.4528V45.8741H81.3776ZM78.5126 47.7157C78.5126 48.5176 78.4068 49.2943 78.2209 49.9698C78.1038 50.3834 77.9405 50.7585 77.7648 51.0962H80.3729V46.7135H78.5126V47.7157Z" fill="#455A65"/>
<path d="M84.1408 45.8741V48.4285C84.1408 49.3933 84.1285 49.994 84.0823 50.8586L84.1172 50.8707C84.4562 50.1315 84.6545 49.7057 85.0294 49.005L86.7952 45.8741H88.0002V51.9356H87.0171V49.368C87.0171 48.3801 87.0407 47.8664 87.0869 46.8895H87.052C86.6894 47.6651 86.4439 48.1535 86.1172 48.7674C85.58 49.7068 84.9595 50.8707 84.3514 51.9356H83.1711V45.8741H84.1408Z" fill="#455A65"/>
<path d="M93.9673 45.8741V51.9356H92.9503V46.7388H91.0088V48.3163C91.0088 50.0204 90.8578 51.1589 90.1203 51.6727C89.8399 51.9114 89.5245 52.0489 88.9975 52.0489L88.8917 51.1853C89.09 51.1479 89.3129 51.0599 89.4536 50.9334C89.9796 50.5209 90.0381 49.6694 90.0381 48.3163V45.8741H93.9673Z" fill="#455A65"/>
<path d="M96.2282 49.1062C96.2508 50.5957 97.1404 51.2095 98.1697 51.2095C98.9062 51.2095 99.35 51.072 99.7362 50.8971L99.9119 51.6859C99.5483 51.8608 98.9299 52.0621 98.029 52.0621C96.2868 52.0621 95.2462 50.8344 95.2462 49.0061C95.2462 47.1788 96.2519 45.7377 97.9006 45.7377C99.7486 45.7377 100.239 47.4781 100.239 48.5935C100.239 48.8191 100.216 48.994 100.204 49.1073H96.2282V49.1062ZM99.2452 48.3163C99.2575 47.6156 98.9761 46.5265 97.8184 46.5265C96.7778 46.5265 96.3217 47.5529 96.2406 48.3163H99.2452Z" fill="#455A65"/>
<path d="M101.517 47.8532C101.517 47.0765 101.495 46.4517 101.47 45.8741H102.394L102.441 46.9137H102.464C102.885 46.1745 103.551 45.7366 104.475 45.7366C105.843 45.7366 106.871 46.9764 106.871 48.818C106.871 50.9961 105.633 52.0731 104.299 52.0731C103.55 52.0731 102.896 51.7233 102.557 51.1215H102.534V54.4152H101.517V47.8532ZM102.534 49.4692C102.534 49.6309 102.557 49.7816 102.582 49.9191C102.769 50.6826 103.388 51.2095 104.125 51.2095C105.212 51.2095 105.844 50.258 105.844 48.8675C105.844 47.653 105.247 46.6134 104.16 46.6134C103.458 46.6134 102.804 47.1513 102.604 47.9786C102.569 48.1161 102.534 48.2778 102.534 48.4285V49.4692Z" fill="#455A65"/>
<path d="M110.69 43.4958H111.707V51.0214H115.074V51.9356H110.689V43.4958H110.69Z" fill="#455A65"/>
<path d="M117.486 49.2811L116.667 51.9356H115.615L118.293 43.4958H119.521L122.21 51.9356H121.121L120.28 49.2811H117.486ZM120.07 48.4296L119.299 46.0007C119.123 45.4495 119.007 44.949 118.89 44.4606H118.867C118.75 44.9611 118.622 45.4748 118.47 45.9886L117.697 48.4307H120.07V48.4296Z" fill="#455A65"/>
<path d="M123.373 43.6091C123.993 43.5079 124.729 43.4331 125.535 43.4331C126.997 43.4331 128.038 43.7961 128.727 44.4859C129.429 45.1745 129.838 46.1514 129.838 47.5155C129.838 48.8939 129.44 50.0204 128.704 50.7959C127.968 51.5858 126.752 52.0104 125.22 52.0104C124.494 52.0104 123.886 51.973 123.372 51.9103V43.6091H123.373ZM124.39 51.072C124.646 51.1215 125.02 51.1347 125.419 51.1347C127.594 51.1347 128.775 49.8323 128.775 47.5529C128.787 45.5617 127.734 44.2977 125.583 44.2977C125.056 44.2977 124.66 44.3472 124.391 44.411V51.072H124.39Z" fill="#455A65"/>
<path d="M132.276 49.2811L131.457 51.9356H130.405L133.083 43.4958H134.311L137 51.9356H135.912L135.07 49.2811H132.276ZM134.86 48.4296L134.089 46.0007C133.913 45.4495 133.797 44.949 133.68 44.4606H133.657C133.54 44.9611 133.412 45.4748 133.26 45.9886L132.487 48.4307H134.86V48.4296Z" fill="#455A65"/>
<path d="M23.7031 36H17.8242V12.3086H6.4375V36H0.578125V7.5625H23.7031V36Z" fill="#455A65"/>
<path d="M34.7188 25.9805V36H28.8594V7.5625H39.9531C42.0885 7.5625 43.9635 7.95312 45.5781 8.73438C47.2057 9.51562 48.4557 10.6289 49.3281 12.0742C50.2005 13.5065 50.6367 15.1406 50.6367 16.9766C50.6367 19.763 49.6797 21.9635 47.7656 23.5781C45.8646 25.1797 43.2279 25.9805 39.8555 25.9805H34.7188ZM34.7188 21.2344H39.9531C41.5026 21.2344 42.681 20.8698 43.4883 20.1406C44.3086 19.4115 44.7188 18.3698 44.7188 17.0156C44.7188 15.6224 44.3086 14.4961 43.4883 13.6367C42.668 12.7773 41.5352 12.3346 40.0898 12.3086H34.7188V21.2344Z" fill="#455A65"/>
<path d="M67.2578 30.1406H56.9844L55.0312 36H48.8008L59.3867 7.5625H64.8164L75.4609 36H69.2305L67.2578 30.1406ZM58.5664 25.3945H65.6758L62.1016 14.75L58.5664 25.3945Z" fill="#455A65"/>
<path d="M95.168 7.5625H101.047V36H95.168V17.1133L83.7812 36H77.9219V7.5625H83.7812V26.4883L95.168 7.5625ZM96.3008 0.0820312C96.3008 1.8138 95.6758 3.21354 94.4258 4.28125C93.1888 5.34896 91.5612 5.88281 89.543 5.88281C87.5247 5.88281 85.8906 5.35547 84.6406 4.30078C83.4036 3.24609 82.7852 1.83984 82.7852 0.0820312H86.7891C86.7891 0.902344 87.0299 1.54036 87.5117 1.99609C88.0065 2.4388 88.6836 2.66016 89.543 2.66016C90.3893 2.66016 91.0534 2.4388 91.5352 1.99609C92.0169 1.54036 92.2578 0.902344 92.2578 0.0820312H96.3008Z" fill="#455A65"/>
<path d="M113.781 7.5625L121.086 28.1875L128.352 7.5625H136.047V36H130.168V28.2266L130.754 14.8086L123.078 36H119.055L111.398 14.8281L111.984 28.2266V36H106.125V7.5625H113.781Z" fill="#455A65"/>
</svg>
