<svg width="50" height="50" viewBox="0 0 50 50" fill="none" xmlns="http://www.w3.org/2000/svg">
<path d="M42.9688 0.78125H7.03125C6.82405 0.78125 6.62534 0.86356 6.47882 1.01007C6.33231 1.15659 6.25 1.3553 6.25 1.5625V48.4375C6.25 48.6447 6.33231 48.8434 6.47882 48.9899C6.62534 49.1364 6.82405 49.2188 7.03125 49.2188H42.9688C43.176 49.2188 43.3747 49.1364 43.5212 48.9899C43.6677 48.8434 43.75 48.6447 43.75 48.4375V1.5625C43.75 1.3553 43.6677 1.15659 43.5212 1.01007C43.3747 0.86356 43.176 0.78125 42.9688 0.78125ZM19.5312 2.34375H30.4688V5.46875C30.4685 5.67586 30.3861 5.87441 30.2396 6.02086C30.0932 6.16731 29.8946 6.24972 29.6875 6.25H20.3125C20.1054 6.24972 19.9068 6.16731 19.7604 6.02086C19.6139 5.87441 19.5315 5.67586 19.5312 5.46875V2.34375ZM20.3125 7.8125H29.6875C30.3088 7.81167 30.9045 7.56448 31.3439 7.12512C31.7832 6.68576 32.0304 6.0901 32.0312 5.46875H39.0625V40.625H35.1562C34.949 40.625 34.7503 40.7073 34.6038 40.8538C34.4573 41.0003 34.375 41.199 34.375 41.4062V45.3125H10.9375V5.46875H17.9688C17.9696 6.0901 18.2168 6.68576 18.6561 7.12512C19.0955 7.56448 19.6912 7.81167 20.3125 7.8125V7.8125ZM38.7393 42.1875L35.9375 44.9893V42.1875H38.7393ZM42.1875 47.6562H7.8125V2.34375H17.9688V3.90625H10.1562C9.94905 3.90625 9.75034 3.98856 9.60382 4.13507C9.45731 4.28159 9.375 4.4803 9.375 4.6875V46.0938C9.375 46.301 9.45731 46.4997 9.60382 46.6462C9.75034 46.7927 9.94905 46.875 10.1562 46.875H35.9375C36.1447 46.8751 36.3435 46.7929 36.4902 46.6465L40.3965 42.7402C40.5429 42.5935 40.6251 42.3947 40.625 42.1875V4.6875C40.625 4.4803 40.5427 4.28159 40.3962 4.13507C40.2497 3.98856 40.051 3.90625 39.8438 3.90625H32.0312V2.34375H42.1875V47.6562Z" fill="white"/>
<path d="M20.3125 10.9375H14.0625C13.8553 10.9375 13.6566 11.0198 13.5101 11.1663C13.3636 11.3128 13.2812 11.5115 13.2812 11.7188V17.9688C13.2812 18.176 13.3636 18.3747 13.5101 18.5212C13.6566 18.6677 13.8553 18.75 14.0625 18.75H20.3125C20.5197 18.75 20.7184 18.6677 20.8649 18.5212C21.0114 18.3747 21.0938 18.176 21.0938 17.9688V11.7188C21.0938 11.5115 21.0114 11.3128 20.8649 11.1663C20.7184 11.0198 20.5197 10.9375 20.3125 10.9375ZM19.5312 17.1875H14.8438V12.5H19.5312V17.1875Z" fill="white"/>
<path d="M22.6562 11.7188C22.6562 11.926 22.7386 12.1247 22.8851 12.2712C23.0316 12.4177 23.2303 12.5 23.4375 12.5H35.9375C36.1447 12.5 36.3434 12.4177 36.4899 12.2712C36.6364 12.1247 36.7188 11.926 36.7188 11.7188C36.7188 11.5115 36.6364 11.3128 36.4899 11.1663C36.3434 11.0198 36.1447 10.9375 35.9375 10.9375H23.4375C23.2303 10.9375 23.0316 11.0198 22.8851 11.1663C22.7386 11.3128 22.6562 11.5115 22.6562 11.7188Z" fill="white"/>
<path d="M35.9375 14.0625H23.4375C23.2303 14.0625 23.0316 14.1448 22.8851 14.2913C22.7386 14.4378 22.6562 14.6365 22.6562 14.8438C22.6562 15.051 22.7386 15.2497 22.8851 15.3962C23.0316 15.5427 23.2303 15.625 23.4375 15.625H35.9375C36.1447 15.625 36.3434 15.5427 36.4899 15.3962C36.6364 15.2497 36.7188 15.051 36.7188 14.8438C36.7188 14.6365 36.6364 14.4378 36.4899 14.2913C36.3434 14.1448 36.1447 14.0625 35.9375 14.0625Z" fill="white"/>
<path d="M23.4375 18.75H29.6875C29.8947 18.75 30.0934 18.6677 30.2399 18.5212C30.3864 18.3747 30.4688 18.176 30.4688 17.9688C30.4688 17.7615 30.3864 17.5628 30.2399 17.4163C30.0934 17.2698 29.8947 17.1875 29.6875 17.1875H23.4375C23.2303 17.1875 23.0316 17.2698 22.8851 17.4163C22.7386 17.5628 22.6562 17.7615 22.6562 17.9688C22.6562 18.176 22.7386 18.3747 22.8851 18.5212C23.0316 18.6677 23.2303 18.75 23.4375 18.75Z" fill="white"/>
<path d="M32.8125 18.75C33.0197 18.75 33.2184 18.6677 33.3649 18.5212C33.5114 18.3747 33.5938 18.176 33.5938 17.9688C33.5938 17.7615 33.5114 17.5628 33.3649 17.4163C33.2184 17.2698 33.0197 17.1875 32.8125 17.1875H32.0312C31.824 17.1875 31.6253 17.2698 31.4788 17.4163C31.3323 17.5628 31.25 17.7615 31.25 17.9688C31.25 18.176 31.3323 18.3747 31.4788 18.5212C31.6253 18.6677 31.824 18.75 32.0312 18.75H32.8125Z" fill="white"/>
<path d="M20.3125 20.3125H14.0625C13.8553 20.3125 13.6566 20.3948 13.5101 20.5413C13.3636 20.6878 13.2812 20.8865 13.2812 21.0938V27.3438C13.2812 27.551 13.3636 27.7497 13.5101 27.8962C13.6566 28.0427 13.8553 28.125 14.0625 28.125H20.3125C20.5197 28.125 20.7184 28.0427 20.8649 27.8962C21.0114 27.7497 21.0938 27.551 21.0938 27.3438V21.0938C21.0938 20.8865 21.0114 20.6878 20.8649 20.5413C20.7184 20.3948 20.5197 20.3125 20.3125 20.3125ZM19.5312 26.5625H14.8438V21.875H19.5312V26.5625Z" fill="white"/>
<path d="M35.9375 20.3125H23.4375C23.2303 20.3125 23.0316 20.3948 22.8851 20.5413C22.7386 20.6878 22.6562 20.8865 22.6562 21.0938C22.6562 21.301 22.7386 21.4997 22.8851 21.6462C23.0316 21.7927 23.2303 21.875 23.4375 21.875H35.9375C36.1447 21.875 36.3434 21.7927 36.4899 21.6462C36.6364 21.4997 36.7188 21.301 36.7188 21.0938C36.7188 20.8865 36.6364 20.6878 36.4899 20.5413C36.3434 20.3948 36.1447 20.3125 35.9375 20.3125Z" fill="white"/>
<path d="M35.9375 23.4375H23.4375C23.2303 23.4375 23.0316 23.5198 22.8851 23.6663C22.7386 23.8128 22.6562 24.0115 22.6562 24.2188C22.6562 24.426 22.7386 24.6247 22.8851 24.7712C23.0316 24.9177 23.2303 25 23.4375 25H35.9375C36.1447 25 36.3434 24.9177 36.4899 24.7712C36.6364 24.6247 36.7188 24.426 36.7188 24.2188C36.7188 24.0115 36.6364 23.8128 36.4899 23.6663C36.3434 23.5198 36.1447 23.4375 35.9375 23.4375Z" fill="white"/>
<path d="M23.4375 28.125H29.6875C29.8947 28.125 30.0934 28.0427 30.2399 27.8962C30.3864 27.7497 30.4688 27.551 30.4688 27.3438C30.4688 27.1365 30.3864 26.9378 30.2399 26.7913C30.0934 26.6448 29.8947 26.5625 29.6875 26.5625H23.4375C23.2303 26.5625 23.0316 26.6448 22.8851 26.7913C22.7386 26.9378 22.6562 27.1365 22.6562 27.3438C22.6562 27.551 22.7386 27.7497 22.8851 27.8962C23.0316 28.0427 23.2303 28.125 23.4375 28.125Z" fill="white"/>
<path d="M32.8125 28.125C33.0197 28.125 33.2184 28.0427 33.3649 27.8962C33.5114 27.7497 33.5938 27.551 33.5938 27.3438C33.5938 27.1365 33.5114 26.9378 33.3649 26.7913C33.2184 26.6448 33.0197 26.5625 32.8125 26.5625H32.0312C31.824 26.5625 31.6253 26.6448 31.4788 26.7913C31.3323 26.9378 31.25 27.1365 31.25 27.3438C31.25 27.551 31.3323 27.7497 31.4788 27.8962C31.6253 28.0427 31.824 28.125 32.0312 28.125H32.8125Z" fill="white"/>
<path d="M20.3125 29.6875H14.0625C13.8553 29.6875 13.6566 29.7698 13.5101 29.9163C13.3636 30.0628 13.2812 30.2615 13.2812 30.4688V36.7188C13.2812 36.926 13.3636 37.1247 13.5101 37.2712C13.6566 37.4177 13.8553 37.5 14.0625 37.5H20.3125C20.5197 37.5 20.7184 37.4177 20.8649 37.2712C21.0114 37.1247 21.0938 36.926 21.0938 36.7188V30.4688C21.0938 30.2615 21.0114 30.0628 20.8649 29.9163C20.7184 29.7698 20.5197 29.6875 20.3125 29.6875ZM19.5312 35.9375H14.8438V31.25H19.5312V35.9375Z" fill="white"/>
<path d="M35.9375 29.6875H23.4375C23.2303 29.6875 23.0316 29.7698 22.8851 29.9163C22.7386 30.0628 22.6562 30.2615 22.6562 30.4688C22.6562 30.676 22.7386 30.8747 22.8851 31.0212C23.0316 31.1677 23.2303 31.25 23.4375 31.25H35.9375C36.1447 31.25 36.3434 31.1677 36.4899 31.0212C36.6364 30.8747 36.7188 30.676 36.7188 30.4688C36.7188 30.2615 36.6364 30.0628 36.4899 29.9163C36.3434 29.7698 36.1447 29.6875 35.9375 29.6875Z" fill="white"/>
<path d="M35.9375 32.8125H23.4375C23.2303 32.8125 23.0316 32.8948 22.8851 33.0413C22.7386 33.1878 22.6562 33.3865 22.6562 33.5938C22.6562 33.801 22.7386 33.9997 22.8851 34.1462C23.0316 34.2927 23.2303 34.375 23.4375 34.375H35.9375C36.1447 34.375 36.3434 34.2927 36.4899 34.1462C36.6364 33.9997 36.7188 33.801 36.7188 33.5938C36.7188 33.3865 36.6364 33.1878 36.4899 33.0413C36.3434 32.8948 36.1447 32.8125 35.9375 32.8125Z" fill="white"/>
<path d="M29.6875 35.9375H23.4375C23.2303 35.9375 23.0316 36.0198 22.8851 36.1663C22.7386 36.3128 22.6562 36.5115 22.6562 36.7188C22.6562 36.926 22.7386 37.1247 22.8851 37.2712C23.0316 37.4177 23.2303 37.5 23.4375 37.5H29.6875C29.8947 37.5 30.0934 37.4177 30.2399 37.2712C30.3864 37.1247 30.4688 36.926 30.4688 36.7188C30.4688 36.5115 30.3864 36.3128 30.2399 36.1663C30.0934 36.0198 29.8947 35.9375 29.6875 35.9375Z" fill="white"/>
<path d="M32.8125 35.9375H32.0312C31.824 35.9375 31.6253 36.0198 31.4788 36.1663C31.3323 36.3128 31.25 36.5115 31.25 36.7188C31.25 36.926 31.3323 37.1247 31.4788 37.2712C31.6253 37.4177 31.824 37.5 32.0312 37.5H32.8125C33.0197 37.5 33.2184 37.4177 33.3649 37.2712C33.5114 37.1247 33.5938 36.926 33.5938 36.7188C33.5938 36.5115 33.5114 36.3128 33.3649 36.1663C33.2184 36.0198 33.0197 35.9375 32.8125 35.9375Z" fill="white"/>
</svg>
