<?xml version="1.0" encoding="UTF-8"?>
<!DOCTYPE svg PUBLIC "-//W3C//DTD SVG 1.1//EN" "http://www.w3.org/Graphics/SVG/1.1/DTD/svg11.dtd">
<!-- Creator: CorelDRAW 2017 -->
<svg xmlns="http://www.w3.org/2000/svg" xml:space="preserve" width="210mm" height="297mm" version="1.1" style="shape-rendering:geometricPrecision; text-rendering:geometricPrecision; image-rendering:optimizeQuality; fill-rule:evenodd; clip-rule:evenodd"
viewBox="0 0 21000 29700"
 xmlns:xlink="http://www.w3.org/1999/xlink">
 <defs>
  <style type="text/css">
   <![CDATA[
    .str0 {stroke:#FEFEFE;stroke-width:20;stroke-miterlimit:22.9256}
    .fil1 {fill:#FEFEFE}
    .fil0 {fill:#2B2A29}
    .fil2 {fill:#2B2A29;fill-rule:nonzero}
   ]]>
  </style>
 </defs>
 <g id="Слой_x0020_1">
  <metadata id="CorelCorpID_0Corel-Layer"/>
  <path class="fil0" d="M10910.22 7884.12c-687.43,-208.92 -1634.37,-326.89 -2594.76,-326.89 -970.5,0 -1883.74,117.94 -2564.45,326.89 -643.64,198.81 -869.42,424.59 -869.42,495.35 3.38,3.38 6.73,6.73 6.73,10.11 16.86,74.14 222.4,306.65 946.91,515.59 670.6,195.46 1553.48,303.3 2483.55,303.3 960.4,0 1907.33,-121.32 2591.39,-326.89 734.62,-222.4 893.01,-451.55 893.01,-498.73 0.02,-47.18 -158.34,-276.33 -892.96,-498.73z"/>
  <g id="_874854800">
   <g>
    <path class="fil0" d="M11109.04 9518.49c-754.85,229.16 -1742.21,353.83 -2783.48,353.83 -994.08,0 -1941.02,-114.57 -2672.26,-326.89 -252.74,-67.39 -495.35,-161.74 -727.88,-279.68l23.59 950.29c377.41,141.53 734.61,343.71 1051.39,596.46 6.73,3.38 16.86,3.38 26.97,6.73 647.01,165.11 1462.5,252.74 2294.84,252.74 960.4,0 1907.33,-117.94 2591.39,-326.89 731.27,-222.4 889.63,-454.93 889.63,-498.73 0,-67.39 16.86,-131.42 53.9,-188.7l0 -842.45c-239.26,131.42 -492,235.88 -748.09,303.29z"/>
   </g>
  </g>
  <g id="_874854448">
   <g>
    <path class="fil0" d="M8177.28 15601.03c-6.73,-40.45 -6.73,-77.49 0,-117.94 -313.4,-3.38 -616.67,-20.21 -906.49,-43.8 -155.01,401 -374.06,775.06 -647.01,1108.67 522.32,87.63 1044.64,131.43 1566.96,138.16l-13.46 -1085.09z"/>
   </g>
  </g>
  <g id="_874852688">
   <g>
    <path class="fil0" d="M6799.03 13312.91c-151.64,-727.89 -539.18,-1388.36 -1105.3,-1870.26 -347.1,-303.29 -754.86,-529.07 -1192.93,-663.85 -323.51,-97.73 -657.12,-148.28 -994.08,-148.28 -835.73,0 -1641.11,313.4 -2261.16,876.14 -1371.52,1246.83 -1469.25,3373.21 -222.4,4744.71 1246.86,1371.5 3373.21,1472.61 4744.71,222.4 700.92,-633.53 1101.92,-1536.64 1098.57,-2483.55 -0.03,-225.75 -23.61,-454.91 -67.41,-677.31zm-3288.96 2898.04c-1226.62,0 -2224.08,-997.47 -2224.08,-2224.08 0,-1226.62 994.08,-2224.09 2224.08,-2224.09 1226.62,3.38 2220.7,997.47 2224.08,2224.09 0,1226.61 -997.46,2224.08 -2224.08,2224.08z"/>
   </g>
  </g>
  <g id="_874852304">
   <g>
    <path class="fil0" d="M8170.55 14805.76l-13.48 -1122.16c-6.73,-23.59 -13.48,-47.18 -16.86,-70.77 -212.3,-3.38 -417.86,-10.1 -616.67,-23.59 10.1,134.8 16.86,266.23 16.86,397.65 0,262.85 -26.97,529.08 -77.5,788.55 225.75,16.83 465.01,26.94 707.65,30.32z"/>
   </g>
  </g>
  <g id="_874852720">
   <g>
    <path class="fil0" d="M14819.21 12986.03c-684.09,-208.92 -1627.62,-320.13 -2591.39,-320.13l-26.97 0c-903.11,0 -1762.42,101.1 -2422.89,286.43 -657.12,181.98 -909.86,387.52 -967.15,492.01 10.11,30.31 16.86,60.65 16.86,90.97 80.87,114.57 353.83,313.4 987.36,485.25 660.47,178.6 1519.78,279.68 2412.79,279.68 960.39,0 1873.63,-111.21 2564.45,-316.75 748.1,-222.4 913.21,-454.93 916.59,-505.49l0 -3.37c-10.13,-57.26 -181.98,-272.93 -889.65,-488.6z"/>
   </g>
  </g>
  <g id="_874851376">
   <g>
    <path class="fil0" d="M15001.19 16490.66c-754.86,229.15 -1732.08,353.82 -2773.37,353.82 -919.97,0 -1812.98,-101.11 -2520.62,-286.44 -289.82,-70.76 -569.5,-171.87 -839.08,-303.29l10.11 761.58 3.37 205.56c0,3.38 0,3.38 0,6.73 0,74.14 215.68,296.55 859.31,495.36 677.34,205.56 1583.82,320.13 2557.7,320.13 970.5,0 1880.36,-117.94 2567.8,-330.24 717.78,-222.4 866.04,-454.93 866.04,-502.11l0 -1027.8c-202.22,131.47 -485.27,232.55 -731.26,306.7z"/>
   </g>
  </g>
  <g id="_874849264">
   <g>
    <path class="fil0" d="M14977.6 14630.51c-751.48,222.4 -1725.35,343.71 -2749.78,343.71 -1253.58,0 -2591.39,-188.7 -3386.66,-603.19l13.48 1064.88c289.81,323.51 1536.64,731.26 3369.83,731.26 977.25,0 1893.84,-114.56 2584.66,-323.5 724.51,-222.4 879.52,-451.56 879.52,-498.73 0,-67.39 43.8,-128.05 47.18,-178.61l0 -842.45c-242.67,131.4 -495.38,232.48 -758.23,306.63z"/>
   </g>
  </g>
  <g id="_874849136">
   <g>
    <path class="fil0" d="M11102.28 11395.48c-754.85,229.15 -1742.21,353.82 -2783.47,353.82 -508.84,0 -1021.05,-33.69 -1526.54,-97.73 269.58,380.79 475.15,805.38 599.84,1253.59 289.82,23.58 599.84,37.07 926.7,37.07 10.11,0 16.86,0 26.97,0 235.88,-262.85 650.36,-478.52 1243.47,-647.02 630.16,-178.6 1422.08,-286.44 2264.53,-310.02l0 -899.74c-239.28,131.43 -488.65,235.89 -751.5,310.03z"/>
   </g>
  </g>
  <path class="fil1 str0" d="M3502.83 11344.29c1468.37,0 2658.69,1190.32 2658.69,2658.68 0,1468.36 -1190.32,2658.69 -2658.69,2658.69 -1468.36,0 -2658.68,-1190.33 -2658.68,-2658.69 0,-1468.36 1190.32,-2658.68 2658.68,-2658.68z"/>
  <path class="fil2" d="M1998.06 15556.84l584.66 0 2338.62 -3031.55 -584.66 0 -2338.62 3031.55zm2472.88 43.31c467.72,0 783.87,-372.45 783.87,-814.19 0,-454.73 -307.48,-818.52 -779.54,-818.52 -476.39,0 -783.87,368.12 -783.87,814.19 0,450.4 311.81,818.52 779.54,818.52zm4.33 -476.39c-142.92,0 -255.52,-147.25 -255.52,-337.8 0,-203.55 95.28,-342.13 251.19,-342.13 147.25,0 255.52,142.91 255.52,337.8 0,199.21 -103.94,342.13 -251.19,342.13zm-2031.14 -1009.07c467.73,0 783.87,-368.12 783.87,-814.19 0,-450.4 -307.48,-818.52 -779.54,-818.52 -476.39,0 -783.87,368.12 -783.87,814.19 0,454.73 311.81,818.52 779.54,818.52zm4.33 -476.39c-142.92,0 -255.52,-142.92 -255.52,-337.8 0,-199.22 99.61,-342.13 251.19,-342.13 147.25,0 255.52,147.24 255.52,337.8 0,199.21 -103.94,342.13 -251.19,342.13z"/>
 </g>
</svg>
