<svg width="33" height="37" viewBox="0 0 33 37" fill="none" xmlns="http://www.w3.org/2000/svg">
<g clip-path="url(#clip0)">
<path d="M32.1519 26.9289L28.0495 22.5339C26.9185 21.3223 25.0781 21.3223 23.9471 22.5339L22.0824 24.5316C21.2256 25.4496 19.8313 25.4493 18.9748 24.532L10.8923 15.8656C10.0335 14.9455 10.0334 13.4563 10.8923 12.5361C11.1927 12.2143 12.0551 11.2904 12.757 10.5384C13.8831 9.33208 13.8988 7.36655 12.7559 6.14229L8.65466 1.76227C7.52363 0.550639 5.6833 0.550639 4.5553 1.75909C3.71122 2.65551 3.43897 2.94469 3.0605 3.34664C-1.0181 7.71609 -1.0181 14.8257 3.06031 19.1951L15.8667 32.922C19.9548 37.3018 26.5716 37.3022 30.66 32.922L32.1519 31.3239C33.2829 30.1122 33.2829 28.1406 32.1519 26.9289ZM5.91978 3.22725C6.29676 2.82337 6.9101 2.8233 7.28831 3.22835L11.3896 7.60837C11.7675 8.01321 11.7675 8.66843 11.3896 9.07335L10.7058 9.80584L5.23954 3.94965L5.91978 3.22725ZM17.2344 31.4573L4.42794 17.7302C1.27244 14.3496 1.099 9.04131 3.89453 5.43873L9.34495 11.2779C7.9128 13.0172 7.97248 15.6676 9.52458 17.3304L17.6068 25.9963C17.6068 25.9964 17.607 25.9965 17.607 25.9966C19.1574 27.6577 21.6312 27.7258 23.2567 26.1894L28.7073 32.0287C25.3553 35.0185 20.4116 34.8611 17.2344 31.4573ZM30.7845 29.8589L30.1007 30.5914L24.6309 24.7314L25.3145 23.9989C25.6916 23.595 26.305 23.595 26.682 23.9989L30.7844 28.3939C31.1615 28.7979 31.1615 29.4551 30.7845 29.8589Z" fill="#FA6900"/>
</g>
<defs>
<clipPath id="clip0">
<rect y="0.853149" width="33" height="35.3538" fill="white"/>
</clipPath>
</defs>
</svg>
