<svg width="48" height="48" viewBox="0 0 48 48" fill="none" xmlns="http://www.w3.org/2000/svg">
<path d="M24 0.75C19.4016 0.75 14.9064 2.11359 11.083 4.66833C7.25956 7.22307 4.27955 10.8542 2.51981 15.1026C0.760074 19.351 0.299646 24.0258 1.19675 28.5358C2.09386 33.0459 4.30821 37.1887 7.55978 40.4402C10.8113 43.6918 14.9541 45.9062 19.4642 46.8033C23.9742 47.7004 28.649 47.2399 32.8974 45.4802C37.1458 43.7205 40.7769 40.7404 43.3317 36.917C45.8864 33.0936 47.25 28.5984 47.25 24C47.25 17.8337 44.8005 11.92 40.4402 7.55977C36.08 3.19955 30.1663 0.75 24 0.75V0.75ZM24 45.75C19.6983 45.75 15.4931 44.4744 11.9164 42.0845C8.33959 39.6945 5.55184 36.2977 3.90563 32.3234C2.25942 28.3491 1.8287 23.9759 2.66793 19.7568C3.50716 15.5377 5.57865 11.6622 8.62044 8.62043C11.6622 5.57864 15.5377 3.50715 19.7568 2.66792C23.9759 1.82869 28.3491 2.25941 32.3234 3.90562C36.2977 5.55183 39.6946 8.33958 42.0845 11.9163C44.4744 15.4931 45.75 19.6983 45.75 24C45.75 29.7685 43.4585 35.3007 39.3796 39.3796C35.3007 43.4585 29.7685 45.75 24 45.75Z" fill="white"/>
<path d="M24 5.25C20.2916 5.25 16.6665 6.34967 13.5831 8.40994C10.4996 10.4702 8.09641 13.3986 6.67727 16.8247C5.25812 20.2508 4.88681 24.0208 5.61028 27.6579C6.33376 31.2951 8.11952 34.636 10.7418 37.2583C13.364 39.8805 16.7049 41.6662 20.3421 42.3897C23.9792 43.1132 27.7492 42.7419 31.1753 41.3227C34.6014 39.9036 37.5298 37.5004 39.5901 34.4169C41.6503 31.3335 42.75 27.7084 42.75 24C42.75 21.5377 42.265 19.0995 41.3228 16.8247C40.3805 14.5498 38.9994 12.4828 37.2583 10.7417C35.5172 9.00065 33.4502 7.61953 31.1753 6.67726C28.9005 5.73498 26.4623 5.25 24 5.25V5.25ZM41.1825 25.5H31.35C31.4493 25.0062 31.4995 24.5037 31.5 24C31.4977 22.4462 31.0129 20.9314 30.1125 19.665L39.2775 15.9975C40.572 18.4664 41.2488 21.2123 41.25 24C41.25 24.5025 41.25 25.005 41.1825 25.5ZM24 30C22.8133 30 21.6533 29.6481 20.6666 28.9888C19.6799 28.3295 18.9109 27.3925 18.4567 26.2961C18.0026 25.1997 17.8838 23.9933 18.1153 22.8295C18.3468 21.6656 18.9183 20.5965 19.7574 19.7574C20.5965 18.9182 21.6656 18.3468 22.8295 18.1153C23.9934 17.8838 25.1998 18.0026 26.2961 18.4567C27.3925 18.9108 28.3295 19.6799 28.9888 20.6666C29.6481 21.6533 30 22.8133 30 24C30 25.5913 29.3679 27.1174 28.2426 28.2426C27.1174 29.3679 25.5913 30 24 30V30ZM24 6.75C26.8901 6.75104 29.7336 7.47819 32.2693 8.86468C34.8051 10.2512 36.9519 12.2525 38.5125 14.685L29.0475 18.4725C27.6722 17.2049 25.8704 16.5011 24 16.5011C22.1297 16.5011 20.3278 17.2049 18.9525 18.4725L9.48751 14.685C11.0481 12.2525 13.1949 10.2512 15.7307 8.86468C18.2665 7.47819 21.1099 6.75104 24 6.75V6.75ZM8.72251 15.9975L17.8875 19.665C16.9871 20.9314 16.5023 22.4462 16.5 24C16.5005 24.5037 16.5507 25.0062 16.65 25.5H6.81751C6.75001 25.005 6.75001 24.5025 6.75001 24C6.75122 21.2123 7.42804 18.4664 8.72251 15.9975V15.9975ZM7.02001 27H17.13C17.7436 28.398 18.7693 29.5755 20.07 30.375L16.755 39.6525C14.236 38.4797 12.0363 36.7178 10.3418 34.5155C8.6474 32.3133 7.50803 29.7355 7.02001 27V27ZM18.1425 40.2225L21.4275 31.035C23.0865 31.6549 24.9135 31.6549 26.5725 31.035L29.8575 40.2225C26.0726 41.5923 21.9274 41.5923 18.1425 40.2225V40.2225ZM31.245 39.6525L27.93 30.375C29.2307 29.5755 30.2564 28.398 30.87 27H40.98C40.492 29.7355 39.3526 32.3133 37.6582 34.5155C35.9637 36.7178 33.7641 38.4797 31.245 39.6525V39.6525Z" fill="white"/>
<path d="M24 21C23.4067 21 22.8266 21.1759 22.3333 21.5056C21.8399 21.8352 21.4554 22.3038 21.2284 22.852C21.0013 23.4001 20.9419 24.0033 21.0576 24.5853C21.1734 25.1672 21.4591 25.7018 21.8787 26.1213C22.2982 26.5409 22.8328 26.8266 23.4147 26.9424C23.9967 27.0581 24.5999 26.9987 25.1481 26.7716C25.6962 26.5446 26.1648 26.1601 26.4944 25.6667C26.8241 25.1734 27 24.5933 27 24C27 23.2044 26.6839 22.4413 26.1213 21.8787C25.5587 21.3161 24.7957 21 24 21V21ZM24 25.5C23.7033 25.5 23.4133 25.412 23.1666 25.2472C22.92 25.0824 22.7277 24.8481 22.6142 24.574C22.5007 24.2999 22.4709 23.9983 22.5288 23.7074C22.5867 23.4164 22.7296 23.1491 22.9393 22.9393C23.1491 22.7296 23.4164 22.5867 23.7074 22.5288C23.9983 22.4709 24.2999 22.5007 24.574 22.6142C24.8481 22.7277 25.0824 22.92 25.2472 23.1666C25.412 23.4133 25.5 23.7033 25.5 24C25.5 24.3978 25.342 24.7794 25.0607 25.0607C24.7794 25.342 24.3978 25.5 24 25.5Z" fill="white"/>
<path d="M33 19.5H37.5V21H33V19.5Z" fill="white"/>
<path d="M10.5 19.5H15V21H10.5V19.5Z" fill="white"/>
<path d="M33 22.5H37.5V24H33V22.5Z" fill="white"/>
<path d="M10.5 22.5H15V24H10.5V22.5Z" fill="white"/>
</svg>
