<svg width="78" height="78" viewBox="0 0 78 78" fill="none" xmlns="http://www.w3.org/2000/svg">
<path d="M76.7812 24.375H73.125V19.5C73.125 17.4807 71.4881 15.8438 69.4688 15.8438H8.53125C6.51193 15.8438 4.875 17.4807 4.875 19.5V24.375H1.21875C0.545695 24.375 0 24.9207 0 25.5938V52.4062C0 53.0793 0.545695 53.625 1.21875 53.625H4.875V60.9375C4.875 61.6106 5.4207 62.1562 6.09375 62.1562H10.9688C11.6418 62.1562 12.1875 61.6106 12.1875 60.9375V53.625H65.8125V60.9375C65.8125 61.6106 66.3582 62.1562 67.0312 62.1562H71.9062C72.5793 62.1562 73.125 61.6106 73.125 60.9375V53.625H76.7812C77.4543 53.625 78 53.0793 78 52.4062V25.5938C78 24.9207 77.4543 24.375 76.7812 24.375ZM7.3125 19.5C7.3125 18.8269 7.8582 18.2812 8.53125 18.2812H69.4688C70.1418 18.2812 70.6875 18.8269 70.6875 19.5V24.375H67.0312C66.3582 24.375 65.8125 24.9207 65.8125 25.5938V32.9062H12.1875V25.5938C12.1875 24.9207 11.6418 24.375 10.9688 24.375H7.3125V19.5ZM65.8125 35.3438V41.4375H40.2188V35.3438H65.8125ZM37.7812 35.3438V41.4375H12.1875V35.3438H37.7812ZM9.75 59.7188H7.3125V53.625H9.75V59.7188ZM70.6875 59.7188H68.25V53.625H70.6875V59.7188ZM75.5625 51.1875H2.4375V26.8125H9.75V42.6562C9.75 43.3293 10.2957 43.875 10.9688 43.875H67.0312C67.7043 43.875 68.25 43.3293 68.25 42.6562V26.8125H75.5625V51.1875Z" fill="#FA6900"/>
<path d="M25.5938 21.9375C23.5744 21.9375 21.9375 23.5744 21.9375 25.5938C21.9375 27.6131 23.5744 29.25 25.5938 29.25C27.6131 29.25 29.25 27.6131 29.25 25.5938C29.25 23.5744 27.6131 21.9375 25.5938 21.9375ZM25.5938 26.8125C24.9207 26.8125 24.375 26.2668 24.375 25.5938C24.375 24.9207 24.9207 24.375 25.5938 24.375C26.2668 24.375 26.8125 24.9207 26.8125 25.5938C26.8125 26.2668 26.2668 26.8125 25.5938 26.8125Z" fill="#FA6900"/>
<path d="M52.4062 21.9375C50.3869 21.9375 48.75 23.5744 48.75 25.5938C48.75 27.6131 50.3869 29.25 52.4062 29.25C54.4256 29.25 56.0625 27.6131 56.0625 25.5938C56.0625 23.5744 54.4256 21.9375 52.4062 21.9375ZM52.4062 26.8125C51.7332 26.8125 51.1875 26.2668 51.1875 25.5938C51.1875 24.9207 51.7332 24.375 52.4062 24.375C53.0793 24.375 53.625 24.9207 53.625 25.5938C53.625 26.2668 53.0793 26.8125 52.4062 26.8125Z" fill="#FA6900"/>
</svg>