<svg width="25" height="25" viewBox="0 0 25 25" fill="none" xmlns="http://www.w3.org/2000/svg">
<path d="M23.4694 0H1.53061C0.686633 0 0 0.686633 0 1.53061V23.4694C0 24.3134 0.686633 25 1.53061 25H23.4694C24.3134 25 25 24.3134 25 23.4694V1.53061C25 0.686633 24.3134 0 23.4694 0ZM23.9796 23.4694C23.9796 23.7507 23.7507 23.9796 23.4694 23.9796H1.53061C1.24929 23.9796 1.02041 23.7507 1.02041 23.4694V1.53061C1.02041 1.24929 1.24929 1.02041 1.53061 1.02041H23.4694C23.7507 1.02041 23.9796 1.24929 23.9796 1.53061V23.4694Z" fill="#f7761f"/>
<path d="M20.2259 4.85786C19.9531 4.85786 19.6645 4.9048 19.3681 4.99745C19.3573 5.00082 19.3466 5.00459 19.3361 5.00867L3.13211 11.2841C3.09741 11.2975 3.0643 11.3147 3.03333 11.3354C2.98476 11.3678 2.55716 11.6679 2.50685 12.2248C2.46752 12.6593 2.66522 13.0899 3.09394 13.5043C4.00078 14.3827 6.08134 14.7605 6.90333 14.8791L8.58236 19.4366C8.58889 19.4543 8.59634 19.4716 8.60476 19.4885C8.74144 19.7616 9.13456 20.224 9.74134 20.224C10.1449 20.224 10.5524 20.0211 10.9525 19.6211L12.4343 18.1392L16.4199 20.9527C16.4236 20.9553 16.4274 20.9578 16.4311 20.9603C16.4846 20.9959 16.7707 21.1736 17.1606 21.1736C17.4689 21.1736 18.0459 21.0541 18.446 20.2538C18.9681 19.2096 21.6244 7.81418 21.9255 6.51832C21.9343 6.48046 21.9387 6.44168 21.9387 6.40281C21.9388 5.50755 21.2184 4.85786 20.2259 4.85786ZM17.5333 19.7973C17.4522 19.9596 17.3217 20.1531 17.1606 20.1531C17.09 20.1531 17.0211 20.1235 16.9937 20.1085L12.6716 17.0577C12.4687 16.9144 12.1922 16.9381 12.0166 17.1137L10.2309 18.8994C9.94874 19.1816 9.78486 19.2035 9.74129 19.2035C9.64007 19.2035 9.55374 19.0868 9.52435 19.042L7.7541 14.2369C7.68741 14.056 7.5244 13.9281 7.33292 13.9063C6.58986 13.8217 4.50731 13.4528 3.80333 12.7709C3.53349 12.5101 3.52027 12.3605 3.52267 12.3208C3.52558 12.273 3.55644 12.2307 3.58073 12.2045L19.6879 5.96658C19.8799 5.90796 20.0608 5.87827 20.2258 5.87827C20.3825 5.87827 20.8812 5.91342 20.9163 6.3526C19.7437 11.3962 17.8863 19.0913 17.5333 19.7973Z" fill="#f7761f"/>
<path d="M18.6233 6.98082L8.41918 12.8484C8.20259 12.973 8.10805 13.236 8.19576 13.4698L9.72637 17.5515C9.79662 17.7389 9.96994 17.8679 10.1696 17.8814C10.1813 17.8822 10.1927 17.8826 10.2042 17.8826C10.3909 17.8826 10.564 17.7802 10.6534 17.6142L12.4013 14.3682L19.2315 7.79061C19.4172 7.61189 19.4403 7.32276 19.2856 7.11668C19.1307 6.91066 18.8466 6.85245 18.6233 6.98082ZM11.6359 13.6885C11.5978 13.7252 11.5657 13.7676 11.5406 13.8141L10.2874 16.1415L9.30326 13.5171L15.5349 9.93378L11.6359 13.6885Z" fill="#f7761f"/>
</svg>
