<svg width="59" height="59" viewBox="0 0 59 59" fill="none" xmlns="http://www.w3.org/2000/svg">
<path d="M52.7783 2.86646H14.6268C11.3158 2.86646 8.62205 5.53504 8.62205 8.80452L8.37618 42.3988H0.930739C0.403087 42.3988 0 42.8654 0 43.393V48.0164C0 52.3445 3.46356 55.8841 7.64372 56.0781V56.1337H39.7712V56.0712C40.0101 56.0809 40.1547 56.1337 40.319 56.1337H40.3418C44.8 56.1075 48.3938 52.4737 48.3704 48.0155V18.6316H58.0692C58.5969 18.6316 59 18.1539 59 17.6267V9.1437C59.006 5.696 56.226 2.89118 52.7783 2.86646V2.86646ZM8.06174 54.2227H8.05521C4.65649 54.2227 1.91093 51.4137 1.91093 48.0155V44.3098H32.247V47.9996C32.2395 50.1503 33.089 52.2152 34.6076 53.738C34.769 53.9004 34.9379 53.9839 35.1105 54.2227H8.06174ZM46.4595 48.0145C46.4595 51.4137 43.7405 54.2227 40.3404 54.2227H40.3208C36.9039 54.198 34.15 51.417 34.1579 48.0001V43.393C34.1607 42.8579 33.7375 42.4175 33.2024 42.3988H10.2871L10.533 8.81106C10.533 6.58895 12.3693 4.77739 14.6268 4.77739H48.2673C47.1784 5.97172 46.4595 7.48283 46.4595 9.16936V48.0145ZM57.089 9.16049V16.7207H48.3704V9.16749C48.3704 6.77603 50.3597 4.77739 52.7503 4.77739H52.7769C55.1735 4.80118 57.1002 6.75643 57.089 9.15349V9.16049Z" fill="#FA6900"/>
<path d="M22.4362 26.3847L27.3623 29.7526C27.6838 29.9742 28.1088 29.9742 28.4302 29.7526L33.3415 26.3856C35.0476 25.2216 36.3077 22.7881 36.3077 20.7247V13.9104C36.318 13.5503 36.1192 13.2162 35.7982 13.0525L28.2977 9.36311C28.0346 9.23248 27.7258 9.23248 27.4626 9.36311L19.9761 13.0422C19.6552 13.206 19.4569 13.54 19.4676 13.9002V20.7247C19.4676 22.7881 20.7305 25.2216 22.4362 26.3847ZM21.3785 14.4964L27.8876 11.2848L34.3968 14.5053V20.7247C34.3968 22.1639 33.4534 23.9946 32.2633 24.8059L27.8765 27.8062L23.5069 24.8064C22.3167 23.9941 21.3785 22.1639 21.3785 20.7247V14.4964Z" fill="#FA6900"/>
<path d="M26.2716 22.167C26.4498 22.3489 26.6933 22.452 26.948 22.4534H26.9504C27.2042 22.4525 27.4472 22.3508 27.6259 22.1707L31.4268 18.3684C31.8005 17.9952 31.8005 17.3896 31.4273 17.0164C31.0545 16.6427 30.4489 16.6427 30.0757 17.0159L26.9536 20.1375L25.7057 18.8774C25.3338 18.5023 24.7287 18.4995 24.3536 18.8714C23.9785 19.2432 23.9762 19.8483 24.3476 20.2234L26.2716 22.167Z" fill="#FA6900"/>
<path d="M39.7713 32.4858H16.8401C16.3124 32.4858 15.8846 32.9137 15.8846 33.4413C15.8846 33.969 16.3124 34.3968 16.8401 34.3968H39.7713C40.2989 34.3968 40.7267 33.969 40.7267 33.4413C40.7267 32.9137 40.2989 32.4858 39.7713 32.4858Z" fill="#FA6900"/>
<path d="M39.7713 36.9048H16.8401C16.3124 36.9048 15.8846 37.3326 15.8846 37.8603C15.8846 38.3879 16.3124 38.8157 16.8401 38.8157H39.7713C40.2989 38.8157 40.7267 38.3879 40.7267 37.8603C40.7267 37.3326 40.2989 36.9048 39.7713 36.9048Z" fill="#FA6900"/>
</svg>
