<svg width="57" height="57" viewBox="0 0 57 57" fill="none" xmlns="http://www.w3.org/2000/svg">
<g clip-path="url(#clip0)">
<path d="M54.15 3.8H8.55V2.85C8.55 1.27599 7.27401 0 5.7 0H2.85C1.27599 0 0 1.27599 0 2.85V54.15C0 55.724 1.27599 57 2.85 57H5.7C7.27401 57 8.55 55.724 8.55 54.15V10.45H19.95V19.2527C12.6575 24.5942 9.62545 34.0187 12.4354 42.6104C15.2454 51.2021 23.2605 57.0135 32.3 57.0135C41.3395 57.0135 49.3546 51.2021 52.1646 42.6104C54.9745 34.0187 51.9425 24.5942 44.65 19.2527V10.45H54.15C55.724 10.45 57 9.17401 57 7.6V6.65C57 5.07599 55.724 3.8 54.15 3.8V3.8ZM6.65 54.15C6.65 54.6747 6.22467 55.1 5.7 55.1H2.85C2.32533 55.1 1.9 54.6747 1.9 54.15V2.85C1.9 2.32533 2.32533 1.9 2.85 1.9H5.7C6.22467 1.9 6.65 2.32533 6.65 2.85V54.15ZM21.85 10.45H24.7V16.6364C23.7165 17.022 22.7638 17.4819 21.85 18.012V10.45ZM38 10.45V15.9971C34.2743 14.9343 30.3257 14.9343 26.6 15.9971V10.45H38ZM51.3 36.1C51.3 46.5934 42.7934 55.1 32.3 55.1C21.8066 55.1 13.3 46.5934 13.3 36.1C13.3 25.6066 21.8066 17.1 32.3 17.1C42.7884 17.112 51.288 25.6116 51.3 36.1ZM42.75 18.012C41.8362 17.4819 40.8835 17.022 39.9 16.6364V10.45H42.75V18.012ZM55.1 7.6C55.1 8.12467 54.6747 8.55 54.15 8.55H8.55V5.7H54.15C54.6747 5.7 55.1 6.12533 55.1 6.65V7.6Z" fill="#FA6900"/>
<path d="M47.3252 36.0581C46.2845 35.2849 44.969 34.9799 43.6943 35.2164C43.7009 34.863 43.7009 34.5276 43.6943 34.2255H43.68C43.68 34.1638 43.7009 34.1058 43.7009 34.0422C43.7009 32.3322 42.2417 30.8017 39.5931 29.7434C39.1057 29.5488 38.5528 29.7861 38.3581 30.2735C38.1635 30.7609 38.4008 31.3139 38.8882 31.5085C40.7113 32.2362 41.8 33.1834 41.8 34.0412C41.8 35.6942 37.4632 37.9999 30.4 37.9999C23.3367 37.9999 19 35.6942 19 34.0412C19 33.1159 20.3072 32.0662 22.4114 31.3024C22.8989 31.1195 23.1483 30.5783 22.9708 30.0889C22.7933 29.5995 22.2549 29.3442 21.7635 29.5164C18.7558 30.6079 17.1 32.2153 17.1 34.0412C17.1 34.0859 17.1123 34.1267 17.1142 34.1704C17.1142 34.1837 17.1066 34.1942 17.1066 34.2075C17.0382 37.0575 17.4363 42.3566 20.8867 45.8925C23.1581 48.22 26.3587 49.3999 30.4 49.3999C34.4413 49.3999 37.6418 48.22 39.9133 45.8925C40.3964 45.3936 40.8316 44.8503 41.2129 44.2699C41.4904 44.1576 41.7763 44.0674 42.0679 44.0001C42.2579 43.9554 42.4602 43.9117 42.673 43.8652C44.65 43.4377 47.9579 42.7252 48.4063 39.4002C48.672 38.1728 48.2593 36.8973 47.3252 36.0581V36.0581ZM30.4 47.4999C26.8907 47.4999 24.1471 46.5119 22.2461 44.5653C20.448 42.5317 19.3609 39.968 19.1491 37.2617C21.66 38.9879 26.1136 39.8999 30.4 39.8999C34.6864 39.8999 39.14 38.9869 41.6537 37.2598C41.4406 39.9668 40.3525 42.5311 38.5538 44.5653C36.6529 46.5119 33.9093 47.4999 30.4 47.4999V47.4999ZM46.5205 39.1456C46.2764 40.9506 44.5996 41.4921 42.4175 41.9718C43.0251 40.4292 43.4145 38.8093 43.5746 37.1591C44.4263 36.9203 45.339 37.0455 46.0949 37.5049C46.5117 37.941 46.6727 38.5619 46.5205 39.1456V39.1456Z" fill="#FA6900"/>
<path d="M25.0411 29.2275C25.5018 29.6075 25.65 29.7614 25.65 30.0825C25.65 30.4036 25.5018 30.5575 25.0411 30.9375C24.2629 31.4549 23.7822 32.3159 23.75 33.2498C23.75 33.7745 24.1753 34.1998 24.7 34.1998C25.2247 34.1998 25.65 33.7745 25.65 33.2498C25.65 32.9297 25.7982 32.7748 26.259 32.3948C27.0613 31.8993 27.5498 31.0236 27.5498 30.0806C27.5498 29.1376 27.0613 28.2619 26.259 27.7664C25.7982 27.3864 25.65 27.2325 25.65 26.9114C25.65 26.6065 25.7726 26.464 26.258 26.0564C27.0357 25.5412 27.5169 24.6821 27.55 23.7498C27.55 23.2251 27.1247 22.7998 26.6 22.7998C26.0753 22.7998 25.65 23.2251 25.65 23.7498C25.65 24.0548 25.5275 24.1973 25.042 24.6048C24.2391 25.0994 23.7501 25.975 23.7501 26.9181C23.7501 27.8611 24.2391 28.7367 25.042 29.2313L25.0411 29.2275Z" fill="#FA6900"/>
<path d="M29.791 29.2275C30.2518 29.6075 30.4 29.7614 30.4 30.0825C30.4 30.4036 30.2518 30.5575 29.791 30.9375C29.0129 31.4549 28.5322 32.3159 28.5 33.2498C28.5 33.7745 28.9253 34.1998 29.45 34.1998C29.9747 34.1998 30.4 33.7745 30.4 33.2498C30.4 32.9297 30.5482 32.7748 31.0089 32.3948C31.8113 31.8993 32.2998 31.0236 32.2998 30.0806C32.2998 29.1376 31.8113 28.2619 31.0089 27.7664C30.5482 27.3864 30.4 27.2325 30.4 26.9114C30.4 26.6065 30.5225 26.464 31.008 26.0564C31.7857 25.5412 32.2669 24.6821 32.3 23.7498C32.3 23.2251 31.8747 22.7998 31.35 22.7998C30.8253 22.7998 30.4 23.2251 30.4 23.7498C30.4 24.0548 30.2775 24.1973 29.792 24.6048C28.9891 25.0994 28.5001 25.975 28.5001 26.9181C28.5001 27.8611 28.9891 28.7367 29.792 29.2313L29.791 29.2275Z" fill="#FA6900"/>
<path d="M34.5411 29.2275C35.0018 29.6075 35.15 29.7614 35.15 30.0825C35.15 30.4036 35.0018 30.5575 34.5411 30.9375C33.7629 31.4549 33.2822 32.3159 33.25 33.2498C33.25 33.7745 33.6753 34.1998 34.2 34.1998C34.7247 34.1998 35.15 33.7745 35.15 33.2498C35.15 32.9297 35.2982 32.7748 35.7589 32.3948C36.5613 31.8993 37.0498 31.0236 37.0498 30.0806C37.0498 29.1376 36.5613 28.2619 35.7589 27.7664C35.2982 27.3864 35.15 27.2325 35.15 26.9114C35.15 26.6065 35.2725 26.464 35.758 26.0564C36.5357 25.5412 37.0169 24.6821 37.05 23.7498C37.05 23.2251 36.6247 22.7998 36.1 22.7998C35.5753 22.7998 35.15 23.2251 35.15 23.7498C35.15 24.0548 35.0275 24.1973 34.542 24.6048C33.7391 25.0994 33.2501 25.975 33.2501 26.9181C33.2501 27.8611 33.7391 28.7367 34.542 29.2313L34.5411 29.2275Z" fill="#FA6900"/>
</g>
<defs>
<clipPath id="clip0">
<rect width="57" height="57" fill="white"/>
</clipPath>
</defs>
</svg>

