<svg width="58" height="58" viewBox="0 0 58 58" fill="none" xmlns="http://www.w3.org/2000/svg">
<path d="M29.0215 12.6014C28.5546 12.6014 28.1262 12.3049 27.9612 11.8681C27.7946 11.4269 27.9266 10.9094 28.2879 10.6051C28.65 10.3004 29.176 10.2515 29.5865 10.4882C29.9966 10.7249 30.2202 11.2055 30.135 11.6721C30.0381 12.2028 29.5612 12.6014 29.0215 12.6014V12.6014Z" fill="#FA6900"/>
<path d="M56.8672 3.50586H1.13281C0.50716 3.50586 0 4.01313 0 4.63867V8.66412C0 10.0046 0.67323 11.1906 1.69922 11.902V13.5887C1.69922 16.2182 3.44511 18.4477 5.83852 19.1787V31.3324C5.83852 35.048 6.69198 38.5974 8.37511 41.8819C9.97996 45.0136 12.3219 47.7851 15.148 49.8969C15.1485 49.8972 15.149 49.8977 15.1496 49.898C19.1735 52.9046 23.9629 54.4937 29 54.4937C34.0371 54.4937 38.8265 52.9046 42.8504 49.898C42.851 49.8977 42.8515 49.8972 42.852 49.8969C45.6781 47.7851 48.02 45.0136 49.6249 41.8819C51.308 38.5974 52.1615 35.048 52.1615 31.3324V19.1788C54.5549 18.4478 56.3008 16.2184 56.3008 13.5888V11.9022C57.3268 11.1906 58 10.0046 58 8.66423V4.63867C58 4.01313 57.4928 3.50586 56.8672 3.50586V3.50586ZM41.0395 48.4138C37.5064 50.9113 33.3561 52.2283 29 52.2283C24.6439 52.2283 20.4936 50.9113 16.9605 48.4138V39.9067C16.9605 33.268 22.3614 27.8672 29 27.8672C32.2156 27.8672 35.2388 29.1197 37.513 31.3938C39.7871 33.6679 41.0395 36.6913 41.0395 39.9067V48.4138ZM43.3052 46.5692V39.9067C43.3052 36.086 41.8171 32.4939 39.115 29.7916C36.413 27.0895 32.8208 25.6016 29 25.6016C21.1121 25.6016 14.6948 32.0189 14.6948 39.9067V46.5692C10.48 42.6306 8.10414 37.1951 8.10414 31.3325V19.4321H49.8959V31.3325C49.8959 37.1951 47.5201 42.6306 43.3052 46.5692V46.5692ZM50.4576 17.1664H7.54238C5.5697 17.1664 3.96484 15.5615 3.96484 13.5888V12.6018H23.879C24.5047 12.6018 25.0118 12.0945 25.0118 11.469C25.0118 10.8434 24.5047 10.3362 23.879 10.3362H3.93766C3.01566 10.3362 2.26562 9.58612 2.26562 8.66412V5.77148H55.7344V8.66412C55.7344 9.58612 54.9843 10.3362 54.0623 10.3362H34.1211C33.4955 10.3362 32.9883 10.8434 32.9883 11.469C32.9883 12.0945 33.4955 12.6018 34.1211 12.6018H54.0352V13.5888C54.0352 15.5615 52.4303 17.1664 50.4576 17.1664Z" fill="#FA6900"/>
<path d="M29 47.4312C24.7843 47.4312 21.3546 44.0015 21.3546 39.7859C21.3546 35.5702 24.7843 32.1406 29 32.1406C33.2156 32.1406 36.6453 35.5702 36.6453 39.7859C36.6453 44.0015 33.2156 47.4312 29 47.4312V47.4312ZM29 34.4063C26.0336 34.4063 23.6203 36.8196 23.6203 39.7859C23.6203 42.7524 26.0336 45.1656 29 45.1656C31.9664 45.1656 34.3797 42.7522 34.3797 39.7859C34.3797 36.8195 31.9664 34.4063 29 34.4063Z" fill="#FA6900"/>
</svg>
