<svg width="55" height="51" viewBox="0 0 55 51" fill="none" xmlns="http://www.w3.org/2000/svg">
<path d="M40.8195 16.7358C36.5544 16.7358 33.0851 13.5189 33.0851 9.56397C33.0851 9.12329 33.4692 8.76709 33.9445 8.76709C34.4197 8.76709 34.8038 9.12329 34.8038 9.56397C34.8038 12.6391 37.5031 15.1421 40.8195 15.1421C44.1358 15.1421 46.8351 12.6391 46.8351 9.56397C46.8351 9.12329 47.2192 8.76709 47.6945 8.76709C48.1697 8.76709 48.5538 9.12329 48.5538 9.56397C48.5538 13.5189 45.0845 16.7358 40.8195 16.7358Z" fill="#f7761f"/>
<path d="M40.8194 50.9991C38.9254 50.9991 37.3837 49.5703 37.3837 47.814C37.3837 47.3733 37.7678 47.0171 38.243 47.0171C38.7183 47.0171 39.1024 47.3733 39.1024 47.814C39.1024 48.6921 39.8724 49.4053 40.8194 49.4053C41.7656 49.4053 42.5348 48.6913 42.5348 47.814C42.5348 47.3733 42.9189 47.0171 43.3941 47.0171C43.8694 47.0171 44.2535 47.3733 44.2535 47.814C44.2535 49.5703 42.7126 50.9991 40.8194 50.9991Z" fill="#f7761f"/>
<path d="M33.9436 10.3601C33.4684 10.3601 33.0842 10.0039 33.0842 9.56318V4.77954C33.0842 4.33887 33.4684 3.98267 33.9436 3.98267C34.4188 3.98267 34.803 4.33887 34.803 4.77954V9.56318C34.803 10.0039 34.4188 10.3601 33.9436 10.3601Z" fill="#f7761f"/>
<path d="M33.9436 5.57647C33.4684 5.57647 33.0842 5.22026 33.0842 4.77959C33.0842 2.14433 35.3951 0.000732422 38.237 0.000732422C38.7123 0.000732422 39.0964 0.356936 39.0964 0.797607C39.0964 1.23828 38.7123 1.59448 38.237 1.59448C36.3438 1.59448 34.803 3.02328 34.803 4.77959C34.803 5.22026 34.4188 5.57647 33.9436 5.57647Z" fill="#f7761f"/>
<path d="M47.6953 10.3601C47.2201 10.3601 46.8359 10.0039 46.8359 9.56323V4.78198C46.8359 4.34131 47.2201 3.98511 47.6953 3.98511C48.1705 3.98511 48.5547 4.34131 48.5547 4.78198V9.56323C48.5547 10.0039 48.1705 10.3601 47.6953 10.3601Z" fill="#f7761f"/>
<path d="M47.6953 5.57886C47.2201 5.57886 46.8359 5.22265 46.8359 4.78198C46.8359 3.02408 45.2942 1.59448 43.3984 1.59448C42.9232 1.59448 42.5391 1.23828 42.5391 0.797607C42.5391 0.356936 42.9232 0.000732422 43.3984 0.000732422C46.2421 0.000732422 48.5547 2.14512 48.5547 4.78198C48.5547 5.22265 48.1705 5.57886 47.6953 5.57886Z" fill="#f7761f"/>
<path d="M38.2405 8.76715C37.7652 8.76715 37.3811 8.41095 37.3811 7.97028V0.797607C37.3811 0.356936 37.7652 0.000732422 38.2405 0.000732422C38.7157 0.000732422 39.0999 0.356936 39.0999 0.797607V7.97028C39.0999 8.41095 38.7157 8.76715 38.2405 8.76715Z" fill="#f7761f"/>
<path d="M43.3984 8.76715C42.9232 8.76715 42.5391 8.41095 42.5391 7.97028V0.797607C42.5391 0.356936 42.9232 0.000732422 43.3984 0.000732422C43.8737 0.000732422 44.2578 0.356936 44.2578 0.797607V7.97028C44.2578 8.41095 43.8737 8.76715 43.3984 8.76715Z" fill="#f7761f"/>
<path d="M43.3984 8.76709H38.2405C37.7652 8.76709 37.3811 8.41089 37.3811 7.97022C37.3811 7.52954 37.7652 7.17334 38.2405 7.17334H43.3984C43.8737 7.17334 44.2578 7.52954 44.2578 7.97022C44.2578 8.41089 43.8737 8.76709 43.3984 8.76709Z" fill="#f7761f"/>
<path d="M43.3942 25.5016C42.9189 25.5016 42.5348 25.1454 42.5348 24.7047V15.4753C42.5348 15.0347 42.9189 14.6785 43.3942 14.6785C43.8694 14.6785 44.2535 15.0347 44.2535 15.4753V24.7047C44.2535 25.1454 43.8694 25.5016 43.3942 25.5016Z" fill="#f7761f"/>
<path d="M38.243 25.5016C37.7678 25.5016 37.3837 25.1454 37.3837 24.7047V15.4753C37.3837 15.0347 37.7678 14.6785 38.243 14.6785C38.7183 14.6785 39.1024 15.0347 39.1024 15.4753V24.7047C39.1024 25.1454 38.7183 25.5016 38.243 25.5016Z" fill="#f7761f"/>
<path d="M44.2775 25.5001L40.8383 25.4985C40.3631 25.4985 39.9789 25.1415 39.9789 24.7017C39.9789 24.261 40.3639 23.9048 40.8383 23.9048L44.2775 23.9064C44.7528 23.9064 45.1369 24.2634 45.1369 24.7033C45.1369 25.1439 44.7519 25.5001 44.2775 25.5001Z" fill="#f7761f"/>
<path d="M44.2775 30.2765C43.8023 30.2765 43.4182 29.9203 43.4182 29.4796C43.4182 29.0389 43.8023 28.6827 44.2775 28.6827C45.2254 28.6827 45.9963 27.9671 45.9963 27.0874C45.9963 26.2084 45.2254 25.4937 44.2775 25.4937C43.8023 25.4937 43.4182 25.1374 43.4182 24.6968C43.4182 24.2561 43.8023 23.8999 44.2775 23.8999C46.1733 23.8999 47.715 25.3295 47.715 27.0874C47.715 28.8461 46.1733 30.2765 44.2775 30.2765Z" fill="#f7761f"/>
<path d="M44.2775 35.0563C43.8023 35.0563 43.4182 34.7001 43.4182 34.2594C43.4182 33.8187 43.8023 33.4625 44.2775 33.4625C45.2254 33.4625 45.9963 32.7477 45.9963 31.8688C45.9963 30.989 45.2254 30.2734 44.2775 30.2734C43.8023 30.2734 43.4182 29.9172 43.4182 29.4766C43.4182 29.0359 43.8023 28.6797 44.2775 28.6797C46.1733 28.6797 47.715 30.1101 47.715 31.8688C47.715 33.6267 46.1733 35.0563 44.2775 35.0563Z" fill="#f7761f"/>
<path d="M44.2775 39.8375C43.8023 39.8375 43.4182 39.4813 43.4182 39.0407C43.4182 38.6 43.8023 38.2438 44.2775 38.2438C45.2254 38.2438 45.9963 37.5282 45.9963 36.6484C45.9963 35.7695 45.2254 35.0547 44.2775 35.0547C43.8023 35.0547 43.4182 34.6985 43.4182 34.2578C43.4182 33.8171 43.8023 33.4609 44.2775 33.4609C46.1733 33.4609 47.715 34.8905 47.715 36.6484C47.715 38.4071 46.1733 39.8375 44.2775 39.8375Z" fill="#f7761f"/>
<path d="M44.2775 44.6234C43.8023 44.6234 43.4182 44.2672 43.4182 43.8265C43.4182 43.3859 43.8023 43.0297 44.2775 43.0297C45.2254 43.0297 45.9963 42.3149 45.9963 41.4359C45.9963 40.5562 45.2254 39.8406 44.2775 39.8406C43.8023 39.8406 43.4182 39.4844 43.4182 39.0437C43.4182 38.603 43.8023 38.2468 44.2775 38.2468C46.1733 38.2468 47.715 39.6772 47.715 41.4359C47.715 43.1938 46.1733 44.6234 44.2775 44.6234Z" fill="#f7761f"/>
<path d="M40.8238 44.6234C38.928 44.6234 37.3863 43.1938 37.3863 41.4359C37.3863 39.6772 38.928 38.2468 40.8238 38.2468C41.299 38.2468 41.6832 38.603 41.6832 39.0437C41.6832 39.4844 41.299 39.8406 40.8238 39.8406C39.8759 39.8406 39.105 40.5562 39.105 41.4359C39.105 42.3149 39.8759 43.0297 40.8238 43.0297C41.299 43.0297 41.6832 43.3859 41.6832 43.8265C41.6832 44.2672 41.299 44.6234 40.8238 44.6234Z" fill="#f7761f"/>
<path d="M40.8238 39.8439C38.928 39.8439 37.3863 38.4135 37.3863 36.6548C37.3863 34.8969 38.928 33.4673 40.8238 33.4673C41.299 33.4673 41.6832 33.8235 41.6832 34.2642C41.6832 34.7048 41.299 35.061 40.8238 35.061C39.8759 35.061 39.105 35.7758 39.105 36.6548C39.105 37.5345 39.8759 38.2501 40.8238 38.2501C41.299 38.2501 41.6832 38.6063 41.6832 39.047C41.6832 39.4877 41.299 39.8439 40.8238 39.8439Z" fill="#f7761f"/>
<path d="M40.8237 35.064C38.9271 35.064 37.3845 33.6344 37.3845 31.8765C37.3845 31.4358 37.7687 31.0796 38.2439 31.0796C38.7191 31.0796 39.1033 31.4358 39.1033 31.8765C39.1033 32.7554 39.875 33.4702 40.8237 33.4702C41.7716 33.4702 42.5425 32.7554 42.5425 31.8765C42.5425 31.4358 42.9266 31.0796 43.4019 31.0796C43.8771 31.0796 44.2612 31.4358 44.2612 31.8765C44.2612 33.6344 42.7195 35.064 40.8237 35.064Z" fill="#f7761f"/>
<path d="M44.2759 35.0642L40.8375 35.061C40.3623 35.0602 39.9781 34.704 39.979 34.2634C39.9799 33.8235 40.364 33.4673 40.8384 33.4673H40.8392L44.2767 33.4705C44.752 33.4713 45.1361 33.8275 45.1353 34.2681C45.1353 34.708 44.7503 35.0642 44.2759 35.0642Z" fill="#f7761f"/>
<path d="M44.2759 39.8439L40.8375 39.8423C40.3631 39.8423 39.979 39.4853 39.979 39.0454C39.979 38.6047 40.364 38.2485 40.8384 38.2485H40.8392L44.2767 38.2501C44.7511 38.2501 45.1353 38.6071 45.1353 39.047C45.1353 39.4877 44.7503 39.8439 44.2759 39.8439Z" fill="#f7761f"/>
<path d="M40.8384 25.4985H33.9539C33.4787 25.4985 33.0945 25.1423 33.0945 24.7017C33.0945 24.261 33.4787 23.9048 33.9539 23.9048H40.8392C41.3145 23.9048 41.6986 24.261 41.6986 24.7017C41.6986 25.1423 41.3136 25.4985 40.8384 25.4985Z" fill="#f7761f"/>
<path d="M44.2776 44.6348H33.9539C33.4787 44.6348 33.0945 44.2786 33.0945 43.8379C33.0945 43.3972 33.4787 43.041 33.9539 43.041H44.2784C44.7537 43.041 45.1378 43.3972 45.1378 43.8379C45.1378 44.2786 44.7528 44.6348 44.2776 44.6348Z" fill="#f7761f"/>
<path d="M33.9539 44.6345C29.2058 44.6345 24.9622 41.8439 23.3956 37.6898C23.2392 37.2746 23.4755 36.8196 23.9233 36.6745C24.3719 36.5295 24.8617 36.7495 25.0181 37.1638C26.3433 40.6788 29.9346 43.0408 33.953 43.0408C34.4283 43.0408 34.8124 43.397 34.8124 43.8377C34.8124 44.2783 34.4291 44.6345 33.9539 44.6345Z" fill="#f7761f"/>
<path d="M24.2166 31.8846C24.1221 31.8846 24.025 31.8694 23.9313 31.8392C23.4836 31.6925 23.2481 31.2375 23.4062 30.8231C24.978 26.6826 29.2182 23.8999 33.9551 23.8999C34.4303 23.8999 34.8144 24.2561 34.8144 24.6968C34.8144 25.1374 34.4303 25.4937 33.9551 25.4937C29.9452 25.4937 26.3573 27.8476 25.027 31.3523C24.9033 31.6798 24.5707 31.8846 24.2166 31.8846Z" fill="#f7761f"/>
<path d="M43.4036 32.6735C42.9283 32.6735 42.5442 32.3173 42.5442 31.8766V24.6968C42.5442 24.2561 42.9283 23.8999 43.4036 23.8999C43.8788 23.8999 44.2629 24.2561 44.2629 24.6968V31.8766C44.2629 32.3173 43.8788 32.6735 43.4036 32.6735Z" fill="#f7761f"/>
<path d="M38.2439 30.2812H33.9539C33.4787 30.2812 33.0945 29.925 33.0945 29.4844C33.0945 29.0437 33.4787 28.6875 33.9539 28.6875H38.2439C38.7191 28.6875 39.1033 29.0437 39.1033 29.4844C39.1033 29.925 38.7191 30.2812 38.2439 30.2812Z" fill="#f7761f"/>
<path d="M44.2775 30.2812H43.4156C42.9404 30.2812 42.5562 29.925 42.5562 29.4844C42.5562 29.0437 42.9404 28.6875 43.4156 28.6875H44.2784C44.7536 28.6875 45.1378 29.0437 45.1378 29.4844C45.1378 29.925 44.7528 30.2812 44.2775 30.2812Z" fill="#f7761f"/>
<path d="M38.2439 32.6735C37.7687 32.6735 37.3845 32.3173 37.3845 31.8766V29.4844C37.3845 29.0437 37.7687 28.6875 38.2439 28.6875C38.7191 28.6875 39.1033 29.0437 39.1033 29.4844V31.8766C39.1033 32.3173 38.7191 32.6735 38.2439 32.6735Z" fill="#f7761f"/>
<path d="M25.5595 29.4941H21.0693C20.594 29.4941 20.2099 29.1379 20.2099 28.6973C20.2099 28.2566 20.594 27.9004 21.0693 27.9004H25.5595C26.0347 27.9004 26.4189 28.2566 26.4189 28.6973C26.4189 29.1379 26.0347 29.4941 25.5595 29.4941Z" fill="#f7761f"/>
<path d="M21.0702 40.652C20.5958 40.652 20.2108 40.2958 20.2108 39.8551C20.2108 39.4152 20.595 39.0582 21.0702 39.0582L25.5733 39.0566C26.0477 39.0566 26.4327 39.4128 26.4327 39.8535C26.4327 40.2934 26.0486 40.6504 25.5733 40.6504L21.0702 40.652Z" fill="#f7761f"/>
<path d="M21.0564 42.2457C20.5812 42.2457 20.197 41.8895 20.197 41.4489V27.1035C20.197 26.6628 20.5812 26.3066 21.0564 26.3066C21.5316 26.3066 21.9158 26.6628 21.9158 27.1035V41.4489C21.9158 41.8887 21.5316 42.2457 21.0564 42.2457Z" fill="#f7761f"/>
<path d="M21.0564 42.2456H17.6172C17.142 42.2456 16.7578 41.8894 16.7578 41.4487C16.7578 41.0081 17.142 40.6519 17.6172 40.6519H21.0564C21.5316 40.6519 21.9158 41.0081 21.9158 41.4487C21.9158 41.8894 21.5316 42.2456 21.0564 42.2456Z" fill="#f7761f"/>
<path d="M21.0564 27.9004H17.6172C17.142 27.9004 16.7578 27.5442 16.7578 27.1035C16.7578 26.6628 17.142 26.3066 17.6172 26.3066H21.0564C21.5316 26.3066 21.9158 26.6628 21.9158 27.1035C21.9158 27.5442 21.5316 27.9004 21.0564 27.9004Z" fill="#f7761f"/>
<path d="M17.6172 43.8395C17.142 43.8395 16.7578 43.4833 16.7578 43.0426V24.7129C16.7578 24.2722 17.142 23.916 17.6172 23.916C18.0924 23.916 18.4766 24.2722 18.4766 24.7129V43.0426C18.4766 43.4825 18.0924 43.8395 17.6172 43.8395Z" fill="#f7761f"/>
<path d="M17.6172 25.51H7.30469C6.82945 25.51 6.44531 25.1538 6.44531 24.7131C6.44531 24.2725 6.82945 23.9163 7.30469 23.9163H17.6172C18.0924 23.9163 18.4766 24.2725 18.4766 24.7131C18.4766 25.1538 18.0924 25.51 17.6172 25.51Z" fill="#f7761f"/>
<path d="M17.6172 43.8394H7.30469C6.82945 43.8394 6.44531 43.4832 6.44531 43.0425C6.44531 42.6018 6.82945 42.2456 7.30469 42.2456H17.6172C18.0924 42.2456 18.4766 42.6018 18.4766 43.0425C18.4766 43.4832 18.0924 43.8394 17.6172 43.8394Z" fill="#f7761f"/>
<path d="M43.3941 48.6109C42.9189 48.6109 42.5347 48.2547 42.5347 47.8141V43.8376C42.5347 43.397 42.9189 43.0408 43.3941 43.0408C43.8693 43.0408 44.2535 43.397 44.2535 43.8376V47.8141C44.2535 48.2547 43.8693 48.6109 43.3941 48.6109Z" fill="#f7761f"/>
<path d="M38.243 48.6109C37.7678 48.6109 37.3837 48.2547 37.3837 47.8141V43.8376C37.3837 43.397 37.7678 43.0408 38.243 43.0408C38.7183 43.0408 39.1024 43.397 39.1024 43.8376V47.8141C39.1024 48.2547 38.7183 48.6109 38.243 48.6109Z" fill="#f7761f"/>
</svg>
