<svg width="56" height="56" viewBox="0 0 56 56" fill="none" xmlns="http://www.w3.org/2000/svg">
<g clip-path="url(#clip0)">
<path d="M55.1285 34.9999C54.6446 34.9999 54.2535 34.6088 54.2535 34.1249V22.7551C54.2535 22.2713 54.6446 21.8801 55.1285 21.8801C55.6124 21.8801 56.0035 22.2713 56.0035 22.7551V34.1249C56.0035 34.6088 55.6124 34.9999 55.1285 34.9999Z" fill="#f7761f"/>
<path d="M55.1294 23.6301C54.8083 23.6301 54.4985 23.4534 54.3454 23.1463L49.9704 14.3945C49.7543 13.9623 49.9293 13.4364 50.3615 13.2203C50.7929 13.0059 51.3205 13.1791 51.5358 13.6114L55.9108 22.3631C56.1269 22.7954 55.9519 23.3213 55.5196 23.5374C55.3945 23.6004 55.2606 23.6301 55.1294 23.6301Z" fill="#f7761f"/>
<path d="M55.1285 32.3733H45.507C45.0231 32.3733 44.632 31.9822 44.632 31.4983C44.632 31.0144 45.0231 30.6233 45.507 30.6233H55.1285C55.6124 30.6233 56.0035 31.0144 56.0035 31.4983C56.0035 31.9822 55.6124 32.3733 55.1285 32.3733Z" fill="#f7761f"/>
<path d="M55.1285 35H50.0562C49.5723 35 49.1812 34.6089 49.1812 34.125C49.1812 33.6411 49.5723 33.25 50.0562 33.25H55.1285C55.6124 33.25 56.0035 33.6411 56.0035 34.125C56.0035 34.6089 55.6124 35 55.1285 35Z" fill="#f7761f"/>
<path d="M40.2588 32.3733H0.871521C0.387646 32.3733 -0.003479 31.9822 -0.003479 31.4983C-0.003479 31.0144 0.387646 30.6233 0.871521 30.6233H40.2588C40.7426 30.6233 41.1338 31.0144 41.1338 31.4983C41.1338 31.9822 40.7426 32.3733 40.2588 32.3733Z" fill="#f7761f"/>
<path d="M50.7535 14.8784H40.257C39.7731 14.8784 39.382 14.4873 39.382 14.0034C39.382 13.5195 39.7731 13.1284 40.257 13.1284H50.7535C51.2374 13.1284 51.6285 13.5195 51.6285 14.0034C51.6285 14.4873 51.2374 14.8784 50.7535 14.8784Z" fill="#f7761f"/>
<path d="M40.2588 36.7464C39.7758 36.7464 39.3838 36.3553 39.3838 35.8714L39.382 14.0034C39.382 13.5204 39.7731 13.1284 40.257 13.1284C40.74 13.1284 41.132 13.5195 41.132 14.0034L41.1338 35.8714C41.1338 36.3544 40.7426 36.7464 40.2588 36.7464Z" fill="#f7761f"/>
<path d="M50.7719 23.6301C50.7675 23.631 50.7605 23.631 50.7544 23.6301H43.7588C43.2749 23.6301 42.8838 23.239 42.8838 22.7551V17.5051C42.8838 17.0213 43.2749 16.6301 43.7588 16.6301H48.1285C48.4601 16.6301 48.7629 16.8174 48.9116 17.114L51.4675 22.2231C51.5813 22.371 51.6478 22.5556 51.6478 22.7551C51.6469 23.239 51.2558 23.6301 50.7719 23.6301ZM44.6338 21.8801H49.3395L47.5878 18.3801H44.6338V21.8801Z" fill="#f7761f"/>
<path d="M45.507 42.8713C42.1304 42.8713 39.382 40.123 39.382 36.7463C39.382 33.3697 42.1304 30.6213 45.507 30.6213C48.8836 30.6213 51.632 33.3697 51.632 36.7463C51.632 40.123 48.8836 42.8713 45.507 42.8713ZM45.507 32.3713C43.0946 32.3713 41.132 34.334 41.132 36.7463C41.132 39.1587 43.0946 41.1213 45.507 41.1213C47.9194 41.1213 49.882 39.1587 49.882 36.7463C49.882 34.334 47.9194 32.3713 45.507 32.3713Z" fill="#f7761f"/>
<path d="M21.0053 42.8713C17.6287 42.8713 14.8803 40.123 14.8803 36.7463C14.8803 33.3697 17.6287 30.6213 21.0053 30.6213C24.3819 30.6213 27.1303 33.3697 27.1303 36.7463C27.1303 40.123 24.3819 42.8713 21.0053 42.8713ZM21.0053 32.3713C18.5929 32.3713 16.6303 34.334 16.6303 36.7463C16.6303 39.1587 18.5929 41.1213 21.0053 41.1213C23.4177 41.1213 25.3803 39.1587 25.3803 36.7463C25.3803 34.334 23.4177 32.3713 21.0053 32.3713Z" fill="#f7761f"/>
<path d="M8.76053 42.8713C5.3839 42.8713 2.63553 40.123 2.63553 36.7463C2.63553 33.3697 5.3839 30.6213 8.76053 30.6213C12.1372 30.6213 14.8855 33.3697 14.8855 36.7463C14.8855 40.123 12.1372 42.8713 8.76053 42.8713ZM8.76053 32.3713C6.34815 32.3713 4.38553 34.334 4.38553 36.7463C4.38553 39.1587 6.34815 41.1213 8.76053 41.1213C11.1729 41.1213 13.1355 39.1587 13.1355 36.7463C13.1355 34.334 11.1729 32.3713 8.76053 32.3713Z" fill="#f7761f"/>
<path d="M8.76053 39.3713C7.31328 39.3713 6.13553 38.1936 6.13553 36.7463C6.13553 35.2991 7.31328 34.1213 8.76053 34.1213C10.2078 34.1213 11.3855 35.2991 11.3855 36.7463C11.3855 38.1936 10.2078 39.3713 8.76053 39.3713ZM8.76053 35.8713C8.27753 35.8713 7.88553 36.2633 7.88553 36.7463C7.88553 37.2293 8.27753 37.6213 8.76053 37.6213C9.24353 37.6213 9.63553 37.2293 9.63553 36.7463C9.63553 36.2633 9.24265 35.8713 8.76053 35.8713Z" fill="#f7761f"/>
<path d="M21.0053 39.3713C19.558 39.3713 18.3803 38.1936 18.3803 36.7463C18.3803 35.2991 19.558 34.1213 21.0053 34.1213C22.4525 34.1213 23.6303 35.2991 23.6303 36.7463C23.6303 38.1936 22.4525 39.3713 21.0053 39.3713ZM21.0053 35.8713C20.5223 35.8713 20.1303 36.2633 20.1303 36.7463C20.1303 37.2293 20.5223 37.6213 21.0053 37.6213C21.4883 37.6213 21.8803 37.2293 21.8803 36.7463C21.8803 36.2633 21.4883 35.8713 21.0053 35.8713Z" fill="#f7761f"/>
<path d="M45.5053 39.3713C44.058 39.3713 42.8803 38.1936 42.8803 36.7463C42.8803 35.2991 44.058 34.1213 45.5053 34.1213C46.9525 34.1213 48.1303 35.2991 48.1303 36.7463C48.1303 38.1936 46.9525 39.3713 45.5053 39.3713ZM45.5053 35.8713C45.0223 35.8713 44.6303 36.2633 44.6303 36.7463C44.6303 37.2293 45.0223 37.6213 45.5053 37.6213C45.9883 37.6213 46.3803 37.2293 46.3803 36.7463C46.3803 36.2633 45.9883 35.8713 45.5053 35.8713Z" fill="#f7761f"/>
<path d="M15.8288 36.7463H13.944C13.4602 36.7463 13.069 36.3552 13.069 35.8713C13.069 35.3875 13.4602 34.9963 13.944 34.9963H15.8288C16.3127 34.9963 16.7038 35.3875 16.7038 35.8713C16.7038 36.3552 16.3127 36.7463 15.8288 36.7463Z" fill="#f7761f"/>
<path d="M40.2588 36.7463H26.1818C25.6979 36.7463 25.3068 36.3552 25.3068 35.8713C25.3068 35.3875 25.6979 34.9963 26.1818 34.9963H40.2588C40.7426 34.9963 41.1338 35.3875 41.1338 35.8713C41.1338 36.3552 40.7426 36.7463 40.2588 36.7463Z" fill="#f7761f"/>
<path d="M3.58402 36.7463H1.74652C1.26265 36.7463 0.871521 36.3552 0.871521 35.8713C0.871521 35.3875 1.26265 34.9963 1.74652 34.9963H3.58402C4.0679 34.9963 4.45902 35.3875 4.45902 35.8713C4.45902 36.3552 4.06702 36.7463 3.58402 36.7463Z" fill="#f7761f"/>
<path d="M1.74652 36.7465C1.26265 36.7465 0.871521 36.3554 0.871521 35.8715V31.4983C0.871521 31.0144 1.26265 30.6233 1.74652 30.6233C2.2304 30.6233 2.62152 31.0144 2.62152 31.4983V35.8715C2.62152 36.3554 2.2304 36.7465 1.74652 36.7465Z" fill="#f7761f"/>
<path d="M44.6285 26.2534H43.7535C43.2697 26.2534 42.8785 25.8623 42.8785 25.3784C42.8785 24.8945 43.2697 24.5034 43.7535 24.5034H44.6285C45.1124 24.5034 45.5035 24.8945 45.5035 25.3784C45.5035 25.8623 45.1124 26.2534 44.6285 26.2534Z" fill="#f7761f"/>
<path d="M36.7448 24.4998C36.2609 24.4998 35.8698 24.1086 35.8698 23.6248C35.8698 22.6745 35.1925 21.8713 34.2589 21.7155C33.782 21.6359 33.4609 21.1853 33.5405 20.7084C33.6201 20.2324 34.069 19.9069 34.5476 19.99C36.3274 20.2875 37.6198 21.8161 37.6198 23.6248C37.6198 24.1086 37.2286 24.4998 36.7448 24.4998Z" fill="#f7761f"/>
<path d="M36.7448 26.25C36.2609 26.25 35.8698 25.8589 35.8698 25.375V23.625C35.8698 23.1411 36.2609 22.75 36.7448 22.75C37.2286 22.75 37.6198 23.1411 37.6198 23.625V25.375C37.6198 25.8589 37.2286 26.25 36.7448 26.25Z" fill="#f7761f"/>
<path d="M37.6268 28.875C37.1447 28.875 36.7527 28.4847 36.7518 28.0026L36.7413 26.25C36.2574 26.2483 35.868 25.8554 35.8698 25.3715C35.8715 24.8894 36.2627 24.5 36.7448 24.5H36.7483L37.6233 24.5035C38.1045 24.5052 38.4939 24.8946 38.4948 25.3759L38.5018 27.9974C38.5027 28.4812 38.1124 28.8741 37.6294 28.875C37.6285 28.875 37.6277 28.875 37.6268 28.875Z" fill="#f7761f"/>
<path d="M4.36975 28.8751C4.1545 28.8751 3.93838 28.7963 3.76863 28.6371L2.02563 26.993C1.67475 26.6614 1.65813 26.1075 1.98975 25.7557C2.32225 25.4057 2.87525 25.3873 3.227 25.7198L4.97 27.364C5.32088 27.6956 5.3375 28.2495 5.00588 28.6012C4.8335 28.7832 4.6025 28.8751 4.36975 28.8751Z" fill="#f7761f"/>
<path d="M2.62677 27.2309C2.14202 27.23 1.7509 26.838 1.75177 26.355L1.76052 20.1224C1.7614 19.6394 2.15252 19.2483 2.63552 19.2483H2.6364C3.12027 19.2492 3.5114 19.6412 3.51052 20.1242L3.50177 26.3568C3.5009 26.8398 3.10977 27.2309 2.62677 27.2309Z" fill="#f7761f"/>
<path d="M6.11978 20.9983H2.63553C2.15165 20.9983 1.76053 20.6072 1.76053 20.1233C1.76053 19.6394 2.15165 19.2483 2.63553 19.2483H6.11978C6.60365 19.2483 6.99478 19.6394 6.99478 20.1233C6.99478 20.6072 6.60365 20.9983 6.11978 20.9983Z" fill="#f7761f"/>
<path d="M27.9947 20.9982C27.7742 20.9982 27.5546 20.916 27.3849 20.7515C27.342 20.7104 23.0615 16.625 17.0389 16.625C11.018 16.625 6.77512 20.7069 6.73312 20.748C6.38837 21.0849 5.83449 21.0805 5.49674 20.7357C5.15812 20.3901 5.16249 19.838 5.50724 19.4994C5.69799 19.3104 10.283 14.875 17.0389 14.875C23.793 14.875 28.413 19.3086 28.6064 19.4976C28.9529 19.8354 28.9581 20.3884 28.6221 20.734C28.4506 20.9099 28.2222 20.9982 27.9947 20.9982Z" fill="#f7761f"/>
<path d="M34.4059 21.7279C34.3735 21.7279 34.3403 21.7262 34.307 21.7218L27.8968 20.9947C27.4164 20.9404 27.0717 20.5073 27.1259 20.0278C27.1802 19.5474 27.6115 19.1957 28.0928 19.2569L34.503 19.9841C34.9834 20.0383 35.3282 20.4714 35.2739 20.9509C35.224 21.3981 34.8452 21.7279 34.4059 21.7279Z" fill="#f7761f"/>
<path d="M17.4948 20.9999C17.0118 20.9999 16.6198 20.6088 16.6198 20.1249C16.6198 19.6419 17.0109 19.2499 17.4948 19.2499L27.9948 19.249C28.4778 19.249 28.8698 19.6401 28.8698 20.124C28.8698 20.607 28.4786 20.999 27.9948 20.999L17.4948 20.9999Z" fill="#f7761f"/>
<path d="M17.4948 21C17.4038 21 17.3093 20.9851 17.2183 20.9545L9.55677 18.3968C9.09827 18.2437 8.85064 17.7485 9.00377 17.29C9.15602 16.8323 9.65302 16.583 10.1106 16.737L17.7721 19.2946C18.2306 19.4477 18.4783 19.943 18.3251 20.4015C18.2026 20.7681 17.8614 21 17.4948 21Z" fill="#f7761f"/>
<path d="M4.67777 21.0026C4.32777 21.0026 3.9979 20.7918 3.86227 20.4453L2.83852 17.8176C2.66352 17.367 2.88577 16.8595 3.33552 16.6845C3.78615 16.5078 4.29277 16.7318 4.46865 17.1815L5.4924 19.8091C5.6674 20.2598 5.44515 20.7673 4.9954 20.9423C4.89127 20.9834 4.78365 21.0026 4.67777 21.0026Z" fill="#f7761f"/>
<path d="M10.4965 32.375C8.08325 32.375 6.11975 30.4124 6.11975 28C6.11975 25.5876 8.08325 23.625 10.4965 23.625C12.908 23.625 14.8698 25.5876 14.8698 28C14.8698 30.4124 12.908 32.375 10.4965 32.375ZM10.4965 25.375C9.04838 25.375 7.86975 26.5527 7.86975 28C7.86975 29.4472 9.04838 30.625 10.4965 30.625C11.9429 30.625 13.1198 29.4472 13.1198 28C13.1198 26.5527 11.9429 25.375 10.4965 25.375Z" fill="#f7761f"/>
<path d="M6.99563 28.875H4.36975C3.88588 28.875 3.49475 28.4839 3.49475 28C3.49475 27.5161 3.88588 27.125 4.36975 27.125H6.99563C7.4795 27.125 7.87063 27.5161 7.87063 28C7.87063 28.4839 7.4795 28.875 6.99563 28.875Z" fill="#f7761f"/>
<path d="M37.6268 28.875H33.2448C32.7609 28.875 32.3698 28.4839 32.3698 28C32.3698 27.5161 32.7609 27.125 33.2448 27.125H37.6268C38.1106 27.125 38.5018 27.5161 38.5018 28C38.5018 28.4839 38.1106 28.875 37.6268 28.875Z" fill="#f7761f"/>
<path d="M4.83788 18.375H2.62851C2.14463 18.375 1.75351 17.9839 1.75351 17.5C1.75351 17.0161 2.14463 16.625 2.62851 16.625H4.83788C5.32176 16.625 5.71288 17.0161 5.71288 17.5C5.71288 17.9839 5.32176 18.375 4.83788 18.375Z" fill="#f7761f"/>
<path d="M10.521 28.875C10.0371 28.875 9.64163 28.4839 9.64163 28C9.64163 27.5161 10.0284 27.125 10.5114 27.125H10.521C11.004 27.125 11.396 27.5161 11.396 28C11.396 28.4839 11.004 28.875 10.521 28.875Z" fill="#f7761f"/>
<path d="M29.7465 32.375C27.3333 32.375 25.3698 30.4124 25.3698 28C25.3698 25.5876 27.3333 23.625 29.7465 23.625C32.158 23.625 34.1198 25.5876 34.1198 28C34.1198 30.4124 32.158 32.375 29.7465 32.375ZM29.7465 25.375C28.2984 25.375 27.1198 26.5527 27.1198 28C27.1198 29.4472 28.2984 30.625 29.7465 30.625C31.1929 30.625 32.3698 29.4472 32.3698 28C32.3698 26.5527 31.1929 25.375 29.7465 25.375Z" fill="#f7761f"/>
<path d="M29.771 28.875C29.2872 28.875 28.8917 28.4839 28.8917 28C28.8917 27.5161 29.2784 27.125 29.7614 27.125H29.771C30.254 27.125 30.646 27.5161 30.646 28C30.646 28.4839 30.254 28.875 29.771 28.875Z" fill="#f7761f"/>
<path d="M26.2447 28.875H13.9948C13.5109 28.875 13.1198 28.4839 13.1198 28C13.1198 27.5161 13.5109 27.125 13.9948 27.125H26.2447C26.7286 27.125 27.1197 27.5161 27.1197 28C27.1197 28.4839 26.7286 28.875 26.2447 28.875Z" fill="#f7761f"/>
<path d="M17.4948 20.9999C17.0109 20.9999 16.6198 20.6088 16.6198 20.1249V15.7578C16.6198 15.2739 17.0109 14.8828 17.4948 14.8828C17.9786 14.8828 18.3698 15.2739 18.3698 15.7578V20.1249C18.3698 20.6088 17.9786 20.9999 17.4948 20.9999Z" fill="#f7761f"/>
</g>
<defs>
<clipPath id="clip0">
<rect width="56" height="56" fill="white"/>
</clipPath>
</defs>
</svg>
