<svg width="26" height="26" viewBox="0 0 26 26" fill="none" xmlns="http://www.w3.org/2000/svg">
<path d="M15.4759 0H10.5236C5.33655 0 1.11652 4.21904 1.11652 9.40508V13.8662C1.11652 17.7283 3.4897 21.1992 7.05813 22.6128V25.5049C7.05813 25.7009 7.17349 25.8782 7.35273 25.9574C7.4171 25.9861 7.48543 26 7.55326 26C7.67358 26 7.79291 25.9559 7.8855 25.8718L10.7568 23.2713H15.4759C20.6629 23.2713 24.883 19.0523 24.883 13.8662V9.40508C24.883 4.21904 20.6629 0 15.4759 0ZM23.8927 13.8662C23.8927 18.5061 20.1173 22.281 15.4759 22.281H10.5657C10.4429 22.281 10.3245 22.3266 10.2334 22.4093L8.0484 24.3883V22.2697C8.0484 22.0597 7.9162 21.8726 7.71814 21.8032C4.36212 20.6164 2.10678 17.4267 2.10678 13.8662V9.40508C2.10678 4.76517 5.88268 0.990269 10.5236 0.990269H15.4759C20.1173 0.990269 23.8927 4.76517 23.8927 9.40508V13.8662V13.8662Z" fill="white"/>
<path d="M19.5434 15.0981L16.5003 13.1216C16.1676 12.9052 15.7715 12.8319 15.3838 12.9121C14.9956 12.9938 14.6619 13.2231 14.4455 13.5573L14.3024 13.7771C12.9854 13.3419 11.5331 12.7859 10.6637 10.2691L11.0237 9.95616C11.6416 9.41894 11.7064 8.47918 11.1692 7.86026L8.78861 5.12167C8.60938 4.9152 8.29645 4.89391 8.08998 5.07266L6.59517 6.37189C5.28405 7.51169 5.89654 9.19762 6.09805 9.75167C6.10697 9.77643 6.11786 9.8002 6.13073 9.82347C6.18272 9.91655 7.42402 12.1318 9.42882 14.1737C11.4415 16.2241 15.0753 18.1175 15.1867 18.1724C15.6017 18.4418 16.0686 18.571 16.5305 18.571C17.3416 18.571 18.1367 18.1734 18.6111 17.4446L19.6895 15.7839C19.838 15.5537 19.7727 15.2472 19.5434 15.0981ZM17.7803 16.9049C17.3341 17.5921 16.4122 17.7872 15.6843 17.3178C15.6482 17.299 12.0382 15.419 10.1354 13.4805C8.35686 11.6688 7.17596 9.65611 7.01504 9.37537C6.6229 8.27568 6.69222 7.59982 7.24479 7.11954L8.36626 6.14512L10.4221 8.50988C10.6048 8.71981 10.5835 9.0268 10.3745 9.20851L9.767 9.73632C9.61895 9.86506 9.56053 10.0686 9.61846 10.2557C10.6543 13.6216 12.6685 14.2826 14.139 14.7654L14.3534 14.8362C14.5678 14.9085 14.8025 14.8258 14.9253 14.6367L15.2764 14.096C15.3486 13.9841 15.4596 13.9083 15.5883 13.8811C15.7175 13.8534 15.8492 13.8791 15.9611 13.9519L18.5893 15.6586L17.7803 16.9049Z" fill="white"/>
<path d="M14.1301 8.04445C13.8667 7.96869 13.5929 8.12169 13.5181 8.3851C13.4434 8.64801 13.5959 8.92182 13.8588 8.99659C14.5966 9.20653 15.1843 9.79524 15.3922 10.5335C15.4536 10.7513 15.6522 10.8944 15.8686 10.8944C15.9131 10.8944 15.9582 10.8885 16.0032 10.8761C16.2661 10.8018 16.4196 10.5285 16.3454 10.2651C16.0448 9.1986 15.1957 8.34747 14.1301 8.04445Z" fill="white"/>
<path d="M17.8981 11.0014C17.9427 11.0014 17.9877 10.9954 18.0328 10.9831C18.2962 10.9088 18.4492 10.635 18.3749 10.3721C17.7907 8.30093 16.1424 6.64916 14.0727 6.05995C13.8098 5.98419 13.536 6.13818 13.4612 6.4011C13.3864 6.66401 13.5389 6.93782 13.8019 7.01259C15.5432 7.50772 16.9301 8.89855 17.4218 10.6409C17.4837 10.8588 17.6817 11.0014 17.8981 11.0014Z" fill="white"/>
<path d="M13.8593 3.75411C13.5959 3.67835 13.3221 3.83135 13.2473 4.09525C13.1725 4.35817 13.325 4.63198 13.588 4.70675C16.5385 5.546 18.8889 7.90185 19.7217 10.8543C19.7831 11.0722 19.9816 11.2153 20.198 11.2153C20.2426 11.2153 20.2876 11.2093 20.3327 11.197C20.5956 11.1227 20.7491 10.8489 20.6748 10.586C19.7494 7.30472 17.1381 4.68744 13.8593 3.75411Z" fill="white"/>
</svg>