<svg width="26" height="16" viewBox="0 0 26 16" fill="none" xmlns="http://www.w3.org/2000/svg">
<path d="M24.8447 12.0552C24.2792 11.376 23.6403 10.7695 23.0223 10.1829C22.8052 9.97676 22.5805 9.76357 22.3642 9.55191C22.3641 9.55186 22.3641 9.55181 22.364 9.55176C22.073 9.26731 21.9306 9.06542 21.9157 8.91631C21.9011 8.76973 22.001 8.55227 22.2309 8.23083C22.5747 7.74734 22.9411 7.26304 23.2955 6.79473C23.6106 6.37842 23.9363 5.94792 24.2485 5.51497L24.3185 5.41776C24.9277 4.57284 25.5575 3.69916 25.895 2.63447C25.9913 2.32922 26.0914 1.87749 25.85 1.48093C25.6085 1.08427 25.1608 0.966709 24.8452 0.912865C24.6911 0.8864 24.5448 0.884212 24.4087 0.884212L20.4576 0.8807C19.7745 0.8693 19.3006 1.19379 19.0424 1.84543C18.8357 2.36586 18.5916 2.96899 18.3088 3.54113C17.7677 4.64567 17.0802 5.91784 16.0836 6.97779L16.0394 7.02502C15.9715 7.09759 15.8607 7.21627 15.8037 7.2435C15.6958 7.17551 15.5712 6.78663 15.5769 6.58291C15.577 6.57787 15.5771 6.57288 15.5771 6.5679L15.5736 1.99246C15.5736 1.9692 15.572 1.94594 15.5689 1.92289C15.4803 1.27013 15.3075 0.615751 14.2766 0.411873C14.2436 0.405308 14.21 0.402051 14.1763 0.402051H10.0664C9.29311 0.402051 8.88412 0.756928 8.55622 1.14168C8.46131 1.25385 8.20913 1.55167 8.33761 1.91576C8.46761 2.28418 8.85497 2.35772 8.98213 2.38184C9.43002 2.46704 9.66163 2.72074 9.73333 3.20575C9.87506 4.14814 9.89243 5.15628 9.78808 6.37684C9.75898 6.70454 9.70485 6.95362 9.6175 7.16075C9.59333 7.21811 9.5721 7.25363 9.55728 7.27455C9.53361 7.26498 9.49679 7.24666 9.44581 7.21169C9.13107 6.99586 8.89387 6.66032 8.66449 6.33593C7.74829 5.03953 6.97763 3.6077 6.30818 1.958C6.03249 1.28199 5.51422 0.904416 4.84979 0.894645C3.58392 0.873524 2.41315 0.874033 1.27179 0.896273C0.733459 0.905638 0.355951 1.07547 0.149576 1.40113C-0.0570535 1.72741 -0.0494871 2.14341 0.172123 2.63778C1.7563 6.16823 3.19473 8.7365 4.83598 10.9653C5.99161 12.5344 7.15491 13.6237 8.49691 14.3932C9.90691 15.2016 11.4971 15.5978 13.3419 15.5977C13.5516 15.5977 13.7651 15.5926 13.9813 15.5823C15.1195 15.5303 15.5826 15.0766 15.6331 13.9657C15.6614 13.3785 15.7266 12.9029 15.9529 12.4896C16.0162 12.3739 16.0876 12.2964 16.1438 12.2822C16.2036 12.2672 16.3097 12.3039 16.4277 12.3807C16.6434 12.5211 16.8291 12.7114 16.9818 12.8785C17.1365 13.0483 17.2929 13.2237 17.4443 13.3934C17.7664 13.7546 18.0995 14.1281 18.4485 14.4843C19.2378 15.2907 20.1477 15.6604 21.154 15.583L24.7699 15.5847C24.77 15.5847 24.77 15.5847 24.7701 15.5847C24.7816 15.5847 24.793 15.5843 24.8045 15.5835C25.2216 15.5557 25.5822 15.3243 25.7939 14.9485C26.0489 14.496 26.0451 13.9228 25.7834 13.4146C25.5104 12.8863 25.1562 12.4315 24.8447 12.0552ZM24.892 14.4381C24.8422 14.5266 24.7807 14.5427 24.7489 14.5466L21.1338 14.5449C21.1337 14.5449 21.1336 14.5449 21.1334 14.5449C21.1192 14.5449 21.1049 14.5455 21.0907 14.5467C20.3785 14.6061 19.7732 14.3552 19.1878 13.7573C18.8557 13.4182 18.5308 13.054 18.2166 12.7017C18.0635 12.53 17.9052 12.3525 17.7462 12.178C17.5489 11.9621 17.3051 11.714 16.9919 11.5101C16.5229 11.205 16.1342 11.2142 15.8908 11.2757C15.6499 11.3365 15.3076 11.5101 15.0448 11.9907C14.7043 12.6126 14.6292 13.2834 14.5986 13.9172C14.581 14.3048 14.5156 14.4072 14.4882 14.4332C14.4524 14.4673 14.3328 14.5273 13.9336 14.5455C12.0153 14.6359 10.4054 14.2916 9.01133 13.4923C7.79857 12.7968 6.73663 11.798 5.66946 10.349C4.07365 8.18202 2.66955 5.67259 1.11691 2.21237C1.06064 2.08702 1.04328 2.0088 1.03825 1.96691C1.07786 1.95388 1.15525 1.93673 1.29094 1.93424C2.42072 1.9123 3.57925 1.91169 4.8337 1.93266C5.00544 1.9352 5.201 1.98686 5.34908 2.34998C6.04854 4.07368 6.85652 5.57375 7.81934 6.93606C8.07497 7.29765 8.39316 7.74775 8.86081 8.06843C9.28915 8.36239 9.63675 8.34834 9.85298 8.28482C10.0693 8.22126 10.3695 8.04466 10.5717 7.56484C10.7022 7.25556 10.7811 6.9073 10.8201 6.46728C10.9317 5.16172 10.9119 4.07627 10.7579 3.05246C10.6494 2.31894 10.2715 1.78904 9.67615 1.51844C9.78188 1.46327 9.90101 1.44027 10.0665 1.44027H14.1227C14.3509 1.49157 14.3961 1.55183 14.4116 1.57244C14.4773 1.66003 14.5149 1.86721 14.5379 2.0291L14.5413 6.56235C14.5322 6.99693 14.7429 7.96074 15.4605 8.22502C15.4663 8.22721 15.4723 8.22925 15.4782 8.23118C16.1315 8.44514 16.5636 7.98298 16.7955 7.73467L16.8369 7.6906C17.9285 6.52947 18.6635 5.17277 19.2378 4.00044C19.5371 3.39507 19.7906 2.76888 20.005 2.22911C20.1122 1.95841 20.2098 1.91383 20.4427 1.91877C20.4459 1.91887 20.4491 1.91887 20.4523 1.91887L24.4084 1.92238C24.5004 1.92238 24.5965 1.92345 24.671 1.93622C24.8595 1.96839 24.9371 2.00757 24.9627 2.02381C24.9653 2.05389 24.9647 2.1404 24.9078 2.32097C24.6208 3.22631 24.0662 3.99551 23.4791 4.8099L23.409 4.90726C23.104 5.33028 22.7819 5.7559 22.4704 6.16757C22.1114 6.64195 21.7403 7.1324 21.3884 7.62739C20.6361 8.6793 20.7023 9.37735 21.641 10.295C21.8629 10.5121 22.0903 10.728 22.3103 10.9368C22.9339 11.5288 23.5231 12.088 24.0488 12.7193C24.324 13.0519 24.636 13.4512 24.8634 13.8914C24.9821 14.1217 24.953 14.3299 24.892 14.4381Z" fill="#FA6900"/>
</svg>
