<svg width="128" height="128" viewBox="0 0 128 128" fill="none" xmlns="http://www.w3.org/2000/svg">
<g clip-path="url(#clip0)">
<path d="M126.008 80C124.902 80 124.008 79.106 124.008 78V52.012C124.008 50.906 124.902 50.012 126.008 50.012C127.114 50.012 128.008 50.906 128.008 52.012V78C128.008 79.106 127.114 80 126.008 80Z" fill="white"/>
<path d="M126.01 54.0122C125.276 54.0122 124.568 53.6082 124.218 52.9062L114.218 32.9022C113.724 31.9142 114.124 30.7122 115.112 30.2182C116.098 29.7282 117.304 30.1242 117.796 31.1122L127.796 51.1162C128.29 52.1042 127.89 53.3062 126.902 53.8002C126.616 53.9442 126.31 54.0122 126.01 54.0122Z" fill="white"/>
<path d="M126.008 73.9961H104.016C102.91 73.9961 102.016 73.1021 102.016 71.9961C102.016 70.8901 102.91 69.9961 104.016 69.9961H126.008C127.114 69.9961 128.008 70.8901 128.008 71.9961C128.008 73.1021 127.114 73.9961 126.008 73.9961Z" fill="white"/>
<path d="M126.008 80H114.414C113.308 80 112.414 79.106 112.414 78C112.414 76.894 113.308 76 114.414 76H126.008C127.114 76 128.008 76.894 128.008 78C128.008 79.106 127.114 80 126.008 80Z" fill="white"/>
<path d="M92.0199 73.9961H1.99194C0.885943 73.9961 -0.00805664 73.1021 -0.00805664 71.9961C-0.00805664 70.8901 0.885943 69.9961 1.99194 69.9961H92.0199C93.1259 69.9961 94.0199 70.8901 94.0199 71.9961C94.0199 73.1021 93.1259 73.9961 92.0199 73.9961Z" fill="white"/>
<path d="M116.008 34.0081H92.0161C90.9101 34.0081 90.0161 33.1141 90.0161 32.0081C90.0161 30.9021 90.9101 30.0081 92.0161 30.0081H116.008C117.114 30.0081 118.008 30.9021 118.008 32.0081C118.008 33.1141 117.114 34.0081 116.008 34.0081Z" fill="white"/>
<path d="M92.0201 83.9921C90.9161 83.9921 90.0201 83.098 90.0201 81.9921L90.0161 32.0081C90.0161 30.9041 90.9101 30.0081 92.0161 30.0081C93.1201 30.0081 94.0161 30.9021 94.0161 32.0081L94.0201 81.9921C94.0201 83.0961 93.126 83.9921 92.0201 83.9921Z" fill="white"/>
<path d="M116.05 54.012C116.04 54.014 116.024 54.014 116.01 54.012H100.02C98.9138 54.012 98.0198 53.118 98.0198 52.012V40.012C98.0198 38.906 98.9138 38.012 100.02 38.012H110.008C110.766 38.012 111.458 38.44 111.798 39.118L117.64 50.796C117.9 51.134 118.052 51.556 118.052 52.012C118.05 53.118 117.156 54.012 116.05 54.012ZM102.02 50.012H112.776L108.772 42.012H102.02V50.012Z" fill="white"/>
<path d="M104.016 97.9919C96.2981 97.9919 90.0161 91.7099 90.0161 83.9919C90.0161 76.2739 96.2981 69.9919 104.016 69.9919C111.734 69.9919 118.016 76.2739 118.016 83.9919C118.016 91.7099 111.734 97.9919 104.016 97.9919ZM104.016 73.9919C98.5021 73.9919 94.0161 78.4779 94.0161 83.9919C94.0161 89.5059 98.5021 93.9919 104.016 93.9919C109.53 93.9919 114.016 89.5059 114.016 83.9919C114.016 78.4779 109.53 73.9919 104.016 73.9919Z" fill="white"/>
<path d="M48.0118 97.9919C40.2938 97.9919 34.0118 91.7099 34.0118 83.9919C34.0118 76.2739 40.2938 69.9919 48.0118 69.9919C55.7298 69.9919 62.0118 76.2739 62.0118 83.9919C62.0118 91.7099 55.7298 97.9919 48.0118 97.9919ZM48.0118 73.9919C42.4978 73.9919 38.0118 78.4779 38.0118 83.9919C38.0118 89.5059 42.4978 93.9919 48.0118 93.9919C53.5258 93.9919 58.0118 89.5059 58.0118 83.9919C58.0118 78.4779 53.5258 73.9919 48.0118 73.9919Z" fill="white"/>
<path d="M20.024 97.9919C12.306 97.9919 6.02405 91.7099 6.02405 83.9919C6.02405 76.2739 12.306 69.9919 20.024 69.9919C27.742 69.9919 34.024 76.2739 34.024 83.9919C34.024 91.7099 27.742 97.9919 20.024 97.9919ZM20.024 73.9919C14.51 73.9919 10.024 78.4779 10.024 83.9919C10.024 89.5059 14.51 93.9919 20.024 93.9919C25.538 93.9919 30.024 89.5059 30.024 83.9919C30.024 78.4779 25.538 73.9919 20.024 73.9919Z" fill="white"/>
<path d="M20.024 89.9919C16.716 89.9919 14.024 87.2999 14.024 83.9919C14.024 80.6839 16.716 77.9919 20.024 77.9919C23.332 77.9919 26.024 80.6839 26.024 83.9919C26.024 87.2999 23.332 89.9919 20.024 89.9919ZM20.024 81.9919C18.92 81.9919 18.024 82.8879 18.024 83.9919C18.024 85.0959 18.92 85.9919 20.024 85.9919C21.128 85.9919 22.024 85.0959 22.024 83.9919C22.024 82.8879 21.126 81.9919 20.024 81.9919Z" fill="white"/>
<path d="M48.0118 89.9919C44.7038 89.9919 42.0118 87.2999 42.0118 83.9919C42.0118 80.6839 44.7038 77.9919 48.0118 77.9919C51.3198 77.9919 54.0118 80.6839 54.0118 83.9919C54.0118 87.2999 51.3198 89.9919 48.0118 89.9919ZM48.0118 81.9919C46.9078 81.9919 46.0118 82.8879 46.0118 83.9919C46.0118 85.0959 46.9078 85.9919 48.0118 85.9919C49.1158 85.9919 50.0118 85.0959 50.0118 83.9919C50.0118 82.8879 49.1158 81.9919 48.0118 81.9919Z" fill="white"/>
<path d="M104.012 89.9919C100.704 89.9919 98.0118 87.2999 98.0118 83.9919C98.0118 80.6839 100.704 77.9919 104.012 77.9919C107.32 77.9919 110.012 80.6839 110.012 83.9919C110.012 87.2999 107.32 89.9919 104.012 89.9919ZM104.012 81.9919C102.908 81.9919 102.012 82.8879 102.012 83.9919C102.012 85.0959 102.908 85.9919 104.012 85.9919C105.116 85.9919 106.012 85.0959 106.012 83.9919C106.012 82.8879 105.116 81.9919 104.012 81.9919Z" fill="white"/>
<path d="M36.1799 83.9919H31.8719C30.7659 83.9919 29.8719 83.0979 29.8719 81.9919C29.8719 80.8859 30.7659 79.9919 31.8719 79.9919H36.1799C37.2859 79.9919 38.1799 80.8859 38.1799 81.9919C38.1799 83.0979 37.2859 83.9919 36.1799 83.9919Z" fill="white"/>
<path d="M92.02 83.9919H59.844C58.738 83.9919 57.844 83.0979 57.844 81.9919C57.844 80.8859 58.738 79.9919 59.844 79.9919H92.02C93.126 79.9919 94.02 80.8859 94.02 81.9919C94.02 83.0979 93.126 83.9919 92.02 83.9919Z" fill="white"/>
<path d="M8.19194 83.9919H3.99194C2.88594 83.9919 1.99194 83.0979 1.99194 81.9919C1.99194 80.8859 2.88594 79.9919 3.99194 79.9919H8.19194C9.29794 79.9919 10.1919 80.8859 10.1919 81.9919C10.1919 83.0979 9.29594 83.9919 8.19194 83.9919Z" fill="white"/>
<path d="M3.99194 83.9921C2.88594 83.9921 1.99194 83.0981 1.99194 81.9921V71.9961C1.99194 70.8901 2.88594 69.9961 3.99194 69.9961C5.09794 69.9961 5.99194 70.8901 5.99194 71.9961V81.9921C5.99194 83.0981 5.09794 83.9921 3.99194 83.9921Z" fill="white"/>
<path d="M102.008 60.0081H100.008C98.9021 60.0081 98.0081 59.1141 98.0081 58.0081C98.0081 56.9021 98.9021 56.0081 100.008 56.0081H102.008C103.114 56.0081 104.008 56.9021 104.008 58.0081C104.008 59.1141 103.114 60.0081 102.008 60.0081Z" fill="white"/>
<path d="M83.9881 56C82.8821 56 81.9881 55.106 81.9881 54C81.9881 51.828 80.4401 49.992 78.3061 49.636C77.2161 49.454 76.4821 48.424 76.6641 47.334C76.8461 46.246 77.8721 45.502 78.9661 45.692C83.0341 46.372 85.9881 49.866 85.9881 54C85.9881 55.106 85.0941 56 83.9881 56Z" fill="white"/>
<path d="M83.9877 60C82.8817 60 81.9877 59.106 81.9877 58V54C81.9877 52.894 82.8817 52 83.9877 52C85.0937 52 85.9877 52.894 85.9877 54V58C85.9877 59.106 85.0937 60 83.9877 60Z" fill="white"/>
<path d="M86.0041 66C84.9021 66 84.0061 65.108 84.0041 64.006L83.9801 60C82.8741 59.996 81.9841 59.098 81.9881 57.992C81.9921 56.89 82.8861 56 83.9881 56H83.9961L85.9961 56.008C87.0961 56.012 87.9861 56.902 87.9881 58.002L88.0041 63.994C88.0061 65.1 87.1141 65.998 86.0101 66C86.0081 66 86.0061 66 86.0041 66Z" fill="white"/>
<path d="M9.9881 66.0001C9.4961 66.0001 9.0021 65.8201 8.6141 65.4561L4.6301 61.6981C3.8281 60.9401 3.7901 59.6741 4.5481 58.8701C5.3081 58.0701 6.5721 58.0281 7.3761 58.7881L11.3601 62.5461C12.1621 63.3041 12.2001 64.5701 11.4421 65.3741C11.0481 65.7901 10.5201 66.0001 9.9881 66.0001Z" fill="white"/>
<path d="M6.00373 62.2421C4.89573 62.2401 4.00173 61.3441 4.00373 60.2401L4.02373 45.9941C4.02573 44.8901 4.91973 43.9961 6.02373 43.9961H6.02573C7.13173 43.9981 8.02573 44.8941 8.02373 45.9981L8.00373 60.2441C8.00173 61.3481 7.10773 62.2421 6.00373 62.2421Z" fill="white"/>
<path d="M13.988 47.9961H6.02405C4.91805 47.9961 4.02405 47.1021 4.02405 45.9961C4.02405 44.8901 4.91805 43.9961 6.02405 43.9961H13.988C15.094 43.9961 15.988 44.8901 15.988 45.9961C15.988 47.1021 15.094 47.9961 13.988 47.9961Z" fill="white"/>
<path d="M63.988 47.996C63.484 47.996 62.982 47.808 62.594 47.432C62.496 47.338 52.712 38 38.946 38C25.184 38 15.4861 47.33 15.3901 47.424C14.6021 48.194 13.3361 48.184 12.5641 47.396C11.7901 46.606 11.8001 45.344 12.5881 44.57C13.0241 44.138 23.504 34 38.946 34C54.384 34 64.944 44.134 65.386 44.566C66.178 45.338 66.19 46.602 65.422 47.392C65.03 47.794 64.508 47.996 63.988 47.996Z" fill="white"/>
<path d="M78.6421 49.6641C78.5681 49.6641 78.4921 49.6601 78.4161 49.6501L63.7641 47.9881C62.6661 47.8641 61.8781 46.8741 62.0021 45.7781C62.1261 44.6801 63.1121 43.8761 64.2121 44.0161L78.8641 45.6781C79.9621 45.8021 80.7501 46.7921 80.6261 47.8881C80.5121 48.9101 79.6461 49.6641 78.6421 49.6641Z" fill="white"/>
<path d="M39.9882 48C38.8842 48 37.9882 47.106 37.9882 46C37.9882 44.896 38.8822 44 39.9882 44L63.9882 43.998C65.0922 43.998 65.9882 44.892 65.9882 45.998C65.9882 47.102 65.0942 47.998 63.9882 47.998L39.9882 48Z" fill="white"/>
<path d="M39.988 48C39.78 48 39.564 47.966 39.356 47.896L21.844 42.05C20.796 41.7 20.23 40.568 20.58 39.52C20.928 38.474 22.064 37.904 23.11 38.256L40.622 44.102C41.67 44.452 42.236 45.584 41.886 46.632C41.606 47.47 40.826 48 39.988 48Z" fill="white"/>
<path d="M10.6919 48.0061C9.89195 48.0061 9.13795 47.5241 8.82795 46.7321L6.48795 40.7261C6.08795 39.6961 6.59595 38.5361 7.62395 38.1361C8.65395 37.7321 9.81195 38.2441 10.2139 39.2721L12.5539 45.2781C12.9539 46.3081 12.4459 47.4681 11.4179 47.8681C11.1799 47.9621 10.9339 48.0061 10.6919 48.0061Z" fill="white"/>
<path d="M23.9922 74C18.4762 74 13.9882 69.514 13.9882 64C13.9882 58.486 18.4762 54 23.9922 54C29.5042 54 33.9882 58.486 33.9882 64C33.9882 69.514 29.5042 74 23.9922 74ZM23.9922 58C20.6822 58 17.9882 60.692 17.9882 64C17.9882 67.308 20.6822 70 23.9922 70C27.2982 70 29.9882 67.308 29.9882 64C29.9882 60.692 27.2982 58 23.9922 58Z" fill="white"/>
<path d="M15.9902 66H9.98816C8.88216 66 7.98816 65.106 7.98816 64C7.98816 62.894 8.88216 62 9.98816 62H15.9902C17.0962 62 17.9902 62.894 17.9902 64C17.9902 65.106 17.0962 66 15.9902 66Z" fill="white"/>
<path d="M86.0037 66H75.9877C74.8817 66 73.9877 65.106 73.9877 64C73.9877 62.894 74.8817 62 75.9877 62H86.0037C87.1097 62 88.0037 62.894 88.0037 64C88.0037 65.106 87.1097 66 86.0037 66Z" fill="white"/>
<path d="M11.058 42H6.008C4.902 42 4.008 41.106 4.008 40C4.008 38.894 4.902 38 6.008 38H11.058C12.164 38 13.058 38.894 13.058 40C13.058 41.106 12.164 42 11.058 42Z" fill="white"/>
<path d="M24.0478 66C22.9418 66 22.0378 65.106 22.0378 64C22.0378 62.894 22.9218 62 24.0258 62H24.0478C25.1518 62 26.0478 62.894 26.0478 64C26.0478 65.106 25.1518 66 24.0478 66Z" fill="white"/>
<path d="M67.9922 74C62.4762 74 57.9882 69.514 57.9882 64C57.9882 58.486 62.4762 54 67.9922 54C73.5042 54 77.9882 58.486 77.9882 64C77.9882 69.514 73.5042 74 67.9922 74ZM67.9922 58C64.6822 58 61.9882 60.692 61.9882 64C61.9882 67.308 64.6822 70 67.9922 70C71.2982 70 73.9882 67.308 73.9882 64C73.9882 60.692 71.2982 58 67.9922 58Z" fill="white"/>
<path d="M68.0478 66C66.9418 66 66.0378 65.106 66.0378 64C66.0378 62.894 66.9218 62 68.0258 62H68.0478C69.1518 62 70.0478 62.894 70.0478 64C70.0478 65.106 69.1518 66 68.0478 66Z" fill="white"/>
<path d="M59.9881 66H31.9882C30.8822 66 29.9882 65.106 29.9882 64C29.9882 62.894 30.8822 62 31.9882 62H59.9881C61.0941 62 61.9881 62.894 61.9881 64C61.9881 65.106 61.0941 66 59.9881 66Z" fill="white"/>
<path d="M39.9882 48.0001C38.8822 48.0001 37.9882 47.1061 37.9882 46.0001V36.0181C37.9882 34.9121 38.8822 34.0181 39.9882 34.0181C41.0942 34.0181 41.9882 34.9121 41.9882 36.0181V46.0001C41.9882 47.1061 41.0942 48.0001 39.9882 48.0001Z" fill="white"/>
</g>
<defs>
<clipPath id="clip0">
<rect width="128" height="128" fill="white"/>
</clipPath>
</defs>
</svg>




