<svg width="128" height="128" viewBox="0 0 128 128" fill="none" xmlns="http://www.w3.org/2000/svg">
<path d="M94.9987 42.004C85.0727 42.004 76.9987 33.93 76.9987 24.004C76.9987 22.898 77.8927 22.004 78.9987 22.004C80.1047 22.004 80.9987 22.898 80.9987 24.004C80.9987 31.722 87.2807 38.004 94.9987 38.004C102.717 38.004 108.999 31.722 108.999 24.004C108.999 22.898 109.893 22.004 110.999 22.004C112.105 22.004 112.999 22.898 112.999 24.004C112.999 33.93 104.925 42.004 94.9987 42.004Z" fill="white"/>
<path d="M94.9981 127.998C90.5901 127.998 87.0021 124.412 87.0021 120.004C87.0021 118.898 87.8961 118.004 89.0021 118.004C90.1081 118.004 91.0021 118.898 91.0021 120.004C91.0021 122.208 92.7941 123.998 94.9981 123.998C97.2001 123.998 98.9901 122.206 98.9901 120.004C98.9901 118.898 99.8841 118.004 100.99 118.004C102.096 118.004 102.99 118.898 102.99 120.004C102.99 124.412 99.4041 127.998 94.9981 127.998Z" fill="white"/>
<path d="M78.9961 26.002C77.8901 26.002 76.9961 25.108 76.9961 24.002V11.996C76.9961 10.89 77.8901 9.99597 78.9961 9.99597C80.1021 9.99597 80.9961 10.89 80.9961 11.996V24.002C80.9961 25.108 80.1021 26.002 78.9961 26.002Z" fill="white"/>
<path d="M78.9961 13.9967C77.8901 13.9967 76.9961 13.1027 76.9961 11.9967C76.9961 5.38269 82.3741 0.00268555 88.9881 0.00268555C90.0941 0.00268555 90.9881 0.896685 90.9881 2.00269C90.9881 3.10869 90.0941 4.00268 88.9881 4.00268C84.5821 4.00268 80.9961 7.58869 80.9961 11.9967C80.9961 13.1027 80.1021 13.9967 78.9961 13.9967Z" fill="white"/>
<path d="M111 26.002C109.894 26.002 109 25.108 109 24.002V12.002C109 10.896 109.894 10.002 111 10.002C112.106 10.002 113 10.896 113 12.002V24.002C113 25.108 112.106 26.002 111 26.002Z" fill="white"/>
<path d="M111 14.0027C109.894 14.0027 109 13.1087 109 12.0027C109 7.59068 105.412 4.00268 101 4.00268C99.894 4.00268 99 3.10869 99 2.00269C99 0.896685 99.894 0.00268555 101 0.00268555C107.618 0.00268555 113 5.38469 113 12.0027C113 13.1087 112.106 14.0027 111 14.0027Z" fill="white"/>
<path d="M88.9961 22.0047C87.8901 22.0047 86.9961 21.1107 86.9961 20.0047V2.00269C86.9961 0.896686 87.8901 0.00268555 88.9961 0.00268555C90.1021 0.00268555 90.9961 0.896686 90.9961 2.00269V20.0047C90.9961 21.1107 90.1021 22.0047 88.9961 22.0047Z" fill="white"/>
<path d="M101 22.0047C99.894 22.0047 99 21.1107 99 20.0047V2.00269C99 0.896686 99.894 0.00268555 101 0.00268555C102.106 0.00268555 103 0.896686 103 2.00269V20.0047C103 21.1107 102.106 22.0047 101 22.0047Z" fill="white"/>
<path d="M101 22.004H88.9961C87.8901 22.004 86.9961 21.11 86.9961 20.004C86.9961 18.898 87.8901 18.004 88.9961 18.004H101C102.106 18.004 103 18.898 103 20.004C103 21.11 102.106 22.004 101 22.004Z" fill="white"/>
<path d="M100.99 64.004C99.8841 64.004 98.9901 63.11 98.9901 62.004V38.84C98.9901 37.734 99.8841 36.84 100.99 36.84C102.096 36.84 102.99 37.734 102.99 38.84V62.004C102.99 63.11 102.096 64.004 100.99 64.004Z" fill="white"/>
<path d="M89.0021 64.004C87.8961 64.004 87.0021 63.11 87.0021 62.004V38.84C87.0021 37.734 87.8961 36.84 89.0021 36.84C90.1081 36.84 91.0021 37.734 91.0021 38.84V62.004C91.0021 63.11 90.1081 64.004 89.0021 64.004Z" fill="white"/>
<path d="M103.046 64L95.042 63.996C93.936 63.996 93.042 63.1 93.042 61.996C93.042 60.89 93.938 59.996 95.042 59.996L103.046 60C104.152 60 105.046 60.896 105.046 62C105.046 63.106 104.15 64 103.046 64Z" fill="white"/>
<path d="M103.046 75.988C101.94 75.988 101.046 75.094 101.046 73.988C101.046 72.882 101.94 71.988 103.046 71.988C105.252 71.988 107.046 70.192 107.046 67.984C107.046 65.778 105.252 63.984 103.046 63.984C101.94 63.984 101.046 63.09 101.046 61.984C101.046 60.878 101.94 59.984 103.046 59.984C107.458 59.984 111.046 63.572 111.046 67.984C111.046 72.398 107.458 75.988 103.046 75.988Z" fill="white"/>
<path d="M103.046 87.984C101.94 87.984 101.046 87.09 101.046 85.984C101.046 84.878 101.94 83.984 103.046 83.984C105.252 83.984 107.046 82.19 107.046 79.984C107.046 77.776 105.252 75.98 103.046 75.98C101.94 75.98 101.046 75.086 101.046 73.98C101.046 72.874 101.94 71.98 103.046 71.98C107.458 71.98 111.046 75.57 111.046 79.984C111.046 84.396 107.458 87.984 103.046 87.984Z" fill="white"/>
<path d="M103.046 99.984C101.94 99.984 101.046 99.09 101.046 97.984C101.046 96.878 101.94 95.984 103.046 95.984C105.252 95.984 107.046 94.188 107.046 91.98C107.046 89.774 105.252 87.98 103.046 87.98C101.94 87.98 101.046 87.086 101.046 85.98C101.046 84.874 101.94 83.98 103.046 83.98C107.458 83.98 111.046 87.568 111.046 91.98C111.046 96.394 107.458 99.984 103.046 99.984Z" fill="white"/>
<path d="M103.046 111.996C101.94 111.996 101.046 111.102 101.046 109.996C101.046 108.89 101.94 107.996 103.046 107.996C105.252 107.996 107.046 106.202 107.046 103.996C107.046 101.788 105.252 99.9921 103.046 99.9921C101.94 99.9921 101.046 99.0981 101.046 97.9921C101.046 96.8861 101.94 95.9921 103.046 95.9921C107.458 95.9921 111.046 99.5821 111.046 103.996C111.046 108.408 107.458 111.996 103.046 111.996Z" fill="white"/>
<path d="M95.0093 111.996C90.5973 111.996 87.0093 108.408 87.0093 103.996C87.0093 99.5821 90.5973 95.9921 95.0093 95.9921C96.1153 95.9921 97.0093 96.8861 97.0093 97.9921C97.0093 99.0981 96.1153 99.9921 95.0093 99.9921C92.8033 99.9921 91.0093 101.788 91.0093 103.996C91.0093 106.202 92.8033 107.996 95.0093 107.996C96.1153 107.996 97.0093 108.89 97.0093 109.996C97.0093 111.102 96.1153 111.996 95.0093 111.996Z" fill="white"/>
<path d="M95.0093 100C90.5973 100 87.0093 96.41 87.0093 91.996C87.0093 87.584 90.5973 83.996 95.0093 83.996C96.1153 83.996 97.0093 84.89 97.0093 85.996C97.0093 87.102 96.1153 87.996 95.0093 87.996C92.8033 87.996 91.0093 89.79 91.0093 91.996C91.0093 94.204 92.8033 96 95.0093 96C96.1153 96 97.0093 96.894 97.0093 98C97.0093 99.106 96.1153 100 95.0093 100Z" fill="white"/>
<path d="M95.008 88.004C90.594 88.004 87.004 84.416 87.004 80.004C87.004 78.898 87.898 78.004 89.004 78.004C90.11 78.004 91.004 78.898 91.004 80.004C91.004 82.21 92.8 84.004 95.008 84.004C97.214 84.004 99.008 82.21 99.008 80.004C99.008 78.898 99.902 78.004 101.008 78.004C102.114 78.004 103.008 78.898 103.008 80.004C103.008 84.416 99.42 88.004 95.008 88.004Z" fill="white"/>
<path d="M103.042 88.004L95.0399 87.996C93.9339 87.994 93.0399 87.1 93.0419 85.994C93.0439 84.89 93.9379 83.996 95.0419 83.996H95.0439L103.044 84.004C104.15 84.006 105.044 84.9 105.042 86.006C105.042 87.11 104.146 88.004 103.042 88.004Z" fill="white"/>
<path d="M103.042 100L95.0399 99.996C93.9359 99.996 93.0419 99.1 93.0419 97.996C93.0419 96.89 93.9379 95.996 95.0419 95.996H95.0439L103.044 96C104.148 96 105.042 96.896 105.042 98C105.042 99.106 104.146 100 103.042 100Z" fill="white"/>
<path d="M95.0419 63.996H79.0199C77.9139 63.996 77.0199 63.102 77.0199 61.996C77.0199 60.89 77.9139 59.996 79.0199 59.996H95.0439C96.1499 59.996 97.0439 60.89 97.0439 61.996C97.0439 63.102 96.1479 63.996 95.0419 63.996Z" fill="white"/>
<path d="M103.046 112.024H79.0199C77.9139 112.024 77.0199 111.13 77.0199 110.024C77.0199 108.918 77.9139 108.024 79.0199 108.024H103.048C104.154 108.024 105.048 108.918 105.048 110.024C105.048 111.13 104.152 112.024 103.046 112.024Z" fill="white"/>
<path d="M79.02 112.024C67.97 112.024 58.094 105.02 54.448 94.5939C54.084 93.5519 54.634 92.4099 55.676 92.0459C56.72 91.6819 57.86 92.2339 58.224 93.2739C61.308 102.096 69.666 108.024 79.018 108.024C80.124 108.024 81.018 108.918 81.018 110.024C81.018 111.13 80.126 112.024 79.02 112.024Z" fill="white"/>
<path d="M56.3579 80.024C56.1379 80.024 55.9119 79.986 55.6939 79.91C54.6519 79.542 54.1039 78.4 54.4719 77.36C58.1299 66.968 67.9979 59.984 79.0219 59.984C80.1279 59.984 81.0219 60.878 81.0219 61.984C81.0219 63.09 80.1279 63.984 79.0219 63.984C69.6899 63.984 61.3399 69.892 58.2439 78.688C57.9559 79.51 57.1819 80.024 56.3579 80.024Z" fill="white"/>
<path d="M101.012 82.004C99.906 82.004 99.012 81.11 99.012 80.004V61.984C99.012 60.878 99.906 59.984 101.012 59.984C102.118 59.984 103.012 60.878 103.012 61.984V80.004C103.012 81.11 102.118 82.004 101.012 82.004Z" fill="white"/>
<path d="M89.0039 76H79.0199C77.9139 76 77.0199 75.106 77.0199 74C77.0199 72.894 77.9139 72 79.0199 72H89.0039C90.1099 72 91.0039 72.894 91.0039 74C91.0039 75.106 90.1099 76 89.0039 76Z" fill="white"/>
<path d="M103.046 76H101.04C99.934 76 99.04 75.106 99.04 74C99.04 72.894 99.934 72 101.04 72H103.048C104.154 72 105.048 72.894 105.048 74C105.048 75.106 104.152 76 103.046 76Z" fill="white"/>
<path d="M89.004 82.004C87.898 82.004 87.004 81.11 87.004 80.004V74C87.004 72.894 87.898 72 89.004 72C90.11 72 91.004 72.894 91.004 74V80.004C91.004 81.11 90.11 82.004 89.004 82.004Z" fill="white"/>
<path d="M59.484 74.024H49.034C47.928 74.024 47.034 73.13 47.034 72.024C47.034 70.918 47.928 70.024 49.034 70.024H59.484C60.59 70.024 61.484 70.918 61.484 72.024C61.484 73.13 60.59 74.024 59.484 74.024Z" fill="white"/>
<path d="M49.036 102.028C47.9319 102.028 47.0359 101.134 47.0359 100.028C47.0359 98.924 47.9299 98.028 49.036 98.028L59.516 98.024C60.62 98.024 61.516 98.918 61.516 100.024C61.516 101.128 60.622 102.024 59.516 102.024L49.036 102.028Z" fill="white"/>
<path d="M49.004 106.028C47.898 106.028 47.004 105.134 47.004 104.028V68.024C47.004 66.918 47.898 66.024 49.004 66.024C50.11 66.024 51.004 66.918 51.004 68.024V104.028C51.004 105.132 50.11 106.028 49.004 106.028Z" fill="white"/>
<path d="M49.004 106.028H41C39.894 106.028 39 105.134 39 104.028C39 102.922 39.894 102.028 41 102.028H49.004C50.11 102.028 51.004 102.922 51.004 104.028C51.004 105.134 50.11 106.028 49.004 106.028Z" fill="white"/>
<path d="M49.004 70.024H41C39.894 70.024 39 69.13 39 68.024C39 66.918 39.894 66.024 41 66.024H49.004C50.11 66.024 51.004 66.918 51.004 68.024C51.004 69.13 50.11 70.024 49.004 70.024Z" fill="white"/>
<path d="M41 110.028C39.894 110.028 39 109.134 39 108.028V62.0239C39 60.9179 39.894 60.0239 41 60.0239C42.106 60.0239 43 60.9179 43 62.0239V108.028C43 109.132 42.106 110.028 41 110.028Z" fill="white"/>
<path d="M41 64.0249H17C15.894 64.0249 15 63.1309 15 62.0249C15 60.9189 15.894 60.0249 17 60.0249H41C42.106 60.0249 43 60.9189 43 62.0249C43 63.1309 42.106 64.0249 41 64.0249Z" fill="white"/>
<path d="M41 110.028H17C15.894 110.028 15 109.134 15 108.028C15 106.922 15.894 106.028 17 106.028H41C42.106 106.028 43 106.922 43 108.028C43 109.134 42.106 110.028 41 110.028Z" fill="white"/>
<path d="M100.99 122.004C99.8841 122.004 98.9901 121.11 98.9901 120.004V110.024C98.9901 108.918 99.8841 108.024 100.99 108.024C102.096 108.024 102.99 108.918 102.99 110.024V120.004C102.99 121.11 102.096 122.004 100.99 122.004Z" fill="white"/>
<path d="M89.002 122.004C87.896 122.004 87.002 121.11 87.002 120.004V110.024C87.002 108.918 87.896 108.024 89.002 108.024C90.108 108.024 91.002 108.918 91.002 110.024V120.004C91.002 121.11 90.108 122.004 89.002 122.004Z" fill="white"/>
</svg>

