<svg width="128" height="128" viewBox="0 0 128 128" fill="none" xmlns="http://www.w3.org/2000/svg">
<g clip-path="url(#clip0)">
<path d="M95.0042 79.992H74.9922C73.8862 79.992 72.9922 79.098 72.9922 77.992V59.99C72.9922 58.884 73.8862 57.99 74.9922 57.99H95.0042C96.1102 57.99 97.0042 58.884 97.0042 59.99V77.992C97.0042 79.098 96.1102 79.992 95.0042 79.992ZM76.9922 75.992H93.0042V61.99H76.9922V75.992Z" fill="white"/>
<path d="M46.9922 124.028H28.9762C27.8702 124.028 26.9762 123.134 26.9762 122.028C26.9762 120.922 27.8702 120.028 28.9762 120.028H45.5922L61.1302 77.3101C61.4182 76.5181 62.1682 75.9941 63.0082 75.9941H67.0082V61.9921H53.0002V73.9981C53.0002 75.1041 52.1062 75.9981 51.0002 75.9981H33.0042C31.8982 75.9981 31.0042 75.1041 31.0042 73.9981C31.0042 72.8921 31.8982 71.9981 33.0042 71.9981H49.0002V59.9921C49.0002 58.8861 49.8942 57.9921 51.0002 57.9921H69.0082C70.1142 57.9921 71.0082 58.8861 71.0082 59.9921V77.9941C71.0082 79.1001 70.1142 79.9941 69.0082 79.9941H64.4082L48.8702 122.712C48.5842 123.502 47.8342 124.028 46.9922 124.028Z" fill="white"/>
<path d="M95.0042 77.994C93.8982 77.994 93.0042 77.1 93.0042 75.994C93.0042 72.686 95.6962 69.994 99.0042 69.994C100.11 69.994 101.004 70.888 101.004 71.994C101.004 73.1 100.11 73.994 99.0042 73.994C97.9002 73.994 97.0042 74.89 97.0042 75.994C97.0042 77.1 96.1102 77.994 95.0042 77.994Z" fill="white"/>
<path d="M99.0042 67.9921C95.6962 67.9921 93.0042 65.3001 93.0042 61.9921C93.0042 60.8861 93.8982 59.9921 95.0042 59.9921C96.1102 59.9921 97.0042 60.8861 97.0042 61.9921C97.0042 63.0961 97.9002 63.9921 99.0042 63.9921C100.11 63.9921 101.004 64.8861 101.004 65.9921C101.004 67.0981 100.11 67.9921 99.0042 67.9921Z" fill="white"/>
<path d="M103.004 73.994H99.0042C97.8982 73.994 97.0042 73.1 97.0042 71.994C97.0042 70.888 97.8982 69.994 99.0042 69.994H101.004V67.994H99.0042C97.8982 67.994 97.0042 67.1 97.0042 65.994C97.0042 64.888 97.8982 63.994 99.0042 63.994H103.004C104.11 63.994 105.004 64.888 105.004 65.994V71.994C105.004 73.1 104.11 73.994 103.004 73.994Z" fill="white"/>
<path d="M74.9922 99.9879C73.8862 99.9879 72.9922 99.0939 72.9922 97.9879V77.9919C72.9922 76.8859 73.8862 75.9919 74.9922 75.9919C76.0982 75.9919 76.9922 76.8859 76.9922 77.9919V97.9879C76.9922 99.0939 76.0982 99.9879 74.9922 99.9879Z" fill="white"/>
<path d="M80.9922 105.988C76.5802 105.988 72.9922 102.4 72.9922 97.988C72.9922 96.882 73.8862 95.988 74.9922 95.988C76.0982 95.988 76.9922 96.882 76.9922 97.988C76.9922 100.194 78.7862 101.988 80.9922 101.988C82.0982 101.988 82.9922 102.882 82.9922 103.988C82.9922 105.094 82.0982 105.988 80.9922 105.988Z" fill="white"/>
<path d="M75.0042 105.988C70.5922 105.988 67.0042 102.4 67.0042 97.988C67.0042 96.882 67.8982 95.988 69.0042 95.988C70.1102 95.988 71.0042 96.882 71.0042 97.988C71.0042 100.194 72.7982 101.988 75.0042 101.988C76.1102 101.988 77.0042 102.882 77.0042 103.988C77.0042 105.094 76.1102 105.988 75.0042 105.988Z" fill="white"/>
<path d="M80.9921 105.988H75.0041C73.8981 105.988 73.0042 105.094 73.0042 103.988C73.0042 102.882 73.8981 101.988 75.0041 101.988H80.9921C82.0981 101.988 82.9921 102.882 82.9921 103.988C82.9921 105.094 82.0981 105.988 80.9921 105.988Z" fill="white"/>
<path d="M69.0042 99.988C67.8982 99.988 67.0042 99.094 67.0042 97.988V59.99C67.0042 58.884 67.8982 57.99 69.0042 57.99C70.1102 57.99 71.0042 58.884 71.0042 59.99V97.988C71.0042 99.094 70.1102 99.988 69.0042 99.988Z" fill="white"/>
<path d="M74.9921 61.99H69.0041C67.8981 61.99 67.0042 61.096 67.0042 59.99C67.0042 58.884 67.8981 57.99 69.0041 57.99H74.9921C76.0981 57.99 76.9921 58.884 76.9921 59.99C76.9921 61.096 76.0981 61.99 74.9921 61.99Z" fill="white"/>
<path d="M51 70H41C39.894 70 39 69.106 39 68V59.99C39 58.884 39.894 57.99 41 57.99H51C52.106 57.99 53 58.884 53 59.99V68C53 69.106 52.106 70 51 70ZM43 66H49V61.99H43V66Z" fill="white"/>
<path d="M41 66H35C33.894 66 33 65.106 33 64C33 62.894 33.894 62 35 62H41C42.106 62 43 62.894 43 64C43 65.106 42.106 66 41 66Z" fill="white"/>
<path d="M35 70.002C33.894 70.002 33 69.108 33 68.002V59.998C33 58.892 33.894 57.998 35 57.998C36.106 57.998 37 58.892 37 59.998V68.002C37 69.108 36.106 70.002 35 70.002Z" fill="white"/>
<path d="M32.9922 78.012H26.9922C25.8862 78.012 24.9922 77.118 24.9922 76.012C24.9922 74.906 25.8862 74.012 26.9922 74.012H32.9922C34.0982 74.012 34.9922 74.906 34.9922 76.012C34.9922 77.118 34.0982 78.012 32.9922 78.012Z" fill="white"/>
<path d="M26.9922 84C25.8862 84 24.9922 83.106 24.9922 82V76.014C24.9922 74.908 25.8862 74.014 26.9922 74.014C28.0982 74.014 28.9922 74.908 28.9922 76.014V82C28.9922 83.106 28.0982 84 26.9922 84Z" fill="white"/>
<path d="M28.9761 124.028C28.7501 124.028 28.5181 123.988 28.2921 123.906C27.2541 123.53 26.7181 122.38 27.0961 121.344L44.5641 73.312C44.9401 72.272 46.0861 71.74 47.1261 72.116C48.1641 72.492 48.7001 73.642 48.3221 74.678L30.8541 122.71C30.5601 123.524 29.7921 124.028 28.9761 124.028Z" fill="white"/>
<path d="M33.0042 84C31.8982 84 31.0042 83.106 31.0042 82V73.996C31.0042 72.89 31.8982 71.996 33.0042 71.996C34.1102 71.996 35.0042 72.89 35.0042 73.996V82C35.0042 83.106 34.1102 84 33.0042 84Z" fill="white"/>
<path d="M43.5361 84H24.9961C23.8901 84 22.9961 83.106 22.9961 82C22.9961 80.894 23.8901 80 24.9961 80H43.5361C44.6421 80 45.5361 80.894 45.5361 82C45.5361 83.106 44.6401 84 43.5361 84Z" fill="white"/>
<path d="M65.0001 108H52.8201C51.7141 108 50.8201 107.106 50.8201 106C50.8201 104.894 51.7141 104 52.8201 104H65.0001C66.1061 104 67.0001 104.894 67.0001 106C67.0001 107.106 66.1061 108 65.0001 108Z" fill="white"/>
<path d="M89.0042 79.992C87.8982 79.992 87.0042 79.098 87.0042 77.992V59.99C87.0042 58.884 87.8982 57.99 89.0042 57.99C90.1102 57.99 91.0042 58.884 91.0042 59.99V77.992C91.0042 79.098 90.1102 79.992 89.0042 79.992Z" fill="white"/>
<path d="M77.5601 44.158C76.9281 44.158 76.3021 43.858 75.9161 43.298C75.2861 42.39 75.5121 41.144 76.4181 40.514C79.1341 38.63 79.8121 34.884 77.9301 32.162C77.3021 31.254 77.5281 30.008 78.4361 29.378C79.3441 28.748 80.5901 28.976 81.2201 29.884C84.3561 34.418 83.2261 40.66 78.7001 43.798C78.3521 44.042 77.9541 44.158 77.5601 44.158Z" fill="white"/>
<path d="M76.0482 52.51C75.4142 52.51 74.7902 52.21 74.4042 51.648C73.1842 49.892 72.7222 47.766 73.1042 45.664C73.4862 43.562 74.6622 41.734 76.4182 40.516C77.3262 39.882 78.5742 40.112 79.2022 41.02C79.8322 41.926 79.6062 43.172 78.6982 43.802C76.8862 45.06 76.4342 47.558 77.6902 49.372C78.3202 50.278 78.0942 51.524 77.1862 52.154C76.8402 52.394 76.4422 52.51 76.0482 52.51Z" fill="white"/>
<path d="M56.5782 56.98C53.4062 56.98 50.2862 55.48 48.3462 52.684C47.7162 51.776 47.9422 50.53 48.8482 49.9C49.7562 49.266 51.0062 49.498 51.6322 50.402C52.5482 51.72 53.9202 52.604 55.4962 52.89C57.0622 53.17 58.6642 52.83 59.9822 51.916C60.8902 51.282 62.1382 51.514 62.7662 52.418C63.3962 53.326 63.1702 54.572 62.2642 55.202C60.5282 56.404 58.5422 56.98 56.5782 56.98Z" fill="white"/>
<path d="M69.474 57.068C68.842 57.068 68.218 56.768 67.83 56.208C67.218 55.33 66.304 54.74 65.254 54.55C64.206 54.36 63.14 54.59 62.262 55.2C61.352 55.832 60.11 55.606 59.478 54.698C58.848 53.792 59.072 52.544 59.98 51.914C61.738 50.694 63.858 50.228 65.964 50.614C68.068 50.992 69.896 52.17 71.114 53.926C71.744 54.834 71.518 56.08 70.612 56.71C70.266 56.954 69.868 57.068 69.474 57.068Z" fill="white"/>
<path d="M49.9981 53.542C49.3701 53.542 48.7521 53.248 48.3621 52.696L32.1541 29.74C31.5181 28.838 31.7321 27.59 32.6341 26.95C33.5401 26.316 34.7841 26.53 35.4241 27.43L51.6321 50.388C52.2681 51.29 52.0541 52.538 51.1521 53.178C50.7981 53.424 50.3961 53.542 49.9981 53.542Z" fill="white"/>
<path d="M79.5723 33.036C78.9443 33.036 78.3263 32.742 77.9363 32.19L61.7283 9.23002C61.0923 8.32602 61.3063 7.08002 62.2083 6.44002C63.1163 5.80602 64.3583 6.02002 64.9983 6.92002L81.2063 29.88C81.8423 30.784 81.6283 32.03 80.7263 32.67C80.3743 32.916 79.9703 33.036 79.5723 33.036Z" fill="white"/>
<path d="M32.142 31.7141C31.51 31.7141 30.884 31.4141 30.498 30.8541L27.08 25.9261C26.778 25.4881 26.66 24.9521 26.754 24.4301C26.85 23.9061 27.146 23.4441 27.582 23.1421L60.442 0.352123C60.88 0.0501228 61.422 -0.0658772 61.938 0.0261228C62.462 0.122123 62.924 0.418123 63.228 0.856123L66.646 5.78612C67.274 6.69212 67.048 7.93812 66.142 8.56812L33.282 31.3581C32.934 31.6001 32.536 31.7141 32.142 31.7141ZM31.506 25.2901L32.644 26.9301L62.216 6.42412L61.078 4.78212L31.506 25.2901Z" fill="white"/>
<path d="M82.6161 61.9741C81.9821 61.9741 81.3581 61.6741 80.9721 61.1141L74.4061 51.6461C73.7761 50.7381 74.0021 49.4921 74.9081 48.8621C75.8161 48.2281 77.0641 48.4601 77.6921 49.3641L84.2581 58.8321C84.8881 59.7401 84.6621 60.9861 83.7561 61.6161C83.4061 61.8601 83.0081 61.9741 82.6161 61.9741Z" fill="white"/>
<path d="M72.8341 61.918C72.2001 61.918 71.5761 61.618 71.1881 61.056L67.8281 56.206C67.2001 55.298 67.4261 54.052 68.3341 53.422C69.2421 52.792 70.4861 53.02 71.1181 53.928L74.4781 58.778C75.1061 59.686 74.8801 60.932 73.9721 61.562C73.6241 61.802 73.2261 61.918 72.8341 61.918Z" fill="white"/>
<path d="M69.4741 57.068C68.8401 57.068 68.2161 56.768 67.8301 56.206C67.2001 55.3 67.4261 54.054 68.3341 53.424L74.9081 48.866C75.8121 48.232 77.0621 48.462 77.6901 49.37C78.3201 50.276 78.0941 51.522 77.1861 52.152L70.6121 56.71C70.2661 56.954 69.8681 57.068 69.4741 57.068Z" fill="white"/>
<path d="M41 128C39.894 128 39 127.106 39 126V122.028C39 120.922 39.894 120.028 41 120.028C42.106 120.028 43 120.922 43 122.028V126C43 127.106 42.106 128 41 128Z" fill="white"/>
<path d="M35 128C33.894 128 33 127.106 33 126V122.028C33 120.922 33.894 120.028 35 120.028C36.106 120.028 37 120.922 37 122.028V126C37 127.106 36.106 128 35 128Z" fill="white"/>
</g>
<defs>
<clipPath id="clip0">
<rect width="128" height="128" fill="white"/>
</clipPath>
</defs>
</svg>


