<svg width="128" height="128" viewBox="0 0 128 128" fill="none" xmlns="http://www.w3.org/2000/svg">
<path d="M107.996 112.006H44.0081C43.6141 112.006 43.2261 111.888 42.8981 111.67L18.8941 95.654C18.3381 95.282 18.0041 94.658 18.0041 93.99V52.006C18.0041 50.9 18.8981 50.006 20.0041 50.006H27.1161L40.5181 34.674C40.8961 34.24 41.4481 33.99 42.0241 33.99H87.9961C88.4641 33.99 88.9181 34.154 89.2781 34.454L100.72 44H107.996C109.102 44 109.996 44.894 109.996 46V110.006C109.996 111.112 109.102 112.006 107.996 112.006ZM44.6141 108.006H105.996V48H99.9961C99.5281 48 99.0741 47.836 98.7141 47.536L87.2701 37.992H42.9301L29.5281 53.324C29.1501 53.758 28.5981 54.008 28.0221 54.008H22.0021V92.92L44.6141 108.006Z" fill="white"/>
<path d="M52.0041 78C44.2861 78 38.0041 71.718 38.0041 64C38.0041 56.282 44.2861 50 52.0041 50C59.7221 50 66.0041 56.282 66.0041 64C66.0041 71.718 59.7221 78 52.0041 78ZM52.0041 54C46.4901 54 42.0041 58.486 42.0041 64C42.0041 69.514 46.4901 74 52.0041 74C57.5181 74 62.0041 69.514 62.0041 64C62.0041 58.486 57.5181 54 52.0041 54Z" fill="white"/>
<path d="M52.0041 72C47.5921 72 44.0041 68.412 44.0041 64C44.0041 59.588 47.5921 56 52.0041 56C56.4161 56 60.0041 59.588 60.0041 64C60.0041 68.412 56.4161 72 52.0041 72ZM52.0041 60C49.7981 60 48.0041 61.794 48.0041 64C48.0041 66.206 49.7981 68 52.0041 68C54.2101 68 56.0041 66.206 56.0041 64C56.0041 61.794 54.2081 60 52.0041 60Z" fill="white"/>
<path d="M84.0041 98C79.5921 98 76.0041 94.412 76.0041 90C76.0041 85.588 79.5921 82 84.0041 82C88.4161 82 92.0041 85.588 92.0041 90C92.0041 94.412 88.4161 98 84.0041 98ZM84.0041 86C81.7981 86 80.0041 87.794 80.0041 90C80.0041 92.206 81.7981 94 84.0041 94C86.2101 94 88.0041 92.206 88.0041 90C88.0041 87.794 86.2081 86 84.0041 86Z" fill="white"/>
<path d="M88.4721 87.9998C87.9301 87.9998 87.3921 87.7818 87.0001 87.3518L59.5861 57.4778C58.8381 56.6658 58.8921 55.3998 59.7081 54.6538C60.5181 53.9058 61.7881 53.9578 62.5321 54.7758L89.9461 84.6498C90.6941 85.4618 90.6401 86.7278 89.8241 87.4738C89.4421 87.8258 88.9581 87.9998 88.4721 87.9998Z" fill="white"/>
<path d="M80.9201 97.1479C80.5721 97.1479 80.2201 97.0579 79.9001 96.8659L44.3461 75.7179C43.3941 75.1539 43.0841 73.9259 43.6481 72.9779C44.2121 72.0259 45.4401 71.7119 46.3881 72.2799L81.9421 93.4279C82.8941 93.9919 83.2041 95.2199 82.6401 96.1679C82.2681 96.7979 81.6021 97.1479 80.9201 97.1479Z" fill="white"/>
<path d="M8.00816 55.9939C6.90216 55.9939 6.00816 55.0999 6.00816 53.9939C6.00816 49.5819 9.59615 45.9939 14.0082 45.9939C15.1142 45.9939 16.0082 46.8879 16.0082 47.9939C16.0082 49.0999 15.1142 49.9939 14.0082 49.9939C11.8022 49.9939 10.0082 51.7879 10.0082 53.9939C10.0082 55.0999 9.11416 55.9939 8.00816 55.9939Z" fill="white"/>
<path d="M14.0082 99.9919C9.59615 99.9919 6.00816 96.4039 6.00816 91.9919C6.00816 90.8859 6.90216 89.9919 8.00816 89.9919C9.11416 89.9919 10.0082 90.8859 10.0082 91.9919C10.0082 94.1979 11.8022 95.9919 14.0082 95.9919C15.1142 95.9919 16.0082 96.8859 16.0082 97.9919C16.0082 99.0979 15.1142 99.9919 14.0082 99.9919Z" fill="white"/>
<path d="M8.00816 93.9919C6.90216 93.9919 6.00816 93.0979 6.00816 91.9919V53.9739C6.00816 52.8679 6.90216 51.9739 8.00816 51.9739C9.11416 51.9739 10.0082 52.8679 10.0082 53.9739V91.9919C10.0082 93.0979 9.11416 93.9919 8.00816 93.9919Z" fill="white"/>
<path d="M14.0082 99.9918C12.9022 99.9918 12.0082 99.0978 12.0082 97.9918V47.9678C12.0082 46.8618 12.9022 45.9678 14.0082 45.9678C15.1142 45.9678 16.0082 46.8618 16.0082 47.9678V97.9918C16.0082 99.0978 15.1142 99.9918 14.0082 99.9918Z" fill="white"/>
<path d="M20.0042 72.0039H14.0082C12.9022 72.0039 12.0082 71.1099 12.0082 70.0039C12.0082 68.8979 12.9022 68.0039 14.0082 68.0039H20.0042C21.1102 68.0039 22.0042 68.8979 22.0042 70.0039C22.0042 71.1099 21.1102 72.0039 20.0042 72.0039Z" fill="white"/>
<path d="M20.0042 78.0039H14.0082C12.9022 78.0039 12.0082 77.1099 12.0082 76.0039C12.0082 74.8979 12.9022 74.0039 14.0082 74.0039H20.0042C21.1102 74.0039 22.0042 74.8979 22.0042 76.0039C22.0042 77.1099 21.1102 78.0039 20.0042 78.0039Z" fill="white"/>
<path d="M8.004 77.9999H2C0.894 77.9999 0 77.1059 0 75.9999V70.0039C0 68.8979 0.894 68.0039 2 68.0039H8.004C9.11 68.0039 10.004 68.8979 10.004 70.0039V75.9999C10.004 77.1059 9.11 77.9999 8.004 77.9999ZM4 73.9999H6.004V72.0039H4V73.9999Z" fill="white"/>
<path d="M88.0039 31.9999H41.9959C38.6879 31.9999 35.9959 29.3079 35.9959 25.9999V21.9939C35.9959 18.6859 38.6879 15.9939 41.9959 15.9939H88.0039C91.3119 15.9939 94.0039 18.6859 94.0039 21.9939V25.9999C94.0039 29.3079 91.3119 31.9999 88.0039 31.9999ZM41.9959 19.9939C40.8919 19.9939 39.9959 20.8899 39.9959 21.9939V25.9999C39.9959 27.1039 40.8919 27.9999 41.9959 27.9999H88.0039C89.1079 27.9999 90.0039 27.1039 90.0039 25.9999V21.9939C90.0039 20.8899 89.1079 19.9939 88.0039 19.9939H41.9959Z" fill="white"/>
<path d="M50.0041 37.99C48.8981 37.99 48.0041 37.096 48.0041 35.99V30C48.0041 28.894 48.8981 28 50.0041 28C51.1101 28 52.0041 28.894 52.0041 30V35.99C52.0041 37.096 51.1101 37.99 50.0041 37.99Z" fill="white"/>
<path d="M79.9959 37.99C78.8899 37.99 77.9959 37.096 77.9959 35.99V30C77.9959 28.894 78.8899 28 79.9959 28C81.1019 28 81.9959 28.894 81.9959 30V35.99C81.9959 37.096 81.1019 37.99 79.9959 37.99Z" fill="white"/>
<path d="M126 104H114C112.894 104 112 103.106 112 102V54C112 52.894 112.894 52 114 52H126C127.106 52 128 52.894 128 54V102C128 103.106 127.106 104 126 104ZM116 100H124V56H116V100Z" fill="white"/>
<path d="M114 98H107.996C106.89 98 105.996 97.106 105.996 96C105.996 94.894 106.89 94 107.996 94H114C115.106 94 116 94.894 116 96C116 97.106 115.106 98 114 98Z" fill="white"/>
<path d="M114 62H107.996C106.89 62 105.996 61.106 105.996 60C105.996 58.894 106.89 58 107.996 58H114C115.106 58 116 58.894 116 60C116 61.106 115.106 62 114 62Z" fill="white"/>
</svg>



