<svg width="128" height="128" viewBox="0 0 128 128" fill="none" xmlns="http://www.w3.org/2000/svg">
<path d="M12.06 108.996C10.954 108.996 10.05 108.102 10.05 106.996C10.05 105.89 10.934 104.996 12.038 104.996H12.06C13.164 104.996 14.06 105.89 14.06 106.996C14.06 108.102 13.164 108.996 12.06 108.996Z" fill="white"/>
<path d="M122.004 87.926C121.312 87.926 120.64 87.568 120.272 86.928C119.718 85.97 120.046 84.748 121 84.196C122.852 83.126 124 81.134 124 78.996C124 75.688 121.308 72.996 118 72.996C116.894 72.996 116 72.102 116 70.996C116 69.89 116.894 68.996 118 68.996C123.514 68.996 128 73.482 128 78.996C128 82.554 126.086 85.874 123.004 87.656C122.688 87.84 122.344 87.926 122.004 87.926Z" fill="white"/>
<path d="M68.0021 116.996C67.2901 116.996 66.6001 116.616 66.2381 115.944C65.7141 114.972 66.0801 113.758 67.0521 113.236L121.052 84.162C122.022 83.638 123.238 84.002 123.76 84.976C124.284 85.9479 123.918 87.1619 122.946 87.6839L68.9461 116.758C68.6461 116.92 68.3221 116.996 68.0021 116.996Z" fill="white"/>
<path d="M68.002 116.996C67.916 116.996 67.83 116.99 67.742 116.978L21.742 110.978C20.646 110.836 19.872 109.832 20.018 108.738C20.158 107.642 21.152 106.864 22.258 107.014L68.258 113.014C69.354 113.156 70.128 114.16 69.982 115.254C69.852 116.262 68.992 116.996 68.002 116.996Z" fill="white"/>
<path d="M22 114.996H2C0.894 114.996 0 114.102 0 112.996V58.996C0 57.892 0.894 56.996 2 56.996H22C23.106 56.996 24 57.892 24 58.996V112.996C24 114.102 23.106 114.996 22 114.996ZM4 110.996H20V60.996H4V110.996Z" fill="white"/>
<path d="M77.9981 78.9959C77.0261 78.9959 76.1741 78.2879 76.0241 77.2959C75.8581 76.2039 76.6081 75.1839 77.7001 75.0179L116.334 69.136C117.418 68.962 118.446 69.72 118.612 70.8119C118.778 71.9039 118.028 72.9239 116.936 73.0899L78.3001 78.9719C78.2001 78.9879 78.0981 78.9959 77.9981 78.9959Z" fill="white"/>
<path d="M70 86.996C68.894 86.996 68 86.102 68 84.996C68 83.89 68.894 82.996 70 82.996C73.308 82.996 76 80.304 76 76.996C76 74.066 73.912 71.58 71.034 71.084C69.946 70.896 69.216 69.862 69.404 68.774C69.592 67.686 70.626 66.96 71.714 67.144C76.516 67.968 80 72.114 80 76.996C80 82.51 75.514 86.996 70 86.996Z" fill="white"/>
<path d="M71.376 71.1139C71.25 71.1139 71.12 71.1019 70.992 71.0759L39.616 64.9579C38.532 64.7479 37.824 63.6959 38.036 62.6119C38.244 61.5279 39.3 60.8119 40.382 61.0319L71.758 67.1499C72.842 67.3599 73.55 68.4119 73.338 69.4959C73.152 70.4519 72.314 71.1139 71.376 71.1139Z" fill="white"/>
<path d="M40 64.996H22C20.894 64.996 20 64.1 20 62.996C20 61.892 20.894 60.996 22 60.996H40C41.106 60.996 42 61.892 42 62.996C42 64.1 41.106 64.996 40 64.996Z" fill="white"/>
<path d="M69.1601 86.95C69.1101 86.95 69.0561 86.948 69.0041 86.944L43.8461 84.99C42.7441 84.904 41.9201 83.944 42.0061 82.842C42.0921 81.74 43.0641 80.92 44.1541 81.002L69.3121 82.956C70.4141 83.042 71.2381 84.002 71.1521 85.104C71.0701 86.152 70.1961 86.95 69.1601 86.95Z" fill="white"/>
<path d="M116.63 73.1099C115.672 73.1099 114.824 72.4179 114.66 71.4399C114.478 70.3499 115.212 69.3179 116.302 69.1379C116.86 69.0439 117.43 68.9979 118 68.9979C119.106 68.9979 120 69.8919 120 70.9979C120 72.1039 119.106 72.9979 118 72.9979C117.646 72.9979 117.298 73.0279 116.962 73.0839C116.852 73.1019 116.74 73.1099 116.63 73.1099Z" fill="white"/>
<path d="M69.9999 86.996C69.6399 86.996 69.286 86.976 68.938 86.936C67.84 86.812 67.0519 85.82 67.1759 84.726C67.2999 83.628 68.2739 82.82 69.3859 82.964C69.5899 82.986 69.7919 82.998 69.9999 82.998C71.1059 82.998 71.9999 83.892 71.9999 84.998C71.9999 86.104 71.1059 86.996 69.9999 86.996Z" fill="white"/>
<path d="M118 37.796C116.894 37.796 116 36.9 116 35.796C116 32.064 113.334 28.91 109.662 28.296C108.572 28.114 107.838 27.082 108.02 25.994C108.204 24.906 109.234 24.17 110.322 24.352C115.93 25.29 120 30.104 120 35.796C120 36.902 119.106 37.796 118 37.796Z" fill="white"/>
<path d="M118 41.004C116.894 41.004 116 40.108 116 39.004V35.796C116 34.692 116.894 33.796 118 33.796C119.106 33.796 120 34.692 120 35.796V39.004C120 40.108 119.106 41.004 118 41.004Z" fill="white"/>
<path d="M119.996 48.998C118.89 48.998 117.996 48.102 117.996 46.998V41.004H116.796C115.69 41.004 114.796 40.108 114.796 39.004C114.796 37.9 115.69 37.004 116.796 37.004H119.996C121.102 37.004 121.996 37.9 121.996 39.004V46.998C121.996 48.102 121.102 48.998 119.996 48.998Z" fill="white"/>
<path d="M90.182 48.998H53.8C52.694 48.998 51.8 48.102 51.8 46.998C51.8 45.894 52.694 44.998 53.8 44.998H90.18C91.286 44.998 92.18 45.894 92.18 46.998C92.18 48.102 91.288 48.998 90.182 48.998Z" fill="white"/>
<path d="M29.998 48.998C29.56 48.998 29.12 48.854 28.75 48.56L22.75 43.756C21.886 43.066 21.748 41.806 22.44 40.944C23.128 40.084 24.388 39.942 25.25 40.632L31.25 45.436C32.114 46.126 32.252 47.386 31.56 48.248C31.166 48.742 30.586 48.998 29.998 48.998Z" fill="white"/>
<path d="M24 44.194C22.894 44.194 22 43.298 22 42.194V23.004C22 21.9 22.894 21.004 24 21.004C25.106 21.004 26 21.9 26 23.004V42.194C26 43.298 25.106 44.194 24 44.194Z" fill="white"/>
<path d="M32.762 25.004H24C22.894 25.004 22 24.108 22 23.004C22 21.9 22.894 21.004 24 21.004H32.762C33.868 21.004 34.762 21.9 34.762 23.004C34.762 24.108 33.868 25.004 32.762 25.004Z" fill="white"/>
<path d="M91.9961 26.998C91.4381 26.998 90.8821 26.766 90.4861 26.312C90.3861 26.198 80.4381 15.004 64.0001 15.004C47.2321 15.004 34.0761 24.52 33.9461 24.616C33.0521 25.268 31.8001 25.076 31.1521 24.188C30.4981 23.298 30.6901 22.046 31.5801 21.392C32.1561 20.968 45.9361 11.004 64.0001 11.004C82.3201 11.004 93.0601 23.174 93.5081 23.692C94.2301 24.526 94.1381 25.786 93.3061 26.51C92.9281 26.836 92.4601 26.998 91.9961 26.998Z" fill="white"/>
<path d="M109.998 28.3241C109.95 28.3241 109.9 28.3221 109.85 28.3201L91.8499 27.0001C90.7479 26.9181 89.9199 25.9601 90.0019 24.8581C90.0819 23.7561 91.0019 22.9421 92.1419 23.0101L110.142 24.3301C111.244 24.4121 112.072 25.3701 111.99 26.4721C111.914 27.5221 111.038 28.3241 109.998 28.3241Z" fill="white"/>
<path d="M62 27.004C60.896 27.004 60 26.108 60 25.004C60 23.9 60.894 23.004 62 23.004L91.996 23C93.1 23 93.996 23.896 93.996 25C93.996 26.104 93.102 27 91.996 27L62 27.004Z" fill="white"/>
<path d="M61.998 27.004C61.73 27.004 61.456 26.95 61.196 26.834L43.16 18.906C42.148 18.462 41.69 17.28 42.134 16.27C42.578 15.26 43.754 14.796 44.768 15.244L62.804 23.174C63.816 23.618 64.274 24.8 63.83 25.81C63.502 26.558 62.768 27.004 61.998 27.004Z" fill="white"/>
<path d="M62 27.004C60.894 27.004 60 26.108 60 25.004V13.046C60 11.942 60.894 11.046 62 11.046C63.106 11.046 64 11.942 64 13.046V25.004C64 26.108 63.106 27.004 62 27.004Z" fill="white"/>
<path d="M99.98 56.998C93.362 56.998 87.98 51.616 87.98 45.002C87.98 38.386 93.362 33.004 99.98 33.004C106.598 33.004 111.98 38.386 111.98 45.002C111.98 51.616 106.598 56.998 99.98 56.998ZM99.98 37.004C95.568 37.004 91.98 40.592 91.98 45.002C91.98 49.412 95.568 52.998 99.98 52.998C104.392 52.998 107.98 49.412 107.98 45.002C107.98 40.592 104.392 37.004 99.98 37.004Z" fill="white"/>
<path d="M99.98 51C96.672 51 93.98 48.31 93.98 45.002C93.98 41.694 96.672 39.004 99.98 39.004C103.288 39.004 105.98 41.694 105.98 45.002C105.98 48.31 103.29 51 99.98 51ZM99.98 43.004C98.876 43.004 97.98 43.9 97.98 45.002C97.98 46.104 98.876 47 99.98 47C101.084 47 101.98 46.104 101.98 45.002C101.98 43.9 101.084 43.004 99.98 43.004Z" fill="white"/>
<path d="M44 56.998C37.382 56.998 32 51.616 32 45.002C32 38.386 37.382 33.004 44 33.004C50.618 33.004 56 38.386 56 45.002C56 51.616 50.618 56.998 44 56.998ZM44 37.004C39.588 37.004 36 40.592 36 45.002C36 49.412 39.588 52.998 44 52.998C48.412 52.998 52 49.412 52 45.002C52 40.592 48.412 37.004 44 37.004Z" fill="white"/>
<path d="M44 51C40.692 51 38 48.31 38 45.002C38 41.694 40.692 39.004 44 39.004C47.308 39.004 50 41.694 50 45.002C50 48.31 47.308 51 44 51ZM44 43.004C42.896 43.004 42 43.9 42 45.002C42 46.104 42.896 47 44 47C45.104 47 46 46.104 46 45.002C46 43.9 45.104 43.004 44 43.004Z" fill="white"/>
<path d="M34.204 48.998H30C28.894 48.998 28 48.102 28 46.998C28 45.894 28.894 44.998 30 44.998H34.204C35.31 44.998 36.204 45.894 36.204 46.998C36.204 48.102 35.308 48.998 34.204 48.998Z" fill="white"/>
<path d="M119.996 48.998H109.778C108.672 48.998 107.778 48.102 107.778 46.998C107.778 45.894 108.672 44.998 109.778 44.998H119.996C121.102 44.998 121.996 45.894 121.996 46.998C121.996 48.102 121.102 48.998 119.996 48.998Z" fill="white"/>
</svg>

