<svg width="64" height="64" viewBox="0 0 64 64" fill="none" xmlns="http://www.w3.org/2000/svg">
<path d="M49.0176 33.0323H38.1935V37.1613L49.5483 39.2258L49.0589 33.1542C49.0448 33.1139 49.0332 33.0726 49.0176 33.0323Z" fill="#455A65"/>
<path d="M12.3871 57.8064C8.40273 57.8064 5.1613 54.565 5.1613 50.5806C5.1613 46.5963 8.40273 43.3548 12.3871 43.3548C16.3715 43.3548 19.6129 46.5963 19.6129 50.5806C19.6129 54.565 16.3715 57.8064 12.3871 57.8064Z" fill="#455A65"/>
<path d="M12.3871 38.1935C5.55645 38.1935 0 43.75 0 50.5806C0 57.4113 5.55645 62.9677 12.3871 62.9677C19.2177 62.9677 24.7742 57.4113 24.7742 50.5806C24.7742 43.75 19.2177 38.1935 12.3871 38.1935ZM18.4093 58.9471L17.4103 57.2162L15.622 58.2485L16.6235 59.9834C15.6275 60.4345 14.5519 60.7379 13.4194 60.8508V58.8387H11.3548V60.8508C10.2213 60.7379 9.14667 60.4335 8.15071 59.9834L9.15222 58.2485L7.36391 57.2162L6.36492 58.9471C5.4627 58.2959 4.67188 57.505 4.02067 56.6028L5.75151 55.6038L4.71925 53.8155L2.98438 54.817C2.53427 53.8211 2.22984 52.7465 2.11694 51.6129H4.12903V49.5484H2.11694C2.22984 48.4148 2.53427 47.3402 2.98438 46.3442L4.71925 47.3458L5.75151 45.5575L4.02067 44.5585C4.67188 43.6562 5.4627 42.8654 6.36492 42.2142L7.36391 43.9451L9.15222 42.9128L8.15071 41.1779C9.14667 40.7268 10.2223 40.4234 11.3548 40.3105V42.3226H13.4194V40.3105C14.5529 40.4234 15.6285 40.7278 16.6235 41.1779L15.622 42.9128L17.4103 43.9451L18.4093 42.2142C19.3115 42.8654 20.1023 43.6562 20.7535 44.5585L19.0227 45.5575L20.0549 47.3458L21.7898 46.3442C22.2409 47.3402 22.5444 48.4158 22.6573 49.5484H20.6452V51.6129H22.6573C22.5444 52.7465 22.2399 53.8211 21.7898 54.817L20.0549 53.8155L19.0227 55.6038L20.7535 56.6028C20.1023 57.505 19.3115 58.2959 18.4093 58.9471Z" fill="white"/>
<path d="M12.3871 45.4193C9.54132 45.4193 7.2258 47.7349 7.2258 50.5806C7.2258 53.4264 9.54132 55.7419 12.3871 55.7419C15.2329 55.7419 17.5484 53.4264 17.5484 50.5806C17.5484 47.7349 15.2329 45.4193 12.3871 45.4193ZM12.3871 53.6774C10.6799 53.6774 9.29032 52.2878 9.29032 50.5806C9.29032 48.8735 10.6799 47.4839 12.3871 47.4839C14.0942 47.4839 15.4839 48.8735 15.4839 50.5806C15.4839 52.2878 14.0942 53.6774 12.3871 53.6774Z" fill="white"/>
<path d="M11.3548 49.5484H13.4193V51.6129H11.3548V49.5484Z" fill="white"/>
<path d="M63.8574 31.1865L61.8952 21.375C61.3624 18.7087 59.3941 16.6316 56.9012 15.8422C58.0912 14.7127 58.8387 13.121 58.8387 11.3548V7.22581C58.8387 3.80998 56.061 1.03226 52.6452 1.03226C49.2293 1.03226 46.4516 3.80998 46.4516 7.22581H43.3548V9.29032H46.4516V11.3548C46.4516 14.0272 48.1557 16.3024 50.5323 17.1694L41.183 26.5197L31.7429 25.0096L28.1477 16.9199L33.2036 8.75252C35.3952 5.21068 39.1905 3.09677 43.3548 3.09677V1.03226C38.4703 1.03226 34.0192 3.51159 31.4476 7.66532L22.4773 22.1552L7.22782 7.70766C5.44506 6.01814 3.35988 5.16129 1.03226 5.16129H0V42.685L1.78881 40.7555C4.51613 37.8155 8.37903 36.129 12.3871 36.129C20.3563 36.129 26.8387 42.6114 26.8387 50.5807V53.6774H49.3211L48.6588 56.9919C48.6441 57.0655 48.5948 57.1295 48.5287 57.1623L45.6618 58.5963C44.8755 58.9894 44.3871 59.7802 44.3871 60.6598C44.3871 61.9325 45.4224 62.9677 46.6951 62.9677H61.9355C63.0741 62.9677 64 62.0418 64 60.9032V32.6235C64 32.1406 63.9526 31.6573 63.8574 31.1865ZM51.0141 55.7419L51.4693 53.4677C52.1623 53.1326 52.6452 52.4234 52.6452 51.5822L52.3311 41.2666C52.3311 40.0373 51.6265 38.9677 50.5806 38.4713V36.1033C51.7359 36.066 52.8826 35.9683 54.0171 35.8049C55.1578 41.4173 55.7419 47.1492 55.7419 52.8725V55.7419H51.0141ZM56.0504 35.4425C58.0252 35.0212 59.9607 34.4113 61.8417 33.6053L61.9355 33.566V55.7419H57.8064V52.8725C57.8064 47.0277 57.2107 41.1739 56.0504 35.4425ZM59.871 21.7807L61.7908 31.3816L61.0282 31.7087C57.6371 33.1623 54.0585 33.9405 50.3815 34.0439C50.0912 32.6371 49.4854 31.3458 48.6336 30.246L56.6492 22.2298C57.3957 21.4834 57.8064 20.4924 57.8064 19.4355C57.8064 19.1094 57.756 18.7974 57.6804 18.494C58.7777 19.2505 59.5953 20.4017 59.871 21.7807ZM48.5161 35.9441V37.9879L39.2258 36.2984V34.0645H48.2717C48.4314 34.6653 48.5161 35.2949 48.5161 35.9441ZM55.7419 19.4355C55.7419 19.932 55.5408 20.4178 55.1885 20.7702L47.1981 28.7616C46.1855 27.931 44.9859 27.3095 43.6583 26.9627L52.5191 18.1008C52.8765 17.7445 53.3503 17.5484 53.8538 17.5484C54.8957 17.5484 55.7419 18.3947 55.7419 19.4355ZM52.6452 3.09677C54.9224 3.09677 56.7742 4.94859 56.7742 7.22581H48.5161C48.5161 4.94859 50.3679 3.09677 52.6452 3.09677ZM48.5161 11.3548V9.29032H56.7742V11.3548C56.7742 13.6321 54.9224 15.4839 52.6452 15.4839C50.3679 15.4839 48.5161 13.6321 48.5161 11.3548ZM26.8327 19.0433L29.311 24.6195L24.2198 23.8049L24.0081 23.6048L26.8327 19.0433ZM5.80746 9.20564L21.1512 23.7419H17.8921L14.0978 20.8952L4.00403 10.8024C3.4506 10.2495 2.79032 9.84173 2.06452 9.5877V7.30343C3.43952 7.5126 4.69456 8.1507 5.80746 9.20564ZM4.12903 22.1936C4.12903 22.37 4.15675 22.5393 4.18145 22.7097H2.06452V11.878C2.23387 11.9909 2.39667 12.1154 2.54335 12.2621L8.8629 18.5806H7.74194C5.7495 18.5806 4.12903 20.2011 4.12903 22.1936ZM7.74194 20.6452H10.9274L12.6895 22.4073L14.4617 23.7419H7.74194C6.8881 23.7419 6.19355 23.0474 6.19355 22.1936C6.19355 21.3397 6.8881 20.6452 7.74194 20.6452ZM2.06452 37.69V24.7742H5.22127C5.87349 25.4113 6.76109 25.8065 7.74194 25.8065H16.4914C16.379 28.7072 15.7863 31.5398 14.7324 34.2505C13.9642 34.1411 13.185 34.0645 12.3871 34.0645C8.6245 34.0645 4.9753 35.3639 2.06452 37.69ZM16.7802 34.6764C17.8498 31.8246 18.4456 28.8508 18.5559 25.8065H23.6603L42.432 28.8095C44.5252 29.1437 46.2772 30.3372 47.3558 32H37.1613V38.0232L49.3916 40.2455C49.8982 40.3241 50.2666 40.7525 50.2676 41.2974L50.3926 45.4194H28.066C26.3453 40.2077 22.0988 36.1477 16.7802 34.6764ZM28.6018 47.4839H50.4546L50.5806 51.6129H28.9032V50.5807C28.9032 49.5217 28.7938 48.4884 28.6018 47.4839ZM46.4516 60.6598C46.4516 60.5665 46.503 60.4829 46.5857 60.442L49.4526 59.0081C49.9632 58.752 50.3432 58.3236 50.5509 57.8065H54.4652L52.8866 58.5963C52.1013 58.9894 51.6129 59.7802 51.6129 60.6598V60.9032H46.6951C46.561 60.9032 46.4516 60.7939 46.4516 60.6598ZM53.6774 60.9032V60.6598C53.6774 60.5665 53.7288 60.4829 53.8115 60.442L56.5318 59.0822C57.0706 58.813 57.4536 58.3493 57.6517 57.8075H61.9355V60.9042H53.6774V60.9032Z" fill="white"/>
</svg>
