<svg width="64" height="64" viewBox="0 0 64 64" fill="none" xmlns="http://www.w3.org/2000/svg">
<g clip-path="url(#clip0)">
<path d="M4.12903 16.5161H27.871V35.0968H4.12903V16.5161Z" fill="#455A65"/>
<path d="M42.3225 35.2188L41.8614 34.9874C36.4148 32.2651 33.0322 26.7913 33.0322 20.7031V16.1164L36.6608 17.3276C38.2006 17.8397 39.9516 17.4284 41.1013 16.2777L42.3225 15.0565L43.5438 16.2777C44.6945 17.4274 46.4435 17.8427 47.9854 17.3266L51.6129 16.1154V20.7021C51.6129 26.7903 48.2303 32.2641 42.7837 34.9874L42.3225 35.2188Z" fill="#455A65"/>
<path d="M42.3226 29.3306L38.496 25.504L39.9556 24.0444L42.3226 26.4113L55.0121 13.7218L56.4718 15.1814L42.3226 29.3306Z" fill="white"/>
<path d="M35.0968 51.6129H46.4516V53.6774H35.0968V51.6129Z" fill="white"/>
<path d="M41.2903 61.9355H2.06452V14.4516H14.4516V2.06452H41.2903V16.0887L42.3226 15.0565L43.3548 16.0887V0H12.9919L0 12.9919V64H43.3548V52.5161H41.2903V61.9355ZM3.52419 12.3871L12.3871 3.52419V12.3871H3.52419Z" fill="white"/>
<path d="M61.3407 42.0801L56.7616 41.4254C56.4844 41.3861 56.2314 41.2313 56.0681 41.0045L52.6553 36.2263C51.6895 34.872 50.1195 34.0645 48.4552 34.0645H35.2425C33.5121 34.0645 31.9073 34.9234 30.9481 36.3634L28.4572 40.0993C28.3241 40.2984 28.125 40.4471 27.8957 40.5151L19.7566 42.9561C18.435 43.3528 17.5484 44.5449 17.5484 45.9229V50.5806C17.5484 52.2878 18.938 53.6774 20.6452 53.6774H26.8387V51.6129H20.6452C20.0766 51.6129 19.6129 51.1502 19.6129 50.5806V45.9229C19.6129 45.4637 19.9093 45.0665 20.3478 44.934L28.4874 42.4929C29.1759 42.2863 29.7757 41.8427 30.1739 41.2439L32.6648 37.5081C33.2409 36.6442 34.2036 36.129 35.2425 36.129H48.4562C49.4547 36.129 50.3957 36.6144 50.9758 37.4254L54.3896 42.2051C54.8801 42.8901 55.6386 43.3508 56.4718 43.4703L61.0509 44.125C61.5545 44.1951 61.9355 44.6351 61.9355 45.1447V50.5806C61.9355 51.1502 61.4718 51.6129 60.9032 51.6129H54.7097V53.6774H60.9032C62.6104 53.6774 64 52.2878 64 50.5806V45.1447C64 43.6139 62.8574 42.2969 61.3407 42.0801Z" fill="white"/>
<path d="M34.4587 38.1935L31.3619 44.3871H52.251L49.1542 38.1935H34.4587ZM34.7026 42.3226L35.7349 40.2581H47.878L48.9103 42.3226H34.7026Z" fill="white"/>
<path d="M26.8387 8.25806H28.9032V10.3226H26.8387V8.25806Z" fill="white"/>
<path d="M30.9677 8.25806H33.0322V10.3226H30.9677V8.25806Z" fill="white"/>
<path d="M22.7097 8.25806H24.7742V10.3226H22.7097V8.25806Z" fill="white"/>
<path d="M4.12903 16.5161H27.871V18.5806H4.12903V16.5161Z" fill="white"/>
<path d="M4.12903 24.7742H27.871V26.8387H4.12903V24.7742Z" fill="white"/>
<path d="M30.9677 57.8065C28.122 57.8065 25.8065 55.4909 25.8065 52.6452C25.8065 49.7994 28.122 47.4839 30.9677 47.4839C33.8135 47.4839 36.129 49.7994 36.129 52.6452C36.129 55.4909 33.8135 57.8065 30.9677 57.8065Z" fill="#455A65"/>
<path d="M29.9355 51.6129H32V53.6774H29.9355V51.6129Z" fill="white"/>
<path d="M50.5807 57.8065C47.7349 57.8065 45.4194 55.4909 45.4194 52.6452C45.4194 49.7994 47.7349 47.4839 50.5807 47.4839C53.4264 47.4839 55.742 49.7994 55.742 52.6452C55.742 55.4909 53.4264 57.8065 50.5807 57.8065Z" fill="#455A65"/>
<path d="M49.5484 51.6129H51.6129V53.6774H49.5484V51.6129Z" fill="white"/>
<path d="M18.5806 20.6452H27.871V22.7097H18.5806V20.6452Z" fill="white"/>
<path d="M4.12903 20.6452H16.5161V22.7097H4.12903V20.6452Z" fill="white"/>
<path d="M4.12903 28.9032H27.871V30.9677H4.12903V28.9032Z" fill="white"/>
<path d="M4.12903 33.0323H27.871V35.0968H4.12903V33.0323Z" fill="white"/>
<path d="M22.7097 59.871H20.6452C19.068 59.871 18.3896 58.3206 17.8941 57.187C17.7051 56.7545 17.2626 55.7419 17.0353 55.7419C16.8085 55.7419 16.3654 56.7545 16.1764 57.187C15.6809 58.3196 15.003 59.871 13.4244 59.871C11.8463 59.871 11.1668 58.3206 10.6714 57.188C10.4824 56.7545 10.0388 55.7419 9.80947 55.7419C9.58014 55.7419 9.13659 56.7545 8.94758 57.188C8.4511 58.3206 7.77167 59.871 6.19354 59.871H4.12903V57.8065H6.19354C6.42288 57.8065 6.86643 56.7939 7.05544 56.3604C7.55191 55.2278 8.23135 53.6774 9.80947 53.6774C11.3881 53.6774 12.067 55.2278 12.5625 56.3604C12.7525 56.7939 13.1966 57.8065 13.4254 57.8065C13.6527 57.8065 14.0953 56.7939 14.2853 56.3614C14.7797 55.2278 15.4582 53.6774 17.0363 53.6774C18.6149 53.6774 19.2928 55.2288 19.7873 56.3614C19.9763 56.7939 20.4178 57.8065 20.6452 57.8065H22.7097V59.871Z" fill="white"/>
<path d="M24.7742 57.8065H26.8387V59.871H24.7742V57.8065Z" fill="white"/>
<path d="M39.2258 14.4516H16.5161V4.12903H39.2258V14.4516ZM18.5806 12.3871H37.1613V6.19354H18.5806V12.3871Z" fill="white"/>
</g>
<defs>
<clipPath id="clip0">
<rect width="64" height="64" fill="white"/>
</clipPath>
</defs>
</svg>

