<svg width="64" height="64" viewBox="0 0 64 64" fill="none" xmlns="http://www.w3.org/2000/svg">
<path d="M27.871 47.4839C19.3332 47.4839 12.3871 40.5378 12.3871 32C12.3871 23.4622 19.3332 16.5161 27.871 16.5161C36.4088 16.5161 43.3549 23.4622 43.3549 32C43.3549 40.5378 36.4088 47.4839 27.871 47.4839Z" fill="#455A65"/>
<path d="M27.871 20.6452C21.6104 20.6452 16.5161 25.7394 16.5161 32C16.5161 38.2606 21.6104 43.3548 27.871 43.3548C34.1315 43.3548 39.2258 38.2606 39.2258 32C39.2258 25.7394 34.1315 20.6452 27.871 20.6452ZM27.871 33.0323C27.3014 33.0323 26.8387 32.5685 26.8387 32C26.8387 31.4314 27.3014 30.9677 27.871 30.9677C28.4405 30.9677 28.9032 31.4314 28.9032 32C28.9032 32.5685 28.4405 33.0323 27.871 33.0323ZM29.1976 29.2137C29.1013 29.1683 29.0035 29.1295 28.9032 29.0943V22.7717C30.692 22.9708 32.3261 23.6799 33.6628 24.7495L29.1976 29.2137ZM26.8387 29.0932C26.7374 29.1295 26.6396 29.1673 26.5443 29.2127L22.0791 24.7475C23.4158 23.6779 25.0499 22.9687 26.8387 22.7697V29.0932ZM25.0847 30.6734C25.0393 30.7697 25.0005 30.8674 24.9652 30.9677H18.6426C18.8417 29.1789 19.5509 27.5449 20.6204 26.2082L25.0847 30.6734ZM24.9642 33.0323C25.0005 33.1336 25.0383 33.2313 25.0837 33.3266L20.6184 37.7918C19.5489 36.4551 18.8397 34.8211 18.6406 33.0323H24.9642ZM26.5443 34.7863C26.6406 34.8316 26.7384 34.8695 26.8387 34.9057V41.2283C25.0499 41.0292 23.4158 40.3201 22.0791 39.2505L26.5443 34.7863ZM28.9032 34.9068C29.0045 34.8705 29.1023 34.8327 29.1976 34.7873L33.6628 39.2525C32.3261 40.3221 30.692 41.0312 28.9032 41.2303V34.9068ZM30.6572 33.3266C30.7026 33.2303 30.7414 33.1326 30.7767 33.0323H37.0993C36.9002 34.8211 36.191 36.4551 35.1215 37.7918L30.6572 33.3266ZM30.7777 30.9677C30.7414 30.8664 30.7036 30.7686 30.6583 30.6734L35.1235 26.2082C36.193 27.5449 36.9022 29.1789 37.1013 30.9677H30.7777Z" fill="white"/>
<path d="M49.5801 5.08719L58.944 4.12298L58.7324 2.06955L49.4007 3.03074C48.3251 3.10836 47.4839 4.01259 47.4839 5.09021V5.16128H27.7056C22.9874 5.16128 18.4909 6.37751 14.5323 8.48437L11.6048 6.53225C10.3805 5.71673 8.7379 5.87953 7.69758 6.91935L2.79133 11.8246C1.7505 12.8649 1.58871 14.5086 2.40524 15.7318L4.04133 18.1855C2.21825 21.0786 0.923891 24.3211 0.349798 27.8069C0.116431 29.2097 0 30.621 0 32C0 36.9839 1.36341 41.8548 3.84929 46.0998L2.40423 48.2671C1.5877 49.4914 1.7495 51.1341 2.79032 52.1744L7.69657 57.0806C8.29335 57.6774 9.08921 57.9849 9.88911 57.9849C10.4834 57.9849 11.0811 57.8155 11.6038 57.4667L13.7485 56.0373C15.9763 57.3533 18.3649 58.3422 20.8599 58.9854L21.3659 61.5101C21.6537 62.9521 22.9304 64 24.4027 64H31.3402C32.8125 64 34.0892 62.9521 34.376 61.5111L34.8841 58.9718C37.3926 58.3135 39.7676 57.308 41.9541 56.0101L44.1381 57.4657C44.6598 57.8135 45.2586 57.9839 45.8538 57.9839C46.6537 57.9839 47.4486 57.6764 48.0454 57.0796L52.9516 52.1734C53.9924 51.1331 54.1542 49.4894 53.3377 48.2661L51.874 46.0706C54.2006 42.1386 55.5953 37.6094 55.7303 32.8039C55.8337 29.1346 55.2329 25.5837 53.9612 22.2132L58.7324 22.7046L58.944 20.6512L49.5484 19.684L49.5801 5.08719ZM4.12198 14.5867C3.84929 14.1789 3.90272 13.632 4.25 13.2853L9.15625 8.38003C9.50403 8.03326 10.0489 7.97933 10.4587 8.251L12.5514 9.64566C9.74849 11.4435 7.28478 13.7127 5.2994 16.3538L4.12198 14.5867ZM10.4587 55.749C10.0509 56.0207 9.50302 55.9682 9.15625 55.621L4.25 50.7147C3.90272 50.3679 3.84929 49.8211 4.12198 49.4123L5.05998 48.004C6.14415 49.5524 7.3881 50.9965 8.78125 52.3064C9.75706 53.2233 10.7828 54.0605 11.8553 54.817L10.4587 55.749ZM32.3518 61.1063C32.256 61.5867 31.8306 61.9355 31.3392 61.9355H24.4027C23.9113 61.9355 23.4859 61.5867 23.3911 61.1053L23.0605 59.4571C24.6275 59.7273 26.2268 59.871 27.8493 59.871C28.4395 59.871 29.0343 59.8523 29.631 59.816C30.6653 59.752 31.683 59.6245 32.6845 59.4476L32.3518 61.1063ZM51.62 49.4123C51.8926 49.8211 51.8392 50.3679 51.4919 50.7147L46.5857 55.621C46.2389 55.9667 45.691 56.0207 45.2833 55.749L43.8367 54.7853C46.4793 52.9168 48.7868 50.6023 50.6497 47.9577L51.62 49.4123ZM51.6436 21.9748C53.0872 25.379 53.7732 28.996 53.6658 32.7465C53.2933 45.9612 42.6789 56.9456 29.503 57.757C22.2969 58.2016 15.4345 55.7318 10.1956 50.8044C4.95262 45.8715 2.06452 39.1951 2.06452 32C2.06452 30.7324 2.17188 29.436 2.38558 28.1446C4.34879 16.2187 15.2339 7.2258 27.7056 7.2258H43.3548V11.3548H45.4194V7.2258H47.4839V17.5484H45.4194V13.4193H43.3548V17.5484H33.3841C34.7313 18.0645 35.9854 18.7611 37.122 19.6129H47.4839V19.684C47.4839 20.7616 48.3251 21.6658 49.3689 21.7404L51.6436 21.9748Z" fill="white"/>
<path d="M45.4194 32C45.4194 33.7072 46.809 35.0968 48.5161 35.0968C50.2233 35.0968 51.6129 33.7072 51.6129 32C51.6129 30.2928 50.2233 28.9032 48.5161 28.9032C46.809 28.9032 45.4194 30.2928 45.4194 32ZM49.5484 32C49.5484 32.5686 49.0857 33.0323 48.5161 33.0323C47.9466 33.0323 47.4839 32.5686 47.4839 32C47.4839 31.4315 47.9466 30.9677 48.5161 30.9677C49.0857 30.9677 49.5484 31.4315 49.5484 32Z" fill="white"/>
<path d="M9.69909 20.1764L7.96926 19.0494C7.56452 19.6688 7.18549 20.315 6.84174 20.9693L8.66986 21.9294C8.98387 21.3317 9.32964 20.7424 9.69909 20.1764Z" fill="white"/>
<path d="M6.19354 32C6.19354 29.064 6.77066 26.2162 7.90826 23.5363L6.00655 22.7303C4.76058 25.6658 4.12903 28.7858 4.12903 32C4.12903 45.0922 14.7787 55.7419 27.871 55.7419V53.6774C15.9183 53.6774 6.19354 43.9526 6.19354 32Z" fill="white"/>
<path d="M61.9355 24.7742H59.871C58.7324 24.7742 57.8065 23.8483 57.8065 22.7097V2.06452C57.8065 0.925907 58.7324 0 59.871 0H61.9355C63.0741 0 64 0.925907 64 2.06452V22.7097C64 23.8483 63.0741 24.7742 61.9355 24.7742Z" fill="#455A65"/>
</svg>
